<svg xmlns="http://www.w3.org/2000/svg" viewBox="0 0 804.3 900.01"><defs><style>.cls-1{fill:#afe2e2;}.cls-2{fill:#9fc2e4;}.cls-3{fill:#ffb0b2;}.cls-4{fill:#0a1a33;}.cls-5{fill:#89add3;}.cls-6{fill:#fbf7bd;}.cls-7{fill:#aeb8c2;}.cls-8{fill:#ff8b8f;}.cls-9{fill:#254059;}.cls-10{fill:#b9c2ca;}.cls-11{fill:#fff;}.cls-12{fill:#475366;}.cls-13{fill:#5b7082;}.cls-14{fill:#ff5c61;}.cls-15{fill:#ffa18d;}.cls-16{fill:#ff7579;}.cls-17{fill:#ffa4a7;}.cls-18{fill:#683a2c;}.cls-19{fill:#ddb5ab;stroke-width:4px;}.cls-19,.cls-21{stroke:#000;stroke-miterlimit:10;}.cls-20{fill:#75dbd9;}</style></defs><g id="Capa_2" data-name="Capa 2"><ellipse class="cls-1" cx="515.61" cy="509.99" rx="481.7" ry="363.46" transform="translate(-306.34 604.88) rotate(-57.02)"/><ellipse class="cls-2" cx="475.34" cy="839.51" rx="238.62" ry="46.11"/></g><g id="Capa_1" data-name="Capa 1"><rect class="cls-3" x="498.77" y="336.98" width="186.04" height="165.12" rx="12"/><path class="cls-4" d="M790.14,563.77H620.37a9.84,9.84,0,0,1-9.83-9.83V405.09a9.84,9.84,0,0,1,9.83-9.83H790.14a9.84,9.84,0,0,1,9.83,9.83V553.94A9.84,9.84,0,0,1,790.14,563.77ZM620.37,398.65a6.45,6.45,0,0,0-6.44,6.44V553.94a6.45,6.45,0,0,0,6.44,6.44H790.14a6.45,6.45,0,0,0,6.44-6.44V405.09a6.45,6.45,0,0,0-6.44-6.44Z" transform="translate(-113.46 -59.98)"/><rect class="cls-3" x="498.77" y="336.98" width="105.9" height="165.12" rx="9.05"/><path class="cls-4" d="M712,563.77H618.38a7.84,7.84,0,0,1-7.84-7.83V403.1a7.85,7.85,0,0,1,7.84-7.84H712a7.84,7.84,0,0,1,7.83,7.84V555.94A7.84,7.84,0,0,1,712,563.77ZM618.38,398.65a4.46,4.46,0,0,0-4.45,4.45V555.94a4.45,4.45,0,0,0,4.45,4.44H712a4.44,4.44,0,0,0,4.44-4.44V403.1a4.45,4.45,0,0,0-4.44-4.45Z" transform="translate(-113.46 -59.98)"/><path class="cls-4" d="M472.68,646.84c-1.28,0-2.55,0-3.82,0a1,1,0,0,1-1-1,1,1,0,0,1,1-1c2.69.05,5.43.05,8.1,0a1,1,0,1,1,0,2C475.6,646.83,474.13,646.84,472.68,646.84Zm-11.93-.35h-.06c-2.71-.16-5.45-.38-8.15-.65a1,1,0,0,1,.2-2c2.67.26,5.39.48,8.07.64a1,1,0,0,1,.95,1.07A1,1,0,0,1,460.75,646.49Zm24.39,0a1,1,0,0,1-1-1,1,1,0,0,1,.95-1.07c2.69-.17,5.4-.39,8.07-.66a1,1,0,0,1,.21,2c-2.7.28-5.44.5-8.15.67Zm-40.57-1.58h-.15c-2.69-.38-5.4-.82-8.07-1.31a1,1,0,0,1,.37-2c2.64.48,5.32.92,8,1.29a1,1,0,0,1-.14,2Zm56.74-.08a1,1,0,0,1-.14-2c2.66-.38,5.35-.83,8-1.32a1,1,0,0,1,1.18.82,1,1,0,0,1-.81,1.18c-2.67.5-5.38.94-8.07,1.33ZM428.57,642a.91.91,0,0,1-.23,0c-2.64-.59-5.31-1.25-7.93-2a1,1,0,1,1,.53-2c2.59.69,5.24,1.35,7.85,1.94a1,1,0,0,1-.22,2Zm88.73-.12a1,1,0,0,1-.22-2c2.61-.59,5.25-1.25,7.85-2a1,1,0,1,1,.53,2c-2.62.72-5.29,1.38-7.93,2Zm-104.44-4.11a1,1,0,0,1-.3-.05c-2.6-.81-5.21-1.69-7.77-2.61a1,1,0,1,1,.69-1.92c2.53.91,5.12,1.78,7.69,2.59a1,1,0,0,1,.66,1.28A1,1,0,0,1,412.86,637.72ZM533,637.56a1,1,0,0,1-.31-2c2.56-.82,5.14-1.69,7.66-2.61a1,1,0,1,1,.7,1.92c-2.55.92-5.16,1.8-7.74,2.62A.87.87,0,0,1,533,637.56ZM397.52,632.2a1.09,1.09,0,0,1-.39-.08c-2.51-1-5-2.11-7.52-3.24a1,1,0,0,1,.85-1.85c2.44,1.12,5,2.2,7.44,3.21a1,1,0,0,1-.38,2ZM548.29,632a1,1,0,0,1-.39-2c2.48-1,5-2.09,7.41-3.21a1,1,0,0,1,.85,1.85c-2.47,1.13-5,2.22-7.49,3.24A1,1,0,0,1,548.29,632Zm-165.6-6.58a1.07,1.07,0,0,1-.46-.11c-2.42-1.23-4.86-2.52-7.23-3.85a1,1,0,0,1,1-1.77c2.35,1.31,4.76,2.59,7.16,3.81a1,1,0,0,1-.46,1.92ZM563,625.26a1,1,0,0,1-.46-1.93c2.39-1.21,4.78-2.5,7.12-3.81a1,1,0,0,1,1,1.78c-2.36,1.32-4.79,2.62-7.2,3.85A1.07,1.07,0,0,1,563,625.26Zm-194.57-7.77a.93.93,0,0,1-.53-.15c-2.32-1.42-4.63-2.9-6.89-4.42a1,1,0,1,1,1.13-1.69c2.24,1.5,4.53,3,6.82,4.38a1,1,0,0,1,.34,1.4A1,1,0,0,1,368.47,617.49Zm208.73-.18a1,1,0,0,1-.54-1.88c2.29-1.41,4.57-2.88,6.8-4.38a1,1,0,1,1,1.13,1.68c-2.25,1.52-4.55,3-6.86,4.43A1,1,0,0,1,577.2,617.31ZM355,608.42a1,1,0,0,1-.6-.2c-2.19-1.6-4.38-3.27-6.5-5a1,1,0,0,1,1.27-1.59c2.1,1.67,4.27,3.33,6.43,4.91a1,1,0,0,1,.22,1.42A1,1,0,0,1,355,608.42Zm235.72-.19a1,1,0,0,1-.82-.41,1,1,0,0,1,.22-1.43c2.17-1.59,4.33-3.24,6.42-4.91a1,1,0,0,1,1.27,1.59c-2.11,1.68-4.3,3.35-6.49,5A1,1,0,0,1,590.67,608.23Zm-248.45-10a1,1,0,0,1-.66-.24c-2.05-1.78-4.1-3.62-6.08-5.48a1,1,0,0,1,0-1.44,1,1,0,0,1,1.43,0c2,1.84,4,3.66,6,5.42a1,1,0,0,1-.67,1.78Zm261.15-.19a1,1,0,0,1-.67-1.79c2-1.76,4-3.58,6-5.42a1,1,0,0,1,1.43,0,1,1,0,0,1,0,1.44c-2,1.86-4,3.7-6.06,5.48A1.07,1.07,0,0,1,603.37,598.09Zm-273-10.94a1,1,0,0,1-.73-.3c-1.89-1.93-3.78-3.93-5.6-6a1,1,0,1,1,1.5-1.36c1.81,2,3.68,4,5.56,5.88a1,1,0,0,1-.73,1.73Zm284.85-.21a1,1,0,0,1-.71-.29,1,1,0,0,1,0-1.44c1.88-1.92,3.74-3.9,5.54-5.89a1,1,0,1,1,1.51,1.36c-1.82,2-3.7,4-5.6,6A1,1,0,0,1,615.21,586.94ZM319.44,575.1a1,1,0,0,1-.78-.36c-1.74-2.09-3.46-4.23-5.11-6.38a1,1,0,1,1,1.62-1.24c1.63,2.13,3.33,4.25,5.05,6.31a1,1,0,0,1-.13,1.44A1.05,1.05,0,0,1,319.44,575.1Zm306.68-.23a1,1,0,0,1-.79-1.67c1.72-2.06,3.42-4.19,5.06-6.33a1,1,0,1,1,1.61,1.24c-1.65,2.16-3.37,4.31-5.1,6.39A1,1,0,0,1,626.12,574.87ZM309.54,562.21a1,1,0,0,1-.83-.43c-1.56-2.21-3.1-4.49-4.57-6.76a1,1,0,0,1,1.71-1.11c1.46,2.25,3,4.51,4.52,6.7a1,1,0,0,1-.24,1.42A1,1,0,0,1,309.54,562.21ZM636,561.94a1,1,0,0,1-.58-.18,1,1,0,0,1-.25-1.42c1.54-2.19,3.06-4.45,4.52-6.72a1,1,0,0,1,1.41-.3,1,1,0,0,1,.3,1.4c-1.47,2.29-3,4.58-4.57,6.79A1,1,0,0,1,636,561.94ZM300.73,548.57a1,1,0,0,1-.88-.5c-1.38-2.33-2.72-4.72-4-7.11a1,1,0,1,1,1.79-1c1.27,2.36,2.6,4.73,4,7a1,1,0,0,1-.36,1.39A1,1,0,0,1,300.73,548.57Zm344.09-.31a1,1,0,0,1-.51-.15,1,1,0,0,1-.36-1.39c1.36-2.31,2.69-4.69,4-7.07a1,1,0,1,1,1.79,1c-1.28,2.4-2.62,4.81-4,7.14A1,1,0,0,1,644.82,548.26Zm-351.77-14a1,1,0,0,1-.91-.57c-1.19-2.44-2.34-4.94-3.41-7.41a1,1,0,1,1,1.86-.81c1.07,2.45,2.2,4.91,3.38,7.33a1,1,0,0,1-.48,1.36A1,1,0,0,1,293.05,534.26Zm359.45-.38a1,1,0,0,1-.45-.1,1,1,0,0,1-.47-1.35c1.17-2.43,2.31-4.91,3.37-7.38a1,1,0,0,1,1.87.81c-1.08,2.49-2.22,5-3.41,7.45A1,1,0,0,1,652.5,533.88ZM286.58,519.39a1,1,0,0,1-.95-.65c-1-2.52-1.92-5.11-2.8-7.68a1,1,0,0,1,1.93-.66c.86,2.55,1.8,5.11,2.76,7.6a1,1,0,0,1-.58,1.32A.92.92,0,0,1,286.58,519.39ZM659,518.93a1.21,1.21,0,0,1-.37-.07,1,1,0,0,1-.58-1.32c1-2.51,1.89-5.07,2.75-7.63a1,1,0,1,1,1.93.65c-.87,2.58-1.81,5.18-2.78,7.71A1,1,0,0,1,659,518.93ZM281.33,504a1,1,0,0,1-1-.73c-.77-2.61-1.49-5.26-2.16-7.89a1,1,0,0,1,2-.5c.65,2.61,1.37,5.23,2.13,7.81a1,1,0,0,1-.68,1.26A1,1,0,0,1,281.33,504Zm382.86-.5a1.35,1.35,0,0,1-.29,0,1,1,0,0,1-.69-1.27c.75-2.57,1.46-5.2,2.11-7.81a1,1,0,0,1,2,.49c-.66,2.64-1.38,5.3-2.14,7.9A1,1,0,0,1,664.19,503.5ZM277.36,488.22a1,1,0,0,1-1-.81c-.55-2.64-1.05-5.35-1.5-8a1,1,0,0,1,2-.34c.44,2.66.94,5.34,1.49,8a1,1,0,0,1-.79,1.2A.75.75,0,0,1,277.36,488.22Zm390.75-.51a.65.65,0,0,1-.2,0,1,1,0,0,1-.8-1.2c.55-2.63,1-5.31,1.47-8a1,1,0,0,1,1.17-.84,1,1,0,0,1,.84,1.17c-.44,2.68-.94,5.38-1.48,8A1,1,0,0,1,668.11,487.71ZM274.7,472.18a1,1,0,0,1-1-.89c-.34-2.7-.62-5.43-.85-8.13a1,1,0,1,1,2-.17c.22,2.67.5,5.38.84,8.05a1,1,0,0,1-.89,1.13Zm396-.52h-.12a1,1,0,0,1-.89-1.14c.33-2.66.6-5.37.82-8a1,1,0,1,1,2,.17c-.22,2.71-.49,5.44-.82,8.13A1,1,0,0,1,670.73,471.66ZM273.35,456a1,1,0,0,1-1-1c-.11-2.72-.18-5.46-.18-8.17a1,1,0,0,1,1-1h0a1,1,0,0,1,1,1c0,2.68.07,5.41.18,8.09a1,1,0,0,1-1,1.06ZM672,455.45h0a1,1,0,0,1-1-1.05c.11-2.68.16-5.4.16-8.1v-1a1,1,0,0,1,1-1,1,1,0,0,1,1,1v1c0,2.72-.06,5.47-.16,8.18A1,1,0,0,1,672,455.45ZM273.31,439.71h0a1,1,0,0,1-1-1.06c.1-2.71.26-5.46.47-8.16a1,1,0,0,1,2,.16c-.21,2.67-.37,5.39-.47,8.08A1,1,0,0,1,273.31,439.71ZM672,438.16a1,1,0,0,1-1-1c-.12-2.69-.3-5.4-.53-8.08a1,1,0,0,1,.93-1.1,1,1,0,0,1,1.1.93c.23,2.7.41,5.44.53,8.15a1,1,0,0,1-1,1.07ZM274.57,423.5h-.12a1,1,0,0,1-.89-1.13c.32-2.7.7-5.42,1.13-8.1a1,1,0,1,1,2,.33c-.42,2.64-.8,5.34-1.12,8A1,1,0,0,1,274.57,423.5Zm396-1.55a1,1,0,0,1-1-.88c-.33-2.66-.73-5.36-1.18-8a1,1,0,0,1,2-.34c.45,2.68.85,5.4,1.19,8.09a1,1,0,0,1-.88,1.14ZM277.15,407.44l-.2,0a1,1,0,0,1-.8-1.2c.54-2.66,1.14-5.34,1.79-8a1,1,0,0,1,2,.49c-.64,2.61-1.24,5.26-1.77,7.89A1,1,0,0,1,277.15,407.44Zm390.75-1.52a1,1,0,0,1-1-.81c-.55-2.63-1.17-5.28-1.83-7.88a1,1,0,1,1,2-.5c.67,2.63,1.29,5.31,1.85,8a1,1,0,0,1-.78,1.21ZM281,391.65a1.45,1.45,0,0,1-.29,0,1,1,0,0,1-.69-1.26c.75-2.61,1.57-5.23,2.44-7.81a1,1,0,1,1,1.92.65c-.85,2.55-1.66,5.15-2.41,7.72A1,1,0,0,1,281,391.65Zm382.85-1.49a1,1,0,0,1-1-.73c-.77-2.58-1.6-5.17-2.48-7.71a1,1,0,0,1,.63-1.29,1,1,0,0,1,1.3.63c.88,2.56,1.72,5.18,2.5,7.79a1,1,0,0,1-.69,1.26A.93.93,0,0,1,663.89,390.16Zm-377.68-14a1.13,1.13,0,0,1-.36-.06,1,1,0,0,1-.59-1.32c1-2.54,2-5.09,3.08-7.59a1,1,0,0,1,1.33-.53,1,1,0,0,1,.54,1.33c-1.06,2.47-2.09,5-3,7.52A1,1,0,0,1,286.21,376.2Zm372.39-1.42a1,1,0,0,1-1-.65c-1-2.49-2-5-3.08-7.46a1,1,0,0,1,.52-1.34,1,1,0,0,1,1.34.53c1.09,2.48,2.14,5,3.12,7.53a1,1,0,0,1-.58,1.32A1.21,1.21,0,0,1,658.6,374.78Zm-366-13.55a1,1,0,0,1-.44-.1,1,1,0,0,1-.47-1.36c1.17-2.45,2.41-4.91,3.68-7.31a1,1,0,0,1,1.8,1c-1.26,2.38-2.49,4.81-3.65,7.24A1,1,0,0,1,292.64,361.23Zm359.45-1.31a1,1,0,0,1-.92-.57c-1.17-2.41-2.41-4.83-3.69-7.19a1,1,0,0,1,.42-1.38,1,1,0,0,1,1.37.42c1.29,2.38,2.55,4.82,3.73,7.25a1,1,0,0,1-.47,1.36A1,1,0,0,1,652.09,359.92ZM300.28,346.84a1.1,1.1,0,0,1-.52-.14,1,1,0,0,1-.36-1.39c1.37-2.35,2.81-4.7,4.27-7a1,1,0,0,1,1.41-.3,1,1,0,0,1,.3,1.4c-1.44,2.26-2.87,4.59-4.22,6.91A1,1,0,0,1,300.28,346.84Zm344.1-1.21a1,1,0,0,1-.88-.5c-1.36-2.3-2.8-4.61-4.26-6.86a1,1,0,1,1,1.7-1.11c1.48,2.27,2.93,4.61,4.31,6.93a1,1,0,0,1-.35,1.4A1.13,1.13,0,0,1,644.38,345.63ZM309.06,333.12a1,1,0,0,1-.59-.18,1,1,0,0,1-.25-1.42c1.56-2.22,3.18-4.44,4.83-6.61a1,1,0,1,1,1.61,1.24c-1.63,2.14-3.23,4.34-4.77,6.54A1,1,0,0,1,309.06,333.12ZM635.53,332a1,1,0,0,1-.83-.43c-1.56-2.19-3.18-4.37-4.82-6.5a1,1,0,0,1,1.61-1.24c1.66,2.14,3.3,4.35,4.86,6.56a1,1,0,0,1-.24,1.42A1,1,0,0,1,635.53,332ZM318.92,320.17a1,1,0,0,1-.65-.23,1,1,0,0,1-.14-1.43c1.74-2.09,3.53-4.18,5.34-6.19a1,1,0,0,1,1.52,1.36c-1.8,2-3.58,4.06-5.29,6.13A1,1,0,0,1,318.92,320.17Zm306.67-1a1,1,0,0,1-.78-.37c-1.72-2-3.51-4.1-5.32-6.09a1,1,0,0,1,.06-1.43,1,1,0,0,1,1.44.06c1.83,2,3.64,4.08,5.38,6.16a1,1,0,0,1-.12,1.43A1.05,1.05,0,0,1,625.59,319.15Zm-295.8-11.08a1,1,0,0,1-.73-1.72c1.9-2,3.86-3.88,5.83-5.74a1,1,0,0,1,1.43,0,1,1,0,0,1,0,1.44c-1.94,1.84-3.88,3.75-5.76,5.68A1,1,0,0,1,329.79,308.07Zm284.85-.95a1,1,0,0,1-.72-.3c-1.88-1.9-3.83-3.8-5.8-5.64a1,1,0,0,1,1.38-1.49c2,1.86,4,3.78,5.87,5.7a1,1,0,0,1,0,1.44A1,1,0,0,1,614.64,307.12Zm-273-10.22a1,1,0,0,1-.76-.35,1,1,0,0,1,.09-1.44c2.05-1.78,4.16-3.54,6.27-5.24a1,1,0,1,1,1.27,1.59c-2.09,1.68-4.18,3.42-6.2,5.19A1,1,0,0,1,341.6,296.9ZM602.75,296a1,1,0,0,1-.66-.24c-2-1.76-4.14-3.49-6.24-5.16a1,1,0,1,1,1.26-1.59c2.12,1.68,4.24,3.43,6.31,5.21a1,1,0,0,1-.67,1.78Zm-248.47-9.3a1,1,0,0,1-.82-.41,1,1,0,0,1,.21-1.43c2.18-1.61,4.43-3.19,6.67-4.71a1,1,0,1,1,1.14,1.68c-2.22,1.51-4.44,3.08-6.6,4.67A1,1,0,0,1,354.28,286.72Zm235.72-.8a1,1,0,0,1-.6-.2c-2.18-1.58-4.41-3.14-6.65-4.63a1,1,0,1,1,1.13-1.69c2.26,1.5,4.52,3.08,6.71,4.68a1,1,0,0,1,.23,1.42A1,1,0,0,1,590,285.92Zm-222.27-8.31a1,1,0,0,1-.54-1.88c2.3-1.43,4.67-2.83,7-4.16a1,1,0,0,1,1.38.38,1,1,0,0,1-.38,1.39c-2.34,1.32-4.68,2.7-7,4.11A.94.94,0,0,1,367.73,277.61Zm208.72-.73a1,1,0,0,1-.52-.15c-2.3-1.4-4.66-2.77-7-4.08a1,1,0,0,1-.39-1.38,1,1,0,0,1,1.38-.4c2.38,1.32,4.76,2.71,7.07,4.12a1,1,0,0,1,.34,1.4A1,1,0,0,1,576.45,276.88Zm-194.58-7.26a1,1,0,0,1-.47-1.92c2.41-1.23,4.88-2.44,7.34-3.57a1,1,0,1,1,.85,1.85c-2.43,1.12-4.87,2.31-7.26,3.53A1,1,0,0,1,381.87,269.62ZM562.21,269a.91.91,0,0,1-.45-.11c-2.4-1.21-4.87-2.38-7.32-3.49a1,1,0,0,1-.5-1.35,1,1,0,0,1,1.34-.5c2.48,1.12,5,2.3,7.39,3.53a1,1,0,0,1-.46,1.92ZM396.6,262.82a1,1,0,0,1-.39-1.95c2.51-1,5.07-2,7.62-3a1,1,0,0,1,.7,1.91c-2.53.92-5.06,1.91-7.54,2.94A1.07,1.07,0,0,1,396.6,262.82Zm150.77-.57a1,1,0,0,1-.38-.07c-2.5-1-5-2-7.59-2.89a1,1,0,0,1,.69-1.91c2.56.91,5.14,1.89,7.66,2.91a1,1,0,0,1-.38,2Zm-135.5-5a1,1,0,0,1-.31-2c2.59-.82,5.23-1.61,7.84-2.33a1,1,0,0,1,.54,2c-2.59.71-5.2,1.48-7.76,2.3A1.06,1.06,0,0,1,411.87,257.24ZM532,256.77a.79.79,0,0,1-.3,0c-2.57-.79-5.18-1.55-7.78-2.24a1,1,0,0,1-.72-1.24,1,1,0,0,1,1.24-.72c2.63.69,5.27,1.46,7.86,2.26a1,1,0,0,1-.3,2Zm-104.46-3.84a1,1,0,0,1-.22-2c2.64-.61,5.33-1.18,8-1.68a1,1,0,0,1,.37,2c-2.64.5-5.3,1.06-7.92,1.66A.85.85,0,0,1,427.55,252.93Zm88.74-.35a.82.82,0,0,1-.22,0c-2.62-.59-5.29-1.12-7.93-1.6a1,1,0,0,1,.36-2c2.67.48,5.37,1,8,1.61a1,1,0,0,1,.77,1.22A1,1,0,0,1,516.29,252.58Zm-72.75-2.66a1,1,0,0,1-1-.87,1,1,0,0,1,.86-1.16c2.68-.39,5.41-.73,8.11-1a1,1,0,0,1,.21,2c-2.67.28-5.37.62-8,1Zm56.75-.22h-.14c-2.66-.37-5.36-.69-8-.95a1,1,0,1,1,.2-2c2.7.26,5.44.58,8.12.95a1,1,0,0,1-.14,2Zm-40.58-1.48a1,1,0,0,1-1-.95,1,1,0,0,1,.95-1.08c2.7-.18,5.45-.3,8.16-.36a1,1,0,0,1,1,1,1,1,0,0,1-1,1c-2.68.06-5.4.18-8.08.36Zm24.39-.1H484c-2.68-.15-5.4-.25-8.08-.29a1,1,0,0,1,0-2h0c2.71,0,5.46.14,8.17.29a1,1,0,0,1-.06,2Z" transform="translate(-113.46 -59.98)"/><rect class="cls-5" x="428.32" y="600.13" width="172.74" height="17.14"/><path class="cls-4" d="M714.53,679H541.79a1.7,1.7,0,0,1-1.7-1.7V660.11a1.7,1.7,0,0,1,1.7-1.7H714.53a1.7,1.7,0,0,1,1.7,1.7v17.14A1.7,1.7,0,0,1,714.53,679Zm-171-3.4H712.84V661.8H543.48Z" transform="translate(-113.46 -59.98)"/><path class="cls-6" d="M256.65,533v3.22a26.91,26.91,0,0,0,22.13,26.38v-56A26.89,26.89,0,0,0,256.65,533Z" transform="translate(-113.46 -59.98)"/><path class="cls-4" d="M278.78,564.27l-.3,0a28.47,28.47,0,0,1-23.52-28V533a28.46,28.46,0,0,1,23.52-28.05,1.67,1.67,0,0,1,1.39.37,1.69,1.69,0,0,1,.6,1.3v56a1.69,1.69,0,0,1-1.69,1.7Zm-1.7-55.58A25.07,25.07,0,0,0,258.35,533v3.22a25.08,25.08,0,0,0,18.73,24.28Z" transform="translate(-113.46 -59.98)"/><path class="cls-7" d="M283.46,506.17a26.71,26.71,0,0,0-4.68.42v56a26.71,26.71,0,0,0,4.68.42h3.77V506.17Z" transform="translate(-113.46 -59.98)"/><path class="cls-4" d="M287.23,564.69h-3.77a28.2,28.2,0,0,1-5-.45,1.7,1.7,0,0,1-1.4-1.67v-56a1.69,1.69,0,0,1,1.4-1.67,28.2,28.2,0,0,1,5-.45h3.77a1.7,1.7,0,0,1,1.7,1.7V563A1.7,1.7,0,0,1,287.23,564.69Zm-6.76-3.58a25.27,25.27,0,0,0,3,.19h2.08V507.86h-2.08a25.24,25.24,0,0,0-3,.18Z" transform="translate(-113.46 -59.98)"/><path class="cls-8" d="M304.78,506.17H287.23V563h33.88a9.3,9.3,0,0,0,9.27-9.27v-22A25.67,25.67,0,0,0,304.78,506.17Z" transform="translate(-113.46 -59.98)"/><path class="cls-4" d="M321.11,564.69H287.23a1.7,1.7,0,0,1-1.69-1.7V506.17a1.7,1.7,0,0,1,1.69-1.7h17.55a27.32,27.32,0,0,1,27.29,27.29v22A11,11,0,0,1,321.11,564.69Zm-32.18-3.39h32.18a7.59,7.59,0,0,0,7.57-7.58v-22a23.93,23.93,0,0,0-23.9-23.9H288.93Z" transform="translate(-113.46 -59.98)"/><circle class="cls-9" cx="216.41" cy="821.2" r="67.58" transform="translate(-630.75 333.57) rotate(-45)"/><path class="cls-4" d="M216.41,890.47a69.28,69.28,0,1,1,69.28-69.27A69.36,69.36,0,0,1,216.41,890.47Zm0-135.16A65.89,65.89,0,1,0,282.3,821.2,66,66,0,0,0,216.41,755.31Z" transform="translate(-113.46 -59.98)"/><path class="cls-10" d="M216.41,854.87a33.68,33.68,0,1,1,33.68-33.67A33.7,33.7,0,0,1,216.41,854.87Z" transform="translate(-113.46 -59.98)"/><path class="cls-4" d="M216.41,856.57a35.38,35.38,0,1,1,35.37-35.37A35.41,35.41,0,0,1,216.41,856.57Zm0-67.36a32,32,0,1,0,32,32A32,32,0,0,0,216.41,789.21Z" transform="translate(-113.46 -59.98)"/><circle class="cls-9" cx="569.28" cy="821.2" r="67.58" transform="translate(-527.4 583.08) rotate(-45)"/><path class="cls-4" d="M569.28,890.47a69.28,69.28,0,1,1,69.27-69.27A69.36,69.36,0,0,1,569.28,890.47Zm0-135.16a65.89,65.89,0,1,0,65.88,65.89A66,66,0,0,0,569.28,755.31Z" transform="translate(-113.46 -59.98)"/><path class="cls-10" d="M569.28,854.87A33.68,33.68,0,1,1,603,821.2,33.71,33.71,0,0,1,569.28,854.87Z" transform="translate(-113.46 -59.98)"/><path class="cls-4" d="M569.28,856.57a35.38,35.38,0,1,1,35.37-35.37A35.42,35.42,0,0,1,569.28,856.57Zm0-67.36a32,32,0,1,0,32,32A32,32,0,0,0,569.28,789.21Z" transform="translate(-113.46 -59.98)"/><path class="cls-8" d="M245.72,747.56a80.74,80.74,0,0,0-105.15,44.52L290.24,852.7A80.73,80.73,0,0,0,245.72,747.56Z" transform="translate(-113.46 -59.98)"/><path class="cls-4" d="M290.24,854.4a1.63,1.63,0,0,1-.64-.13L139.94,793.65a1.7,1.7,0,0,1-.94-2.21A82.53,82.53,0,0,1,246.35,746h0a82.44,82.44,0,0,1,45.46,107.35A1.7,1.7,0,0,1,290.24,854.4ZM142.8,791.15l146.49,59.34a79.05,79.05,0,0,0-44.21-101.36h0A79.13,79.13,0,0,0,142.8,791.15Z" transform="translate(-113.46 -59.98)"/><path class="cls-7" d="M216.41,833a10.17,10.17,0,0,1-9.25-14.4L331.9,545.93a10.17,10.17,0,1,1,18.5,8.46L225.66,827A10.17,10.17,0,0,1,216.41,833Z" transform="translate(-113.46 -59.98)"/><path class="cls-4" d="M216.41,834.67a11.68,11.68,0,0,1-4.93-1.08,11.89,11.89,0,0,1-5.86-15.73L330.36,545.23a11.87,11.87,0,1,1,21.58,9.87L227.2,827.74A11.89,11.89,0,0,1,216.41,834.67Zm124.75-293a8.48,8.48,0,0,0-7.72,4.95L208.71,819.27a8.48,8.48,0,1,0,15.41,7.06L348.85,553.69a8.48,8.48,0,0,0-7.69-12Z" transform="translate(-113.46 -59.98)"/><path class="cls-8" d="M392.33,624.83h87.84a72.95,72.95,0,0,1,72.95,72.95v55.4a0,0,0,0,1,0,0H354.35a0,0,0,0,1,0,0V662.81A38,38,0,0,1,392.33,624.83Z"/><path class="cls-4" d="M666.57,814.85H467.81a1.69,1.69,0,0,1-1.69-1.69V710.56a27.47,27.47,0,0,1,27.44-27.44H617.08a51.24,51.24,0,0,1,51.19,51.18v78.86A1.7,1.7,0,0,1,666.57,814.85Zm-197.06-3.39H664.88V734.3a47.85,47.85,0,0,0-47.8-47.79H493.56a24.08,24.08,0,0,0-24.05,24Z" transform="translate(-113.46 -59.98)"/><path class="cls-8" d="M464.59,677.25A13.56,13.56,0,0,0,451,690.81V812.88H328.85a221.32,221.32,0,0,0-24.07-70.17A224.67,224.67,0,0,0,292.68,723h0l58.64-148.39-23.55-13a26.18,26.18,0,0,0-35.36,9.85l-62.8,108.92a13.56,13.56,0,0,0,3.18,17.28,195.2,195.2,0,0,1,70.73,130.23A13.59,13.59,0,0,0,317,840H464.59a13.56,13.56,0,0,0,13.56-13.56V704.37h141V677.25Z" transform="translate(-113.46 -59.98)"/><path class="cls-4" d="M464.59,841.7H317A15.28,15.28,0,0,1,301.83,828a193.46,193.46,0,0,0-70.11-129.09,15.21,15.21,0,0,1-3.57-19.45l62.79-108.92a28,28,0,0,1,37.65-10.48l23.55,13a1.7,1.7,0,0,1,.76,2.11L294.59,722.75c4.19,6.16,8.11,12.6,11.68,19.15a223,223,0,0,1,24,69.28H449.34V690.81a15.27,15.27,0,0,1,15.25-15.26H619.1a1.7,1.7,0,0,1,1.69,1.7v27.12a1.7,1.7,0,0,1-1.69,1.7H479.85V826.44A15.28,15.28,0,0,1,464.59,841.7ZM315.2,560a24.59,24.59,0,0,0-21.32,12.23l-62.8,108.93a11.81,11.81,0,0,0,2.79,15.12A196.93,196.93,0,0,1,305.2,827.64,11.89,11.89,0,0,0,317,838.3H464.59a11.88,11.88,0,0,0,11.87-11.86V704.37a1.69,1.69,0,0,1,1.69-1.69H617.4V679H464.59a11.87,11.87,0,0,0-11.86,11.86V812.88a1.7,1.7,0,0,1-1.7,1.69H328.85a1.71,1.71,0,0,1-1.68-1.42,221,221,0,0,0-35.89-89.23,1.7,1.7,0,0,1-.11-1.74l58-146.85L327,563A24.13,24.13,0,0,0,315.2,560Z" transform="translate(-113.46 -59.98)"/><path class="cls-4" d="M267.72,695.45a1.6,1.6,0,0,1-.79-.2,1.69,1.69,0,0,1-.72-2.28l67-128.39a1.7,1.7,0,0,1,3,1.57l-67,128.39A1.69,1.69,0,0,1,267.72,695.45Z" transform="translate(-113.46 -59.98)"/><rect class="cls-9" x="334.55" y="582.98" width="135.19" height="34.28" rx="9.74"/><path class="cls-4" d="M575.07,679H456.15a9.85,9.85,0,0,1-9.83-9.84v-18a9.84,9.84,0,0,1,9.83-9.83H575.07a9.84,9.84,0,0,1,9.83,9.83v18A9.85,9.85,0,0,1,575.07,679ZM456.15,644.66a6.45,6.45,0,0,0-6.44,6.44v18a6.44,6.44,0,0,0,6.44,6.44H575.07a6.44,6.44,0,0,0,6.44-6.44v-18a6.45,6.45,0,0,0-6.44-6.44Z" transform="translate(-113.46 -59.98)"/><path class="cls-7" d="M341.46,556.94a6.78,6.78,0,0,1-3.52-12.58l25.76-15.58a6.78,6.78,0,1,1,7,11.6L345,556A6.71,6.71,0,0,1,341.46,556.94Z" transform="translate(-113.46 -59.98)"/><path class="cls-4" d="M341.46,558.64a8.48,8.48,0,0,1-4.39-15.73l25.75-15.58a8.47,8.47,0,1,1,8.77,14.5l-25.75,15.58A8.38,8.38,0,0,1,341.46,558.64Zm25.74-29.15a5,5,0,0,0-2.63.74l-25.75,15.58a5.09,5.09,0,1,0,5.27,8.7l25.75-15.58a5.1,5.1,0,0,0,1.72-7A5.1,5.1,0,0,0,367.2,529.49Z" transform="translate(-113.46 -59.98)"/><circle class="cls-9" cx="253.7" cy="474.6" r="12.63"/><path class="cls-4" d="M367.17,548.9a14.32,14.32,0,1,1,14.32-14.32A14.34,14.34,0,0,1,367.17,548.9Zm0-25.25a10.93,10.93,0,1,0,10.93,10.93A10.95,10.95,0,0,0,367.17,523.65Z" transform="translate(-113.46 -59.98)"/><path class="cls-4" d="M488.14,814.85a1.7,1.7,0,0,1-1.69-1.55,122.55,122.55,0,0,1,8.16-50.84c6-15.23,15.06-27.86,26.86-37.54,14.71-12.09,33.76-19.57,56.6-22.23a1.7,1.7,0,0,1,.39,3.37c-22.18,2.58-40.64,9.81-54.84,21.48-11.35,9.31-20.05,21.48-25.86,36.16A121.21,121.21,0,0,0,489.83,813a1.69,1.69,0,0,1-1.54,1.83Z" transform="translate(-113.46 -59.98)"/><path class="cls-11" d="M630.41,401.43c-12.36-12.2-29,.59-34.16,7.62S558,478.81,558,478.81l-74.36,12.87V522l95.91-6.74s49-74.17,53.69-86.37C640.5,410.12,630.41,401.43,630.41,401.43Z" transform="translate(-113.46 -59.98)"/><path class="cls-4" d="M483.64,523.65A1.7,1.7,0,0,1,482,522V491.68a1.7,1.7,0,0,1,1.4-1.67l73.54-12.73c3.91-7.41,33.06-62.51,38-69.23,3.62-4.93,12.51-12.55,22.15-13.32a18,18,0,0,1,14.53,5.46c.91.81,10.68,10.13,3.26,29.26C630.08,441.68,583,513.11,581,516.14a1.71,1.71,0,0,1-1.3.76l-95.9,6.74Zm1.7-30.54v27l93.25-6.56c5-7.58,48.7-74.08,53.07-85.35,6.7-17.26-2-25.18-2.36-25.51l-.08-.07a14.73,14.73,0,0,0-11.92-4.53c-8.45.67-16.56,7.68-19.68,11.94-5,6.86-37.79,68.92-38.12,69.55a1.71,1.71,0,0,1-1.21.88Zm94.21,22.1Z" transform="translate(-113.46 -59.98)"/><path class="cls-12" d="M609.73,880.12s-37.1,32.6-34.4,33.76,64.93-.77,66.09-1.93-3.48-31.83-3.48-31.83Z" transform="translate(-113.46 -59.98)"/><path class="cls-4" d="M584.93,915.93c-5.33,0-9.41-.13-10.26-.49a1.93,1.93,0,0,1-1.15-1.47c-.2-1.25-.42-2.67,17.62-19.37,8.61-8,17.38-15.68,17.47-15.76a1.71,1.71,0,0,1,1.12-.42h28.21a1.69,1.69,0,0,1,1.68,1.44c0,.08,1.17,7.78,2.18,15.52,2.14,16.45,1.58,17,.82,17.76-.54.55-1.36,1.36-33.61,2.34C602.07,915.69,592.31,915.93,584.93,915.93Zm-7-3.48c10.37.42,54.75-.89,62-1.89,0-3.57-1.63-16.57-3.44-28.75H610.37C596.51,894,581.92,907.6,577.88,912.45Zm62-1.13Z" transform="translate(-113.46 -59.98)"/><path class="cls-12" d="M663.07,874.84s-5,45.61-4.64,47.54,40.58,2.71,41.35,0-10-47.54-10-47.54Z" transform="translate(-113.46 -59.98)"/><path class="cls-4" d="M681.43,925.83c-3.44,0-7-.07-10.42-.21-13.77-.55-14-1.59-14.24-2.91-.4-2,3.09-34.26,4.61-48.05a1.7,1.7,0,0,1,1.69-1.51h26.66a1.68,1.68,0,0,1,1.65,1.3c4.08,16.9,10.81,45.67,10,48.4-.39,1.38-1.46,2.4-11.6,2.82C687.29,925.78,684.42,925.83,681.43,925.83Zm-21.31-4.52c5.33,1.21,33,1.75,38,.15-.35-4.73-5.91-29-9.72-44.92H664.59C662.84,892.45,660.35,916.26,660.12,921.31Zm0,.84Z" transform="translate(-113.46 -59.98)"/><polygon class="cls-13" points="485.12 510.28 493.14 820.44 527.67 820.44 535.33 578.7 575.44 554.29 580.98 510.28 485.12 510.28"/><path class="cls-4" d="M641.13,882.12H606.61a1.7,1.7,0,0,1-1.7-1.65l-8-310.17a1.69,1.69,0,0,1,1.7-1.73h95.85a1.66,1.66,0,0,1,1.27.57,1.7,1.7,0,0,1,.41,1.33l-5.54,44a1.68,1.68,0,0,1-.8,1.23l-39.32,23.93-7.63,240.83A1.7,1.7,0,0,1,641.13,882.12Zm-32.87-3.39h31.23l7.61-240.1a1.7,1.7,0,0,1,.81-1.4l39.41-24,5.2-41.29H600.33Z" transform="translate(-113.46 -59.98)"/><path class="cls-13" d="M631.53,624.39l16.07,14.88,11.49,240.85h39.28l1.51-257.51s1.35-45.17,0-52.35l-22.77.13" transform="translate(-113.46 -59.98)"/><path class="cls-4" d="M698.37,881.81H659.09a1.7,1.7,0,0,1-1.7-1.61L645.94,640.05l-15.56-14.41a1.69,1.69,0,0,1,2.3-2.49L648.75,638a1.72,1.72,0,0,1,.55,1.16l11.4,239.23h36l1.49-255.82c.44-14.59,1-42.54.21-50.64l-21.28.13h0a1.7,1.7,0,0,1,0-3.39l22.77-.13h0a1.68,1.68,0,0,1,1.66,1.37c1.39,7.28.1,50.87,0,52.72l-1.5,257.47A1.69,1.69,0,0,1,698.37,881.81Z" transform="translate(-113.46 -59.98)"/><path class="cls-14" d="M595.12,571.15v13a384.68,384.68,0,0,0,38.81,4.51c19.12,1.08,68.11-4.3,68.11-4.3V572s-46,3.17-62.31,2.54S595.12,571.15,595.12,571.15Z" transform="translate(-113.46 -59.98)"/><path class="cls-4" d="M639.88,590.52c-2.23,0-4.26,0-6-.15a390.42,390.42,0,0,1-39-4.53,1.69,1.69,0,0,1-1.41-1.67v-13a1.7,1.7,0,0,1,1.86-1.69c.28,0,28.42,2.71,44.51,3.33s61.68-2.5,62.13-2.53a1.7,1.7,0,0,1,1.82,1.69v12.43a1.7,1.7,0,0,1-1.51,1.69C700.41,586.27,661.36,590.52,639.88,590.52Zm-43.07-7.79c4.83.8,21.31,3.37,37.21,4.26,16.89,1,57.93-3.24,66.33-4.13v-9.09c-8.79.58-46.1,3-60.69,2.41-13.78-.53-36.27-2.56-42.85-3.17Z" transform="translate(-113.46 -59.98)"/><path class="cls-14" d="M671.8,390.42s36,17.68,40.53,31.7c10.52,32.43-8.53,149.68-8.53,149.68s-81.26,7.4-110.87-1.23c0,0-10.88-128.12,13.39-170.28,3.7-6.44,30.23-9.87,30.23-9.87Z" transform="translate(-113.46 -59.98)"/><path class="cls-4" d="M640.18,576.48c-18.44,0-36.57-1-47.73-4.29a1.68,1.68,0,0,1-1.21-1.48c0-.32-2.72-32.54-2.41-69.49.42-49.79,5.81-84,16-101.78,4-7,28.68-10.34,31.48-10.7l.22,0H671.8a1.62,1.62,0,0,1,.74.18c1.5.73,36.69,18.16,41.4,32.69,4.44,13.68,4.35,43.19-.25,87.71-3.41,33-8.17,62.48-8.22,62.77a1.7,1.7,0,0,1-1.52,1.42C701.88,573.68,670.61,576.48,640.18,576.48Zm-45.66-7.23c27.74,7.39,97.37,1.86,107.81,1,2-12.93,18.07-117.73,8.39-147.59-4.05-12.48-35.64-28.67-39.32-30.53H636.66c-9.95,1.3-26.49,4.88-28.87,9C585.29,440.23,593.52,556.28,594.52,569.25Z" transform="translate(-113.46 -59.98)"/><path class="cls-3" d="M612.24,396.19,591,482.59s1.67-70.81,7.64-79.3S612.24,396.19,612.24,396.19Z" transform="translate(-113.46 -59.98)"/><path class="cls-4" d="M591,484.28h-.22a1.71,1.71,0,0,1-1.48-1.72c.18-7.3,1.86-71.57,8-80.24,6.52-9.27,15-7.86,15.34-7.79a1.67,1.67,0,0,1,1.12.74,1.69,1.69,0,0,1,.22,1.33L592.6,483A1.7,1.7,0,0,1,591,484.28Zm19.14-86.45c-2.36.19-6.53,1.33-10.12,6.43-3.43,4.88-5.73,35.73-6.8,62.24Z" transform="translate(-113.46 -59.98)"/><path class="cls-3" d="M694.54,399.17S666.91,410.72,654,434.6s-5.93,83.86,61.46,95V512.09s-29.41-2.37-45.76-34.35S687.6,416,705.26,410.19Z" transform="translate(-113.46 -59.98)"/><path class="cls-4" d="M715.5,531.3l-.28,0c-36.61-6.06-53.32-25.71-60.89-41.13-10.53-21.44-8.3-44.24-1.78-56.35,13-24.14,40.19-35.71,41.34-36.19a1.69,1.69,0,0,1,1.87.38l10.71,11a1.67,1.67,0,0,1,.43,1.58,1.71,1.71,0,0,1-1.11,1.21c-10.42,3.44-28.37,16.27-35.64,34-4.39,10.68-4,21.17,1.1,31.17,8.2,16.05,19.81,24.28,28.1,28.36a50.8,50.8,0,0,0,16.29,5.08,1.7,1.7,0,0,1,1.55,1.69V529.6a1.7,1.7,0,0,1-.6,1.3A1.69,1.69,0,0,1,715.5,531.3ZM694.15,401.21c-5.09,2.37-27.59,13.73-38.61,34.2-6.13,11.37-8.17,32.88,1.83,53.25,7.08,14.42,22.61,32.75,56.43,38.93v-14c-6.46-1-30.95-6.48-45.57-35.08-5.59-10.93-6-22.37-1.22-34,7.13-17.37,24-30.3,35.23-35Z" transform="translate(-113.46 -59.98)"/><path class="cls-15" d="M670.87,372.9l.93,20.75s-30.31,30.8-36.92,13.4l1.17-28.93Z" transform="translate(-113.46 -59.98)"/><path class="cls-4" d="M642.09,414.07a10.37,10.37,0,0,1-2.12-.21c-3.12-.66-5.36-2.74-6.68-6.21a1.69,1.69,0,0,1-.11-.67l1.18-28.92a1.68,1.68,0,0,1,1.44-1.61l34.82-5.22a1.67,1.67,0,0,1,1.33.36,1.71,1.71,0,0,1,.61,1.24l.93,20.74a1.72,1.72,0,0,1-.49,1.27,120.71,120.71,0,0,1-11.81,10.3C653.36,411.08,647,414.07,642.09,414.07Zm-5.51-7.31a5.68,5.68,0,0,0,4.09,3.78c8,1.68,23.44-11.64,29.4-17.56l-.81-18.12-31.57,4.73Z" transform="translate(-113.46 -59.98)"/><path class="cls-11" d="M677.07,393.17l-5.62-7.2s-24.12,10.08-27.29,26.41c0,0,13.21-.34,23.2-6.9S677.07,393.17,677.07,393.17Z" transform="translate(-113.46 -59.98)"/><path class="cls-4" d="M644.16,414.07a1.68,1.68,0,0,1-1.29-.6,1.66,1.66,0,0,1-.37-1.42c1.4-7.21,6.62-14.07,15.51-20.38a72.84,72.84,0,0,1,12.79-7.26,1.69,1.69,0,0,1,2,.52l5.62,7.2a1.69,1.69,0,0,1,.36,1c0,.69,0,6.91-10.48,13.8-10.27,6.75-23.53,7.17-24.09,7.18Zm26.78-26c-4.5,2.11-20.6,10.39-24.55,22.45,4.11-.41,13-1.82,20-6.45,7.3-4.8,8.65-9,8.89-10.37Z" transform="translate(-113.46 -59.98)"/><path class="cls-11" d="M634.88,407.05V386s-9.54,3.85-10,12.44S634.88,407.05,634.88,407.05Z" transform="translate(-113.46 -59.98)"/><path class="cls-4" d="M634.88,408.75h0c-.25,0-6.09-.08-9.45-3.67a8.74,8.74,0,0,1-2.28-6.77c.56-9.55,10.67-13.74,11.1-13.91a1.69,1.69,0,0,1,2.33,1.57v21.08a1.71,1.71,0,0,1-1.69,1.7Zm-1.7-19.95c-2.56,1.62-6.37,4.82-6.65,9.71a5.43,5.43,0,0,0,1.35,4.25,9.42,9.42,0,0,0,5.3,2.42Z" transform="translate(-113.46 -59.98)"/><path class="cls-4" d="M624.82,576.18a1.69,1.69,0,0,1-1.7-1.64c-2-67.68,11.25-161.46,11.38-162.4a1.7,1.7,0,0,1,3.36.48c-.14.93-13.36,94.43-11.35,161.82a1.69,1.69,0,0,1-1.64,1.74Z" transform="translate(-113.46 -59.98)"/><path class="cls-15" d="M680,341.38A8.89,8.89,0,1,1,687.41,357a8.62,8.62,0,0,1-7.21-1.41" transform="translate(-113.46 -59.98)"/><path class="cls-4" d="M696,346.16A10.58,10.58,0,0,0,679,340.07a1.69,1.69,0,1,0,2.15,2.62,7.19,7.19,0,1,1,6,12.61,6.84,6.84,0,0,1-5.85-1.1,1.7,1.7,0,1,0-2.05,2.7,9.64,9.64,0,0,0,6,2,13,13,0,0,0,2.58-.27A10.59,10.59,0,0,0,696,346.16Z" transform="translate(-113.46 -59.98)"/><path class="cls-4" d="M689.6,344.77a1,1,0,0,0-1.35-.52c-5.47,2.43-5.66,6.84-5.66,7a1,1,0,0,0,1,1h0a1,1,0,0,0,1-1,5,5,0,0,1,.77-2.17l2.66,2.06a1,1,0,0,0,.62.22,1,1,0,0,0,.63-1.82l-2.6-2a9.21,9.21,0,0,1,2.38-1.5A1,1,0,0,0,689.6,344.77Z" transform="translate(-113.46 -59.98)"/><path class="cls-15" d="M623,340.76a8.88,8.88,0,1,0-4,16.77,8.61,8.61,0,0,0,6.76-2.87" transform="translate(-113.46 -59.98)"/><path class="cls-4" d="M626.86,353.38a1.7,1.7,0,0,0-2.39.17,6.82,6.82,0,0,1-5.5,2.29h-.08a7.19,7.19,0,0,1-.07-14.38,7.08,7.08,0,0,1,3.38.8,1.7,1.7,0,0,0,1.56-3,10.58,10.58,0,1,0-4.87,20H619a10.22,10.22,0,0,0,8-3.46A1.69,1.69,0,0,0,626.86,353.38Z" transform="translate(-113.46 -59.98)"/><path class="cls-4" d="M615.74,352.19a1,1,0,0,0,.66.24,1.06,1.06,0,0,0,.78-.36l2.17-2.58a5.1,5.1,0,0,1,1.2,2,1,1,0,0,0,1,.77,1,1,0,0,0,.24,0,1,1,0,0,0,.75-1.23c0-.18-1.14-4.45-7-5.69a1,1,0,0,0-1.21.79,1,1,0,0,0,.79,1.2,9.41,9.41,0,0,1,2.63,1l-2.12,2.51A1,1,0,0,0,615.74,352.19Z" transform="translate(-113.46 -59.98)"/><rect class="cls-15" x="510.7" y="252.28" width="55.86" height="72.03" rx="15.88"/><path class="cls-4" d="M652.09,386a29.66,29.66,0,0,1-29.62-29.62V340.19a29.63,29.63,0,0,1,59.25,0v16.18A29.66,29.66,0,0,1,652.09,386Zm0-72a26.26,26.26,0,0,0-26.23,26.23v16.18a26.24,26.24,0,0,0,52.47,0V340.19A26.27,26.27,0,0,0,652.09,314Z" transform="translate(-113.46 -59.98)"/><path class="cls-4" d="M659.32,342.58a2,2,0,1,0,2.18-1.88A2,2,0,0,0,659.32,342.58Z" transform="translate(-113.46 -59.98)"/><path class="cls-4" d="M642,342.41a2,2,0,1,0,2.17-1.89A2,2,0,0,0,642,342.41Z" transform="translate(-113.46 -59.98)"/><path class="cls-16" d="M666.56,349.07a3.18,3.18,0,1,0,3.41-2.95A3.18,3.18,0,0,0,666.56,349.07Z" transform="translate(-113.46 -59.98)"/><path class="cls-16" d="M631.27,347a4.24,4.24,0,1,0,4.54-3.93A4.24,4.24,0,0,0,631.27,347Z" transform="translate(-113.46 -59.98)"/><path class="cls-4" d="M658.74,334.11a1.7,1.7,0,0,1-1.16-2.93c4.51-4.25,9.07-2.65,10.84-1.21a1.69,1.69,0,0,1-2.11,2.64c-.31-.24-3-2.14-6.41,1A1.66,1.66,0,0,1,658.74,334.11Z" transform="translate(-113.46 -59.98)"/><path class="cls-4" d="M636.69,335.62a1.7,1.7,0,0,1-1-3.05c7.67-5.81,14.41-1.46,14.69-1.27a1.7,1.7,0,0,1-1.87,2.83c-.22-.14-5.08-3.17-10.78,1.14A1.62,1.62,0,0,1,636.69,335.62Z" transform="translate(-113.46 -59.98)"/><path class="cls-4" d="M652.24,366.85a17.51,17.51,0,0,1-10.88-3.94,1,1,0,1,1,1.25-1.61c8.56,6.63,16.2,2,16.52,1.8a1,1,0,0,1,1.09,1.72A16.32,16.32,0,0,1,652.24,366.85Z" transform="translate(-113.46 -59.98)"/><path class="cls-16" d="M659.41,354.51l-1.09-7.31s-5.6-1.74-7.62.1-3.17,6.92-2.27,7.65,3.4,2.83,6,2.83S659.41,354.51,659.41,354.51Z" transform="translate(-113.46 -59.98)"/><path class="cls-17" d="M654.05,351.3a1.2,1.2,0,1,0,1.32-1.07A1.2,1.2,0,0,0,654.05,351.3Z" transform="translate(-113.46 -59.98)"/><path class="cls-4" d="M654.6,358.79a6.27,6.27,0,0,1-1.11-.1,13.68,13.68,0,0,1-7.06-4.29,1,1,0,0,1,.13-1.44,1,1,0,0,1,1.43.13,11.74,11.74,0,0,0,5.88,3.6c2.48.46,4-1.65,4.49-2.4l-2.14-18.09a1,1,0,0,1,.89-1.13,1,1,0,0,1,1.12.89l2.19,18.43a1.05,1.05,0,0,1-.1.58C660.23,355.14,658.32,358.79,654.6,358.79Z" transform="translate(-113.46 -59.98)"/><path class="cls-4" d="M624,344.58s-3.87-12.86,0-22.78,8.58-18.24,22.05-21.46,29.49,3.75,33.95,15.56S680,343,680,343s-2.79-16.28-10.28-22.29c0,0-16.14.76-21.62,1.45s-14.93-1.6-14.93-1.6S623.88,335.45,624,344.58Z" transform="translate(-113.46 -59.98)"/><path d="M466.06,472.37a4.32,4.32,0,0,0-3.28-.4h0l-.92.26h0a1.51,1.51,0,0,1-1.8-.89L449.58,446c1.08-.31,1.55-1.36,1.19-2.67a2.43,2.43,0,0,0-1-1.52,2.51,2.51,0,0,0,.12-1.84c-.37-1.32-1.33-2-2.44-1.68l-9.57,2.64a2.27,2.27,0,0,0-1.58,2.78,2.33,2.33,0,0,0,1.25,1.47,2.26,2.26,0,0,0,1.95,3.55L443,476.05a1.53,1.53,0,0,1-1.11,1.66,4.33,4.33,0,0,0-3,5.31l13.77,50a8.17,8.17,0,0,0,10.05,5.71l13.45-3.7A8.19,8.19,0,0,0,481.85,525l-13.76-50A4.28,4.28,0,0,0,466.06,472.37ZM438.14,442l9.57-2.64c.5-.14.87.17,1.08.91s0,1.2-.47,1.34l-9.56,2.63a1.16,1.16,0,1,1-.62-2.24Zm42.65,83.27a7.09,7.09,0,0,1-4.94,8.71l-13.45,3.7a7.08,7.08,0,0,1-8.7-4.94l-13.77-50a3.23,3.23,0,0,1,2.25-4,2.64,2.64,0,0,0,1.91-2.86l-3.55-27.43-.15-1.1-.71.19a1.12,1.12,0,0,1-.36.05,1.18,1.18,0,0,1-1.07-.86,1.17,1.17,0,0,1,.78-1.43h0l9.57-2.63c.51-.14.87.16,1.08.91s.05,1.2-.46,1.34l-1.16.32.42,1L459,471.76a2.62,2.62,0,0,0,3.11,1.53h0l.93-.26h0a3.21,3.21,0,0,1,4,2.25Z" transform="translate(-113.46 -59.98)"/><path class="cls-18" d="M448.79,440.24c.2.75,0,1.2-.47,1.34l-9.56,2.63a1.16,1.16,0,1,1-.62-2.24l9.57-2.64C448.21,439.19,448.58,439.5,448.79,440.24Z" transform="translate(-113.46 -59.98)"/><path class="cls-18" d="M467,475.28l13.76,50a7.09,7.09,0,0,1-4.94,8.71l-13.45,3.7a7.08,7.08,0,0,1-8.7-4.94l-13.77-50a3.23,3.23,0,0,1,2.25-4,2.64,2.64,0,0,0,1.91-2.86l-3.55-27.43-.15-1.1-.71.19a1.12,1.12,0,0,1-.36.05,1.18,1.18,0,0,1-1.07-.86,1.17,1.17,0,0,1,.78-1.43h0l9.57-2.63c.51-.14.87.16,1.08.91s.05,1.2-.46,1.34l-1.16.32.42,1L459,471.76a2.62,2.62,0,0,0,3.11,1.53h0l.93-.26h0a3.21,3.21,0,0,1,4,2.25Z" transform="translate(-113.46 -59.98)"/><path d="M489.38,473.21a4.32,4.32,0,0,0-3.17-.93h0l-.95.1h0a1.52,1.52,0,0,1-1.64-1.17l-6.18-26.72c1.12-.14,1.75-1.09,1.61-2.45a2.83,2.83,0,0,1-.37-3.46c-.14-1.37-1-2.17-2.12-2.05l-9.87,1a2.27,2.27,0,0,0-2,2.49,2.31,2.31,0,0,0,1,1.65,2.27,2.27,0,0,0,1.35,3.82l-1,27.56a1.52,1.52,0,0,1-1.37,1.45,4.33,4.33,0,0,0-3.84,4.75l5.44,51.55a8.18,8.18,0,0,0,9,7.27l13.88-1.46a8.18,8.18,0,0,0,7.27-9L491,476.12A4.29,4.29,0,0,0,489.38,473.21Zm-22.6-34.55,9.87-1c.53-.05.84.31.92,1.08s-.15,1.19-.67,1.24L467,441a1.17,1.17,0,1,1-.25-2.32Zm28.53,89.12a7.09,7.09,0,0,1-6.3,7.78L475.14,537a7.08,7.08,0,0,1-7.78-6.29l-5.44-51.55a3.22,3.22,0,0,1,2.86-3.54,2.65,2.65,0,0,0,2.35-2.52l1-27.64,0-1.11-.74.08a1.43,1.43,0,0,1-.36,0,1.17,1.17,0,0,1,.08-2.3h0l9.87-1c.52-.05.83.31.91,1.08s-.14,1.19-.67,1.24l-1.19.13.25,1.08,6.21,26.85a2.63,2.63,0,0,0,2.83,2h0l1-.11h0a3.23,3.23,0,0,1,3.54,2.87Z" transform="translate(-113.46 -59.98)"/><path class="cls-18" d="M477.57,438.7c.08.77-.15,1.19-.67,1.24L467,441a1.17,1.17,0,1,1-.25-2.32l9.87-1C477.18,437.57,477.49,437.93,477.57,438.7Z" transform="translate(-113.46 -59.98)"/><path class="cls-18" d="M489.87,476.24l5.44,51.54a7.09,7.09,0,0,1-6.3,7.78L475.14,537a7.08,7.08,0,0,1-7.78-6.29l-5.44-51.55a3.22,3.22,0,0,1,2.86-3.54,2.65,2.65,0,0,0,2.35-2.52l1-27.64,0-1.11-.74.08a1.43,1.43,0,0,1-.36,0,1.17,1.17,0,0,1,.08-2.3h0l9.87-1c.52-.05.83.31.91,1.08s-.14,1.19-.67,1.24l-1.19.13.25,1.08,6.21,26.85a2.63,2.63,0,0,0,2.83,2h0l1-.11h0a3.23,3.23,0,0,1,3.54,2.87Z" transform="translate(-113.46 -59.98)"/><path d="M504.33,474.6a4.27,4.27,0,0,0-3.05-1.26h-1a1.51,1.51,0,0,1-1.5-1.33l-3.35-27.23c1.13,0,1.86-.9,1.86-2.26a2.82,2.82,0,0,1,0-3.48c0-1.38-.75-2.27-1.9-2.27h-9.93a34.87,34.87,0,0,1-2.26,5.75,2.26,2.26,0,0,0,1.75,2.2L481.12,472a1.53,1.53,0,0,1-1.51,1.31,4.33,4.33,0,0,0-4.32,4.32v51.83a8.19,8.19,0,0,0,8.18,8.18h13.95a8.19,8.19,0,0,0,8.18-8.18V477.66A4.29,4.29,0,0,0,504.33,474.6Zm-18.85-36.73h9.93c.53,0,.8.39.8,1.17s-.27,1.16-.8,1.16h-9.93a1.17,1.17,0,0,1,0-2.33Zm19,91.61a7.09,7.09,0,0,1-7.08,7.08H483.47a7.09,7.09,0,0,1-7.08-7.08V477.65a3.22,3.22,0,0,1,3.22-3.22,2.64,2.64,0,0,0,2.6-2.26l3.86-27.38.15-1.1h-.74a1.51,1.51,0,0,1-.36-.06,1.17,1.17,0,0,1,.33-2.28h10c.53,0,.8.39.8,1.17s-.27,1.17-.8,1.17H494.2l.14,1.1,3.36,27.35a2.62,2.62,0,0,0,2.6,2.3h1a3.18,3.18,0,0,1,2.27.94,3.21,3.21,0,0,1,.95,2.28Z" transform="translate(-113.46 -59.98)"/><path class="cls-18" d="M496.21,439c0,.77-.27,1.16-.8,1.16h-9.93a1.17,1.17,0,0,1,0-2.33h9.93C495.94,437.87,496.21,438.26,496.21,439Z" transform="translate(-113.46 -59.98)"/><path class="cls-18" d="M504.5,477.66v51.82a7.09,7.09,0,0,1-7.08,7.08H483.47a7.09,7.09,0,0,1-7.08-7.08V477.65a3.22,3.22,0,0,1,3.22-3.22,2.64,2.64,0,0,0,2.6-2.26l3.86-27.38.15-1.1h-.74a1.51,1.51,0,0,1-.36-.06,1.17,1.17,0,0,1,.33-2.28h10c.53,0,.8.39.8,1.17s-.27,1.17-.8,1.17H494.2l.14,1.1,3.36,27.35a2.62,2.62,0,0,0,2.6,2.3h1a3.18,3.18,0,0,1,2.27.94A3.21,3.21,0,0,1,504.5,477.66Z" transform="translate(-113.46 -59.98)"/><path d="M527.14,473.12a4.28,4.28,0,0,0-3-1.27h-1a1.51,1.51,0,0,1-1.5-1.34l-3.35-27.22c1.13,0,1.86-.91,1.86-2.27a2.48,2.48,0,0,0-.6-1.74,2.44,2.44,0,0,0,.6-1.74c0-1.37-.75-2.26-1.9-2.26h-9.93a2.26,2.26,0,0,0-1.45,4A2.3,2.3,0,0,0,506,441a2.27,2.27,0,0,0,1.75,2.21l-3.85,27.3a1.53,1.53,0,0,1-1.51,1.31,4.33,4.33,0,0,0-4.32,4.32V528a8.19,8.19,0,0,0,8.18,8.18h14a8.19,8.19,0,0,0,8.18-8.18V476.18A4.27,4.27,0,0,0,527.14,473.12Zm-18.85-36.73h9.93c.53,0,.8.39.8,1.16s-.27,1.17-.8,1.17h-9.93a1.17,1.17,0,0,1,0-2.33Zm19,91.61a7.09,7.09,0,0,1-7.08,7.08h-14A7.09,7.09,0,0,1,499.2,528V476.17a3.22,3.22,0,0,1,3.22-3.22,2.64,2.64,0,0,0,2.6-2.26l3.86-27.39.15-1.1h-.74a1.49,1.49,0,0,1-.36-.05,1.18,1.18,0,0,1-.8-1.12,1.16,1.16,0,0,1,1.13-1.16h10c.53,0,.8.39.8,1.16s-.27,1.17-.8,1.17H517l.13,1.1,3.36,27.36a2.62,2.62,0,0,0,2.6,2.3h1a3.24,3.24,0,0,1,3.22,3.23Z" transform="translate(-113.46 -59.98)"/><path class="cls-18" d="M519,437.55c0,.78-.27,1.17-.8,1.17h-9.93a1.17,1.17,0,0,1,0-2.33h9.93C518.75,436.39,519,436.78,519,437.55Z" transform="translate(-113.46 -59.98)"/><path class="cls-18" d="M527.31,476.18V528a7.09,7.09,0,0,1-7.08,7.08h-14A7.09,7.09,0,0,1,499.2,528V476.17a3.22,3.22,0,0,1,3.22-3.22,2.64,2.64,0,0,0,2.6-2.26l3.86-27.39.15-1.1h-.74a1.49,1.49,0,0,1-.36-.05,1.18,1.18,0,0,1-.8-1.12,1.16,1.16,0,0,1,1.13-1.16h10c.53,0,.8.39.8,1.16s-.27,1.17-.8,1.17H517l.13,1.1,3.36,27.36a2.62,2.62,0,0,0,2.6,2.3h1a3.24,3.24,0,0,1,3.22,3.23Z" transform="translate(-113.46 -59.98)"/><rect class="cls-19" x="307.27" y="404.75" width="122.43" height="90.52"/><g id="Capa_2-2" data-name="Capa 2"><path d="M444.75,528.17l-1.62.44-.68.19-5.06,1.74c-.28.08-.46,0-.51-.15s0-.29,0-.43a19.1,19.1,0,0,0-.79-4.24c-.6-2.34-1.16-4.47-1.7-6.35s-1-3.48-1.42-4.64a8.39,8.39,0,0,0-1.51-3,1.16,1.16,0,0,1-.44-.41c-.09-.31.34-.7,1.28-1.22a14.22,14.22,0,0,1,2.09-1,2.42,2.42,0,0,1,.85-.16.31.31,0,0,1,.26.25c.05.15.14.65.29,1.47.49,2.45,1.22,5.24,2.13,8.41s1.73,5.69,2.43,7.54c.06.2.28.32.68.37a3.5,3.5,0,0,0,1.4-.16c1.84-.53,2.36-2.21,1.54-5a5.24,5.24,0,0,0-.55-1.42,1.72,1.72,0,0,1-.24-.34c-.05-.18.05-.32.33-.4a2,2,0,0,1,.91.07,2.91,2.91,0,0,1,1.09.53,5.6,5.6,0,0,1,1,1.28,9,9,0,0,1,1,2.28c.65,2.24.69,3.43.16,3.58Z" transform="translate(-113.46 -59.98)"/><path d="M456.45,515.65l1,3.61c.72,2.49,1.44,3.92,2.11,4.27a.36.36,0,0,1,.17.23c.08.27-.48.6-1.68,1s-2,.18-2.25-.5c-.07-.17-.18-.52-.32-1l-1.2-4.54a.21.21,0,0,0-.29-.13,4.77,4.77,0,0,0-2.31,1.51,2.37,2.37,0,0,0-.63,2.28,1.56,1.56,0,0,0,.63.94,1.06,1.06,0,0,0,.95.19,1.5,1.5,0,0,0,.75-.44l.31-.33c.34-.07.59.24.77.87a1.79,1.79,0,0,1-.44,1.76,3.34,3.34,0,0,1-1.67,1.11,3.89,3.89,0,0,1-1.76.15,2.79,2.79,0,0,1-1.22-.46,5,5,0,0,1-.78-.81,4.4,4.4,0,0,1-.21-4.58,7.38,7.38,0,0,1,2.71-2.61c1.62-.82,2.4-1.4,2.4-1.7a3.84,3.84,0,0,0-.22-1,1.38,1.38,0,0,0-1.94-1.05,2,2,0,0,0-1,.73,1.32,1.32,0,0,0-.21,1.18l.37.63c.05.34-.23.61-.84.84l-.3.12a2.1,2.1,0,0,1-1.46,0,1.52,1.52,0,0,1-.83-1,2.72,2.72,0,0,1,0-1.1,2.79,2.79,0,0,1,.5-1.09,4.7,4.7,0,0,1,1.24-1,7.77,7.77,0,0,1,1.73-.8,13,13,0,0,1,1.37-.34,13.37,13.37,0,0,1,1.39-.1,2.88,2.88,0,0,1,1.62.4,2.07,2.07,0,0,1,1,1.09A12.93,12.93,0,0,1,456.45,515.65Z" transform="translate(-113.46 -59.98)"/><path d="M460.72,524l0-.32a16.27,16.27,0,0,0-.71-4.26c-.58-2.46-1.16-4.74-1.76-6.83s-1.14-3.76-1.58-5a5.64,5.64,0,0,0-1.5-2.54.67.67,0,0,1-.18-.33c0-.13,0-.28.24-.42a18.44,18.44,0,0,1,6-2.73,10.4,10.4,0,0,1,2.21-.36,8.68,8.68,0,0,1,2.1.1,4.36,4.36,0,0,1,1.71.81,3.84,3.84,0,0,1,1.24,1.74c.78,2.72.11,4.64-2,5.69-.09.08-.16.12-.14.17s.08.09.19.11a5.49,5.49,0,0,1,3.33.57,4.62,4.62,0,0,1,1.53,1.35,6.9,6.9,0,0,1,1.23,2.45,6.57,6.57,0,0,1-.07,3.9,5.18,5.18,0,0,1-2.05,2.72,7.22,7.22,0,0,1-2,1c-2,.57-3.4.3-4.29-.8,0-.05-.08-.07-.1-.06l-.07.16c0,1.42-.93,2.42-2.77,3C460.92,524.2,460.78,524.19,460.72,524Zm.37-14.29,1,3.52,1.29,4.92c0,.06.08.11.11.1s.07,0,.06-.07a1.7,1.7,0,0,1,1.16-1.18c.55-.16.86-.12.93.11a3,3,0,0,0,.88,1.52,1.37,1.37,0,0,0,1.32.24c.5-.14.89-.61,1.14-1.42a5,5,0,0,0-.1-2.91,6.72,6.72,0,0,0-.62-1.3,3.13,3.13,0,0,0-2.3-1.62,8.42,8.42,0,0,0-3,.46c-.15,0-.25,0-.31-.23-.31-1.06-.28-1.64.08-1.8a4,4,0,0,0,1.49-.87c1-.85,1.22-2.1.75-3.73s-1.77-2.35-3.81-1.76l-.86.3c-.31.17-.47.38-.43.59l0,.07a32.22,32.22,0,0,0,1.19,5.06Z" transform="translate(-113.46 -59.98)"/><path d="M475,508l-1,.35c-.23.07-.35.05-.37-.05a.43.43,0,0,1,.08-.38c.89-1.46,2.74-2.59,5.61-3.42a8.39,8.39,0,0,1,2.39-.42h.29c.26,0,.41.09.44.2s0,.19-.13.28a4.71,4.71,0,0,0-1.25,1.15c-.38.47-.55.76-.51.89l.24.15a3.48,3.48,0,0,1,1.85,1.21,6,6,0,0,1,1.11,1.77l.3.87a7,7,0,0,1-.23,5,6.09,6.09,0,0,1-6.19,3.23,4.59,4.59,0,0,1-1.77-.66,5,5,0,0,1-1.15-1.14,7.32,7.32,0,0,1-1-2.06,7.11,7.11,0,0,1-.27-2.35,4.64,4.64,0,0,1,.4-1.91,4.49,4.49,0,0,1,.85-1.2,3.23,3.23,0,0,1,1.13-.8c.33-.09.5-.06.54.07l-.1.32a4.37,4.37,0,0,0-.32,2.17,10.63,10.63,0,0,0,.32,2.17,8.47,8.47,0,0,0,.75,1.75,5.07,5.07,0,0,0,.89,1.19,2,2,0,0,0,.85.46,2,2,0,0,0,1.22,0,1.94,1.94,0,0,0,1-.81,2.76,2.76,0,0,0,.45-1.47,9.17,9.17,0,0,0-.33-3,5.44,5.44,0,0,0-2.27-3.32A4.74,4.74,0,0,0,475,508Z" transform="translate(-113.46 -59.98)"/><path d="M489.11,501.65a3,3,0,0,1,.94-.13h.47l.13-.2-1-3a3.64,3.64,0,0,0-.72-1.27,2.09,2.09,0,0,0-.71-.58l-.3-.08a.41.41,0,0,1-.25-.2c-.08-.28.26-.73,1-1.36a5.69,5.69,0,0,1,1.88-1.14c.48-.14.78-.12.87.07a30.54,30.54,0,0,1,1.2,3.61c.52,1.78,1,3.56,1.4,5.32s.95,3.74,1.58,5.92a12.65,12.65,0,0,0,1.62,4,.6.6,0,0,1,.21.35c.08.27-.28.54-1.08.77-1.54.45-2.43.3-2.64-.43a9.54,9.54,0,0,1-.45-1.37c-.18-.63-.47-1.83-.84-3.58s-.71-3.09-1-4a1.28,1.28,0,0,0-1.79-1,2.43,2.43,0,0,0-1.66,2.25,8.17,8.17,0,0,0,.21,3.48c.67,2.32,1.59,3.31,2.74,3a1.15,1.15,0,0,0,.48-.24,1.2,1.2,0,0,1,.27-.19.41.41,0,0,1,.43.17,1.59,1.59,0,0,1,.29.52,2.15,2.15,0,0,1-.29,1.83,2.79,2.79,0,0,1-1.67,1.19,2.82,2.82,0,0,1-3-.75,7.39,7.39,0,0,1-1.91-3.42,11.07,11.07,0,0,1-.17-5.57,5.53,5.53,0,0,1,1.29-2.45A5.77,5.77,0,0,1,489.11,501.65Z" transform="translate(-113.46 -59.98)"/><path d="M506.58,506.61a3.84,3.84,0,0,1,.11,2,3.27,3.27,0,0,1-.64,1.46,4.3,4.3,0,0,1-1.11,1,6.59,6.59,0,0,1-1.68.79,4,4,0,0,1-4-.75,8.7,8.7,0,0,1-2.44-4.21,9.22,9.22,0,0,1,0-5.28,4.85,4.85,0,0,1,3.56-3.35,3.65,3.65,0,0,1,4,.79,3.13,3.13,0,0,1,.75,1.18c.09.32.15.63.22,1a3.81,3.81,0,0,1-.09,1.17,4.55,4.55,0,0,1-.55,1.52,6.22,6.22,0,0,1-1.47,1.6,10.19,10.19,0,0,1-2.65,1.5c-.15,0-.2.14-.17.27a2.74,2.74,0,0,0,.4.7,4.5,4.5,0,0,0,.64.72,2.28,2.28,0,0,0,2.06.25,3.13,3.13,0,0,0,1.84-1.38,3.53,3.53,0,0,0,.43-1.24A.37.37,0,0,1,506,506c.13,0,.26,0,.39.22A2.4,2.4,0,0,1,506.58,506.61Zm-7.22-2,.22.69c0,.13.13.16.28.12a4.75,4.75,0,0,0,1.46-.92,3.17,3.17,0,0,0,.76-1.14,4.48,4.48,0,0,0,.2-2l-.07-.33c-.29-1-.84-1.39-1.65-1.19a1.84,1.84,0,0,0-1.23,1.21,5.57,5.57,0,0,0,0,3.59Z" transform="translate(-113.46 -59.98)"/><path d="M507.68,497.68a5.16,5.16,0,0,1,1.33-1.53,4.94,4.94,0,0,1,1.81-1,4.58,4.58,0,0,1,2-.12.42.42,0,0,0,.17-.1,3,3,0,0,1,1.92-1.35c.23-.06.36,0,.42.21a2.28,2.28,0,0,1,0,.27,5.42,5.42,0,0,1,0,.69c0,.38.1.74.15,1.1a36.35,36.35,0,0,0,.83,3.61c.38,1.31.72,2.6,1.1,3.91l1.79,5.89a7.78,7.78,0,0,1-.1,5.15,5,5,0,0,1-1.4,1.86,6.62,6.62,0,0,1-2.63,1.36c-.3-.08-.47-.2-.51-.35a.46.46,0,0,1,.19-.46c1-.9,1.51-2.43,1.43-4.61a43.88,43.88,0,0,0-1.93-9.51l-1.17-3.94-.63-1.89c0-.18-.33-.21-.88-.13a2.49,2.49,0,0,0-1.52,1.15,3.72,3.72,0,0,0-.46,2,12.05,12.05,0,0,0,.41,3.1,5.67,5.67,0,0,0,1,2.1,1.47,1.47,0,0,0,1.71.54.94.94,0,0,0,.49-.28c.09-.07.18-.15.29-.22s.34.13.44.48a5.68,5.68,0,0,1,.19.93,3.69,3.69,0,0,1-.1.87,2.52,2.52,0,0,1-1.94,1.6,2.65,2.65,0,0,1-2.68-.51A5.85,5.85,0,0,1,508,506.6a19.53,19.53,0,0,1-.72-1.83,5.18,5.18,0,0,1-.18-.74,9.62,9.62,0,0,1-.16-1.1c-.07-.53-.09-1.07-.11-1.61a13.92,13.92,0,0,1,.19-1.8A7.3,7.3,0,0,1,507.68,497.68Z" transform="translate(-113.46 -59.98)"/><path d="M527.32,495.16l1,3.62c.72,2.49,1.44,3.92,2.11,4.27a.51.51,0,0,1,.2.21c.08.28-.48.61-1.69.95s-2,.19-2.24-.49a9.92,9.92,0,0,1-.33-1l-1.17-4.54a.21.21,0,0,0-.29-.13,4.69,4.69,0,0,0-2.32,1.49,2.33,2.33,0,0,0-.62,2.28,1.73,1.73,0,0,0,.62.93,1.08,1.08,0,0,0,1,.19,1.58,1.58,0,0,0,.74-.43l.32-.34c.33-.07.58.24.76.87a1.74,1.74,0,0,1-.44,1.76,3.34,3.34,0,0,1-1.67,1.11,3.66,3.66,0,0,1-1.73.15,3,3,0,0,1-1.23-.46,3.63,3.63,0,0,1-1.3-1.89,4.29,4.29,0,0,1,.32-3.5,7.45,7.45,0,0,1,2.68-2.61c1.62-.82,2.41-1.4,2.4-1.7a3.57,3.57,0,0,0-.22-1.05,1.37,1.37,0,0,0-1.94-1.05,1.92,1.92,0,0,0-1,.74,1.34,1.34,0,0,0-.21,1.18l.38.62c.07.34-.24.62-.85.85l-.29.11a2.09,2.09,0,0,1-1.46,0,1.52,1.52,0,0,1-.83-1,2.36,2.36,0,0,1,0-1.09,2.52,2.52,0,0,1,.5-1.1,5.29,5.29,0,0,1,1.21-1,7.77,7.77,0,0,1,1.73-.8,13,13,0,0,1,1.37-.34,13.37,13.37,0,0,1,1.39-.1,2.88,2.88,0,0,1,1.62.4,2.11,2.11,0,0,1,1,1.09C526.9,493.7,527.08,494.33,527.32,495.16Z" transform="translate(-113.46 -59.98)"/><path d="M531,477.89l-.77.91-.44-.37a.62.62,0,0,0-.83.05h0l-.27.3a1.23,1.23,0,0,0,.13,1.76h0l1.21,1.07a.64.64,0,0,1,.12.78.58.58,0,0,1-.81.15s0,0,0,0L527.58,481a.52.52,0,0,0-.77.06h0a.52.52,0,0,0,.06.77h0l.9.78a.56.56,0,0,1,0,.81.55.55,0,0,1-.77.06l-.44-.39a1.15,1.15,0,0,0-1.61.11h0l-1.84,2.12a.62.62,0,0,0,0,.83h0l5.54,4.83a2.33,2.33,0,0,0,3.27-.21h0l3.62-4.15a2.31,2.31,0,0,0-.21-3.27L535,483a2.4,2.4,0,0,0-.26-3.34l-2.07-1.8A1.17,1.17,0,0,0,531,477.89Zm-1.25,10.95a.58.58,0,1,1-.72.91s0,0,0,0l-3.84-3.37a.58.58,0,0,1,0-.83.69.69,0,0,1,.41-.2.61.61,0,0,1,.43.15Zm4.34-8.27a1,1,0,0,1,.11,1.41h0l-.12.15-3-2.58.8-.92Z" transform="translate(-113.46 -59.98)"/><path d="M522.23,484.91a.76.76,0,0,1,.35-1,.78.78,0,0,1,.31-.06H523l.1,0,.07-.05h.05l0,0h0l0,0s0,0,0,0l0,0,0-.06v0s0-.06,0-.09v0a.08.08,0,0,1,0-.06v-.05l0-.05v0l0-.07v0a.15.15,0,0,0,0-.07.75.75,0,0,1,.22-1,.82.82,0,0,1,.55-.1h0l.06,0,0,0h.05l.1,0,.05,0h.11l0,0,0,0,0,0,0,0,0,0,0,0v-.06h0v0s0,0,0-.06l0-.05v-.13a.72.72,0,0,1,.43-.94.71.71,0,0,1,.62,0h0l0,0h.06l0,0h.32a.23.23,0,0,0,.12-.12l.07-.07h0v0l0-.06,0,0s0,0,0-.06l0,0v-.24l0,0v0h0a.71.71,0,0,1,0-.93.76.76,0,0,1,.67-.25h.16l0,0,.1,0h0l.05,0,0,0,0,0,0,0s0,0,0,0v-.06l0,0s0,0,0-.06,0,0,0,0h0a.53.53,0,0,1,.17-.35.74.74,0,0,1,.81-.21.51.51,0,0,0,.56-.13c.05,0,.06-.1.1-.14a.53.53,0,0,0-.27-.66h0a1.7,1.7,0,0,0-1.94.48,2.11,2.11,0,0,0-.26.4,1.84,1.84,0,0,0-1.17.59,1.79,1.79,0,0,0-.42,1.26,1.73,1.73,0,0,0-1.57,1.66,1.7,1.7,0,0,0-1.38,2,1.76,1.76,0,0,0-.91,2.34.5.5,0,1,0,.91-.43h0Z" transform="translate(-113.46 -59.98)"/></g><path class="cls-15" d="M497.24,524.26c.86-.87,3.33-.77,3.33-.77l20-1.47s-20.62-2.71-21.19-4c-2-1.63-.05-4.39,2.18-4.11L529.74,515l-9.42-8.88c-2.77-2.33-.39-6.27,2.65-4.26,8,3.57,21.59,9.14,27.23,17.56,0,0,85.83-12.05,88.29-13.29s27.15-43.6,27.15-43.6l25.91,13.17s-29.2,51.41-34.55,53.88-108.13,7.92-108.13,7.92c-4,6.22-13.48,4.89-19.77,5.36l-23.19,3.56c-3.16-.14-3.05-4.45-.12-4.84,5.06-.88,15.24-4.38,15.24-4.38l-18.68.7c-2.21.43-4.33-2.21-2.45-4a3.09,3.09,0,0,1,2.46-.88c6.19-.75,18.41-3.78,18.41-3.78l-21.09-.87C497.38,528.41,495.18,526,497.24,524.26Z" transform="translate(-113.46 -59.98)"/><path class="cls-4" d="M505.91,548.07h-.08a4,4,0,0,1-4-3.82,4.19,4.19,0,0,1,3.69-4.39c.71-.12,1.53-.3,2.41-.52l-5.44.21a4.5,4.5,0,0,1-4.62-2.36,3.7,3.7,0,0,1,.79-4.5,4.8,4.8,0,0,1,3.58-1.38c1.54-.19,3.47-.53,5.49-.92l-7.26-.3c-.27,0-.54,0-.79-.05h0a5,5,0,0,1-4.77-3,3.54,3.54,0,0,1,1.15-4c1.25-1.19,3.59-1.23,4.44-1.21l4.87-.36c-5.61-1.06-6.94-1.77-7.39-2.35a3.68,3.68,0,0,1-.86-4.24,4.46,4.46,0,0,1,4.5-2.65l23.63.9-6.1-5.75a4.56,4.56,0,0,1-1-6.21,4,4,0,0,1,5.56-.81c.56.26,1.16.52,1.77.79,7.9,3.51,19.68,8.74,25.44,16.45,33.24-4.67,82.49-11.81,86.68-13,2.55-2.51,17.52-27.51,26.5-42.94a1.71,1.71,0,0,1,2.24-.66l25.91,13.16a1.7,1.7,0,0,1,.71,2.35c-4.93,8.67-29.76,52-35.32,54.58-5.36,2.48-94.13,7.3-107.93,8-3.87,5-10.95,5.17-16.68,5.26-1.36,0-2.65,0-3.81.13l-23.13,3.55A1.06,1.06,0,0,1,505.91,548.07ZM521,535.46a1.7,1.7,0,0,1,.55,3.3c-.42.15-10.36,3.56-15.5,4.45a.85.85,0,0,0-.82.88c0,.35.2.53.58.58l23-3.53H529c1.27-.1,2.63-.12,4.06-.15,5.47-.09,11.65-.2,14.4-4.44a1.7,1.7,0,0,1,1.34-.78c41-2.17,103.46-6,107.52-7.77,3.05-1.51,19-27.16,32.9-51.63l-22.9-11.63c-1.89,3.22-6.8,11.59-11.86,20-13.21,21.91-14.45,22.53-15.19,22.9-2.52,1.26-68.62,10.61-88.82,13.45a1.69,1.69,0,0,1-1.64-.73c-4.94-7.38-16.78-12.64-24.61-16.12l-1.91-.85a1,1,0,0,1-.23-.13c-.35-.23-.83-.43-1.1-.07s-.35.93.47,1.62l0,0c.37.31.86.77,1.56,1.43l7.95,7.5a1.7,1.7,0,0,1-1.23,2.93l-28.21-1.09h-.14a1.07,1.07,0,0,0-1.05.62c-.08.19-.08.31.16.51l.12.1c1.71.79,11.5,2.4,20.22,3.54a1.7,1.7,0,0,1-.1,3.38l-20,1.47a.67.67,0,0,1-.2,0,5.08,5.08,0,0,0-2.09.3l-.09.08a.86.86,0,0,0-.21.24.82.82,0,0,0,.24.36,1.92,1.92,0,0,0,1.29.5h.12l21.08.86a1.7,1.7,0,0,1,.34,3.34c-.5.13-12.39,3.06-18.62,3.82a1.22,1.22,0,0,1-.27,0,1.56,1.56,0,0,0-1.16.35l-.07.07c-.23.22-.23.34-.13.52a1.08,1.08,0,0,0,1.09.56,1.24,1.24,0,0,1,.27,0l18.67-.71Zm-21.35-7.1Zm-2.44-4.1Zm3.66-7h0Zm136.67-12.63Z" transform="translate(-113.46 -59.98)"/><path class="cls-11" d="M706.13,421.73c-12.36-12.21-29,.58-34.15,7.62s-40.45,68.77-40.45,68.77L558,516.72l1.76,25.65,90.73-7a19,19,0,0,0,14.81-9.2c11.69-19.61,39.93-67.37,43.67-77C716.23,430.41,706.13,421.73,706.13,421.73Z" transform="translate(-113.46 -59.98)"/><path class="cls-4" d="M559.76,544.07a1.68,1.68,0,0,1-1.11-.42,1.72,1.72,0,0,1-.59-1.16l-1.75-25.65a1.69,1.69,0,0,1,1.27-1.76l72.84-18.43c3.93-6.87,35.25-61.57,40.19-68.31,3.62-4.93,12.5-12.54,22.15-13.31a18,18,0,0,1,14.53,5.46c.9.81,10.68,10.13,3.26,29.26-3.77,9.73-31.88,57.27-43.79,77.26a20.69,20.69,0,0,1-16.14,10l-90.73,7Zm0-26.05,1.54,22.53,89-6.9a17.33,17.33,0,0,0,13.49-8.37c11.86-19.92,39.86-67.27,43.54-76.76,6.7-17.27-2-25.18-2.37-25.51l-.08-.07A14.71,14.71,0,0,0,693,418.41c-8.45.67-16.56,7.68-19.69,11.94-5,6.88-40,68-40.34,68.61a1.69,1.69,0,0,1-1,.8Z" transform="translate(-113.46 -59.98)"/><path class="cls-14" d="M621.54,326.89s30.05-7.24,60.45,0c0,0,1.54-30.31-29.9-31.38S621.54,326.89,621.54,326.89Z" transform="translate(-113.46 -59.98)"/><path class="cls-4" d="M621.54,328.59a1.69,1.69,0,0,1-1-.35,1.67,1.67,0,0,1-.66-1.3c0-.63-.32-15.57,9.44-25.26,5.58-5.55,13.27-8.19,22.86-7.86,9.94.34,17.76,3.53,23.23,9.5,8.91,9.69,8.33,23.09,8.3,23.66a1.7,1.7,0,0,1-2.09,1.56c-29.66-7.06-59.35-.07-59.65,0A1.83,1.83,0,0,1,621.54,328.59Zm29.05-31.41c-7.93,0-14.28,2.31-18.89,6.89-6.72,6.65-8.11,16.48-8.39,20.72,7.28-1.44,31.9-5.46,57,0-.21-3.91-1.38-12.64-7.4-19.17C668,300.33,661,297.51,652,297.2Z" transform="translate(-113.46 -59.98)"/><path class="cls-14" d="M643.06,324s68.52,17,66.91,12.09-28.24-14-28.24-14S661.17,317.06,643.06,324Z" transform="translate(-113.46 -59.98)"/><path class="cls-4" d="M707.56,338.65c-3.93,0-12.57-1.16-32.59-5.51-16.17-3.51-32.16-7.47-32.32-7.51a1.69,1.69,0,0,1-.2-3.23c18.4-7,38.82-2.19,39.68-2l.15,0c6.43,2.21,27.56,9.81,29.3,15.09a2.1,2.1,0,0,1-.45,2.12C710.72,338.12,710.22,338.65,707.56,338.65Zm-58.18-14.86c22.14,5.35,50.16,11.41,57.84,11.53-3.68-2.92-15.32-8-26-11.62C680.09,323.43,664.64,320,649.38,323.79Z" transform="translate(-113.46 -59.98)"/><path class="cls-5" d="M379.73,343.17l8.79,0a17.09,17.09,0,0,1,12.13,5,16.21,16.21,0,0,1,5.22,12.22,17.07,17.07,0,0,1-5.11,12.43A16.74,16.74,0,0,1,388.38,378h-8.7c-1.93,0-3.14-.4-3.61-1.19a6.3,6.3,0,0,1-.57-3V347.35a13.24,13.24,0,0,1,.07-1.66,4,4,0,0,1,.45-1.24C376.47,343.59,377.7,343.17,379.73,343.17Zm15,23.88a8.31,8.31,0,0,0,2.76-6.39,8.59,8.59,0,0,0-2.69-6.44,8.76,8.76,0,0,0-6.29-2.59h-4.57v18h4.61A8.87,8.87,0,0,0,394.7,367.05Z" transform="translate(-113.46 -59.98)"/><path class="cls-5" d="M433.11,362.54a5.74,5.74,0,0,1-1.45,4.32,4.52,4.52,0,0,1-3.21,1.41H417.19a2.6,2.6,0,0,0,1.57,2.23,6.23,6.23,0,0,0,3.13.9,13.13,13.13,0,0,0,4.33-.57l.52-.19a4.78,4.78,0,0,1,1.9-.52c1,0,1.89.71,2.62,2.14a5.24,5.24,0,0,1,.62,2.18q0,4.24-10.13,4.24a15.22,15.22,0,0,1-6.25-1.22,10.44,10.44,0,0,1-4.25-3.21,13.63,13.63,0,0,1-3-8.6,12.46,12.46,0,0,1,3.87-9.58,13.72,13.72,0,0,1,9.68-3.59q6.6,0,9.7,4.66A9.73,9.73,0,0,1,433.11,362.54Zm-10,1.4c1.21,0,1.81-.51,1.81-1.52a2.15,2.15,0,0,0-.83-1.76,3.77,3.77,0,0,0-2.38-.67,4.83,4.83,0,0,0-3.07,1.26,3.55,3.55,0,0,0-1.52,2.69Z" transform="translate(-113.46 -59.98)"/><path class="cls-5" d="M436.2,345.4a13.4,13.4,0,0,1,.07-1.64,4.35,4.35,0,0,1,.41-1.26c.44-.85,1.68-1.28,3.7-1.28s3.14.43,3.62,1.28a3.94,3.94,0,0,1,.45,1.28,14.19,14.19,0,0,1,.07,1.67v22a5,5,0,0,0,.28,2.16c.2.3.61.45,1.26.45a8.59,8.59,0,0,1,1.31.07,2.55,2.55,0,0,1,.81.41c.63.41.95,1.53.95,3.37,0,2-.32,3.22-.95,3.66-.82.57-2.79.67-5.89.29-2.45-.32-4-1.13-4.76-2.43q-1.33-2.32-1.33-7.41Z" transform="translate(-113.46 -59.98)"/><path class="cls-5" d="M459.56,348.37a2,2,0,0,1-1.26,1,8.21,8.21,0,0,1-2.4.28,8.3,8.3,0,0,1-2.4-.28,2,2,0,0,1-1.26-1,4.12,4.12,0,0,1-.42-1.26,16.85,16.85,0,0,1,0-3.28,3.64,3.64,0,0,1,.4-1.21c.44-.86,1.68-1.29,3.71-1.29s3.2.43,3.61,1.29a3.85,3.85,0,0,1,.45,1.26,19.25,19.25,0,0,1,0,3.28A3.86,3.86,0,0,1,459.56,348.37Zm-7.82,8.82a12.86,12.86,0,0,1,.08-1.64,4.29,4.29,0,0,1,.4-1.26c.44-.82,1.68-1.24,3.71-1.24a5,5,0,0,1,3.23.81,2.67,2.67,0,0,1,.86,2.05c0,.31,0,.77,0,1.37v16.64a13.29,13.29,0,0,1-.07,1.64,3.85,3.85,0,0,1-.45,1.26c-.41.83-1.63,1.24-3.66,1.24s-3.22-.43-3.66-1.29a4.14,4.14,0,0,1-.4-1.23,13,13,0,0,1-.08-1.67Z" transform="translate(-113.46 -59.98)"/><path class="cls-5" d="M489.11,353.58c1.64,1,2.47,2,2.47,3.13a5.89,5.89,0,0,1-.95,2.62l-9.84,16.87a4.34,4.34,0,0,1-1.52,1.45,4,4,0,0,1-2.07.65,4.1,4.1,0,0,1-1.95-.5,4,4,0,0,1-1.31-1l-.42-.52-9.89-16.92a5.3,5.3,0,0,1-.95-2.57c0-1.14.82-2.2,2.47-3.18a6.25,6.25,0,0,1,2.85-1.05,2.15,2.15,0,0,1,1.64.64,8.69,8.69,0,0,1,1.26,1.93l6.23,12,6.23-12c.34-.6.61-1,.78-1.31A3.06,3.06,0,0,1,485,353a2.58,2.58,0,0,1,1.52-.4A5.62,5.62,0,0,1,489.11,353.58Z" transform="translate(-113.46 -59.98)"/><path class="cls-5" d="M516.91,362.54a5.74,5.74,0,0,1-1.45,4.32,4.48,4.48,0,0,1-3.2,1.41H501a2.6,2.6,0,0,0,1.57,2.23,6.24,6.24,0,0,0,3.14.9,13.07,13.07,0,0,0,4.32-.57l.52-.19a4.82,4.82,0,0,1,1.91-.52c1,0,1.88.71,2.61,2.14a5.24,5.24,0,0,1,.62,2.18q0,4.24-10.13,4.24a15.25,15.25,0,0,1-6.25-1.22,10.44,10.44,0,0,1-4.25-3.21,13.63,13.63,0,0,1-3-8.6,12.43,12.43,0,0,1,3.88-9.58,13.68,13.68,0,0,1,9.67-3.59q6.61,0,9.7,4.66A9.65,9.65,0,0,1,516.91,362.54Zm-10,1.4c1.21,0,1.81-.51,1.81-1.52a2.15,2.15,0,0,0-.83-1.76,3.77,3.77,0,0,0-2.38-.67,4.78,4.78,0,0,0-3.06,1.26,3.52,3.52,0,0,0-1.52,2.69Z" transform="translate(-113.46 -59.98)"/><path class="cls-5" d="M537,353.29a3.25,3.25,0,0,1,1.5,1,3.38,3.38,0,0,1,.59,2.21,7.51,7.51,0,0,1-.9,3.32,2.82,2.82,0,0,1-2.61,1.81,3.75,3.75,0,0,1-1.64-.38,4.88,4.88,0,0,0-2.07-.38,3.74,3.74,0,0,0-2.4.9,2.72,2.72,0,0,0-1.12,2.19v10a13.29,13.29,0,0,1-.07,1.64,3.85,3.85,0,0,1-.45,1.26c-.48.83-1.71,1.24-3.71,1.24a5.24,5.24,0,0,1-3.28-.81,2.87,2.87,0,0,1-.86-2V357.14a13,13,0,0,1,.08-1.64,3.72,3.72,0,0,1,.4-1.21c.44-.86,1.68-1.28,3.71-1.28s3.09.36,3.56,1.09a2.74,2.74,0,0,1,.53,1.57,7.27,7.27,0,0,1,.68-.81,9.14,9.14,0,0,1,1.93-1.28,5.55,5.55,0,0,1,2.59-.81,12.44,12.44,0,0,1,1.88.12A11.62,11.62,0,0,1,537,353.29Z" transform="translate(-113.46 -59.98)"/><path class="cls-5" d="M565,353.29c1.87.83,2.8,1.82,2.8,3a3.44,3.44,0,0,1-.38,1.61c-.25.51-.38.78-.38.81l-12.45,27.86a14.85,14.85,0,0,1-.64,1.37,3,3,0,0,1-.83.91,2.36,2.36,0,0,1-1.43.43,7.12,7.12,0,0,1-2.52-.72c-1.87-.82-2.8-1.8-2.8-2.94q0-1.14,4.56-10.89l-9.46-15.92a5.42,5.42,0,0,1-1-2.33c0-1,.85-2,2.57-3.05a5.57,5.57,0,0,1,2.51-.95,2.64,2.64,0,0,1,1.48.38,2.88,2.88,0,0,1,.83.79c.17.27,1.05,1.74,2.61,4.42s3.07,5.17,4.5,7.49c.15-.51,1-2.47,2.56-5.87s2.39-5.23,2.5-5.45a4.64,4.64,0,0,1,.55-.81,2.07,2.07,0,0,1,1.73-.8A6.83,6.83,0,0,1,565,353.29Z" transform="translate(-113.46 -59.98)"/><circle class="cls-11" cx="288.98" cy="384.9" r="39.09" transform="translate(-300.99 257.09) rotate(-45)"/><path class="cls-4" d="M289,426.37a41.47,41.47,0,1,1,41.46-41.47A41.51,41.51,0,0,1,289,426.37Zm0-78.19A36.72,36.72,0,1,0,325.7,384.9,36.76,36.76,0,0,0,289,348.18Z" transform="translate(-113.46 -59.98)"/><path class="cls-20" d="M270.77,382.66h0l.29.56c.22.47.45.93.7,1.38l12.59,24.63a4.9,4.9,0,0,0,7,.22l13.35-23.77A18.21,18.21,0,0,0,306,383.4l.24-.42h-.05a19.27,19.27,0,1,0-36.88-7.82A19.31,19.31,0,0,0,270.77,382.66Zm7.52-7.5a10.24,10.24,0,1,1,10.24,10.24A10.24,10.24,0,0,1,278.29,375.16Z" transform="translate(-113.46 -59.98)"/><path class="cls-4" d="M287.9,412.51h-.3a6.45,6.45,0,0,1-4.54-2.14,1.78,1.78,0,0,1-.25-.36l-12.57-24.6c-.26-.47-.51-.95-.73-1.43l-.28-.54a1.76,1.76,0,0,1-.15-.44,20.71,20.71,0,0,1-1.51-7.83,21,21,0,1,1,41.93,0,20.78,20.78,0,0,1-1.66,8.16,1.78,1.78,0,0,1-.17.49l-.21.37a21.56,21.56,0,0,1-1.34,2.38L292.8,410.28a1.57,1.57,0,0,1-.32.41A6.67,6.67,0,0,1,287.9,412.51Zm-2.18-4.27a3.06,3.06,0,0,0,2,.87,3.26,3.26,0,0,0,2.24-.74l13.2-23.52.06-.09a18,18,0,0,0,1.17-2.08l.05-.11,0-.08c0-.07.05-.13.07-.2a17.37,17.37,0,0,0,1.52-7.13,17.58,17.58,0,1,0-35.15,0,17.42,17.42,0,0,0,1.38,6.84l.06.18.14.27,0,.06c.2.43.41.85.64,1.25l0,.06Zm2.81-21.15a11.94,11.94,0,1,1,11.94-11.93A11.95,11.95,0,0,1,288.53,387.09Zm0-20.48a8.55,8.55,0,1,0,8.55,8.55A8.56,8.56,0,0,0,288.53,366.61Z" transform="translate(-113.46 -59.98)"/><circle class="cls-11" cx="275.37" cy="193.53" r="39.09"/><path class="cls-4" d="M388.84,295a41.47,41.47,0,1,1,41.46-41.47A41.52,41.52,0,0,1,388.84,295Zm0-78.19a36.72,36.72,0,1,0,36.72,36.72A36.76,36.76,0,0,0,388.84,216.79Z" transform="translate(-113.46 -59.98)"/><path class="cls-20" d="M370.63,251.26h0l.29.57c.22.47.45.92.7,1.37l12.59,24.63a4.88,4.88,0,0,0,7,.22l13.35-23.76a18.21,18.21,0,0,0,1.28-2.28l.24-.42H406a19.27,19.27,0,1,0-35.37-.33Zm7.52-7.5A10.24,10.24,0,1,1,388.39,254,10.24,10.24,0,0,1,378.15,243.76Z" transform="translate(-113.46 -59.98)"/><path class="cls-4" d="M387.76,281.11h-.3a6.42,6.42,0,0,1-4.54-2.15,1.54,1.54,0,0,1-.25-.36L370.1,254c-.26-.46-.51-.94-.73-1.43l-.28-.54a1.57,1.57,0,0,1-.15-.43,20.77,20.77,0,0,1-1.52-7.84,21,21,0,0,1,41.94,0,20.74,20.74,0,0,1-1.66,8.16,1.85,1.85,0,0,1-.17.5l-.21.37a21.56,21.56,0,0,1-1.34,2.38l-13.32,23.71a1.42,1.42,0,0,1-.32.41A6.67,6.67,0,0,1,387.76,281.11Zm-2.18-4.27a3,3,0,0,0,2,.88,3.29,3.29,0,0,0,2.24-.75l13.2-23.51.06-.1a16.46,16.46,0,0,0,1.17-2.08s0-.07.05-.1l.05-.09.07-.19a17.38,17.38,0,0,0,1.52-7.14,17.58,17.58,0,0,0-35.15,0,17.35,17.35,0,0,0,1.38,6.84l.06.19.14.27,0,.06c.2.42.41.85.64,1.25l0,.06Zm2.81-21.14a11.94,11.94,0,1,1,11.94-11.94A12,12,0,0,1,388.39,255.7Zm0-20.48a8.55,8.55,0,1,0,8.55,8.54A8.56,8.56,0,0,0,388.39,235.22Z" transform="translate(-113.46 -59.98)"/><circle class="cls-11" cx="560.52" cy="269.28" r="43.44" transform="translate(-160.34 76) rotate(-13.28)"/><path class="cls-4" d="M560.52,315.09a45.81,45.81,0,1,1,45.82-45.81A45.87,45.87,0,0,1,560.52,315.09Zm0-86.88a41.07,41.07,0,1,0,41.07,41.07A41.11,41.11,0,0,0,560.52,228.21Z" transform="translate(-113.46 -59.98)"/><path class="cls-20" d="M540.3,266.78h0l.32.63c.24.52.5,1,.78,1.52l14,27.37a5.45,5.45,0,0,0,7.78.25L578,270.14a21.65,21.65,0,0,0,1.43-2.53l.26-.47h0a21.41,21.41,0,1,0-39.3-.36Zm8.35-8.33A11.38,11.38,0,1,1,560,269.83,11.38,11.38,0,0,1,548.65,258.45Z" transform="translate(-113.46 -59.98)"/><path class="cls-4" d="M559.33,299.76H559a6.9,6.9,0,0,1-4.92-2.32,1.54,1.54,0,0,1-.25-.36l-14-27.33c-.29-.52-.56-1.06-.81-1.59l-.31-.6a1.7,1.7,0,0,1-.15-.45,23.11,23.11,0,1,1,42.71.36,1.55,1.55,0,0,1-.18.51l-.24.42a21.46,21.46,0,0,1-1.48,2.63l-14.8,26.36a1.81,1.81,0,0,1-.32.41A7.22,7.22,0,0,1,559.33,299.76Zm-2.58-4.44a3.7,3.7,0,0,0,2.41,1.05,3.83,3.83,0,0,0,2.63-.9l14.7-26.16a.93.93,0,0,1,0-.1,19.28,19.28,0,0,0,1.32-2.33l0-.1.06-.12a1.8,1.8,0,0,1,.08-.21,19.48,19.48,0,0,0,1.7-8,19.72,19.72,0,0,0-39.44,0,19.54,19.54,0,0,0,1.55,7.67,1.59,1.59,0,0,1,.07.2l.16.32,0,.06c.22.47.46.94.72,1.4l0,.06Zm3.28-23.8a13.08,13.08,0,1,1,13.08-13.07A13.08,13.08,0,0,1,560,271.52Zm0-22.76a9.69,9.69,0,1,0,9.69,9.69A9.7,9.7,0,0,0,560,248.76Z" transform="translate(-113.46 -59.98)"/><path class="cls-21" d="M739.2,471.58a11.95,11.95,0,0,0,4.1-1.46,13,13,0,0,0,3.41-2.79,8,8,0,0,0,1.83-3.75,5.48,5.48,0,0,0-.41-3.22A5.94,5.94,0,0,0,746,458a7.86,7.86,0,0,0-3.19-1.24,12.51,12.51,0,0,0-3.25-.13,10.26,10.26,0,0,0-2.67.63,6.77,6.77,0,0,0-2,1.18,5.36,5.36,0,0,0-1.24,1.51,2.1,2.1,0,0,0-.27,1.26,3.09,3.09,0,0,0,.33,1.09,4.21,4.21,0,0,0,.59.86,6.29,6.29,0,0,0,.57.54c-.47.64-1,1.37-1.53,2.17s-1.09,1.66-1.62,2.57a3.29,3.29,0,0,1-.48-1.3,3.9,3.9,0,0,0-.63.51,3,3,0,0,0-.44.57,1.62,1.62,0,0,0-.24.76.62.62,0,0,0,.11.34c.06.1.14.21.24.35a2.54,2.54,0,0,0,.47.42q-.85,1.59-1.53,3.21a14.66,14.66,0,0,0-1,3.13,8.63,8.63,0,0,0-.07,2.81,4.24,4.24,0,0,0,1.08,2.25c0,.06.05.06.15,0a.53.53,0,0,0,.24-.19,1.22,1.22,0,0,0,.1-.72c0-.4-.06-.85-.06-1.34a9.19,9.19,0,0,1,.2-1.73,12.38,12.38,0,0,1,.7-2.26,25.59,25.59,0,0,1,1.43-2.94c.06.53.15,1.12.29,1.79a18.46,18.46,0,0,0,.53,2,14.24,14.24,0,0,0,.86,2A8.09,8.09,0,0,0,735,479.9a6.45,6.45,0,0,0,1.68,1.25,5.13,5.13,0,0,0,2.2.51,5.21,5.21,0,0,0,.8-.6,3.26,3.26,0,0,0,.57-.6,1.29,1.29,0,0,0,.28-.68,6.72,6.72,0,0,1-3.35-1,6.41,6.41,0,0,1-1.24-1,6.29,6.29,0,0,1-1.11-1.52,9.65,9.65,0,0,1-.82-2.14,12.19,12.19,0,0,1-.36-2.89,12.61,12.61,0,0,0,3,.47A12.87,12.87,0,0,0,739.2,471.58Zm-5.4-1.6a.86.86,0,0,1-.25-.06c.7-1,1.51-2.15,2.44-3.37s2-2.56,3.27-4a1.65,1.65,0,0,0-.43-1,2.54,2.54,0,0,0-.73-.51,3,3,0,0,0-1-.23c-.06.08-.12.17-.2.26s-.16.2-.25.31l-.32.4a3.47,3.47,0,0,1-.37-.23,1.37,1.37,0,0,1-.34-.34,1.65,1.65,0,0,1-.21-.42.9.9,0,0,1,0-.49,2.23,2.23,0,0,1,.61-.93,3.85,3.85,0,0,1,1.36-.87,7.45,7.45,0,0,1,2.13-.48,10.05,10.05,0,0,1,2.92.18,5.09,5.09,0,0,1,2.54,1.17,4.24,4.24,0,0,1,1.25,1.91,4.7,4.7,0,0,1,.13,2.21,5,5,0,0,1-.83,2,11,11,0,0,1-2.84,3,12.69,12.69,0,0,1-1.63.95,9,9,0,0,1-2,.68,11.18,11.18,0,0,1-5.16-.13A.18.18,0,0,1,733.8,470Z" transform="translate(-113.46 -59.98)"/><path class="cls-21" d="M781.35,462.79a9.09,9.09,0,0,0-1.93-.35c-.82-.07-1.74-.12-2.79-.15s-2.11,0-3.21,0c.44-.51.89-1,1.37-1.57l1.47-1.67a1.79,1.79,0,0,0-.41-1,1.93,1.93,0,0,0-.72-.54,3.57,3.57,0,0,0-1-.26c-.38.44-.78.92-1.19,1.45s-.8,1-1.27,1.62-1,1.29-1.49,2l-.94,0c-1,0-2.11,0-3.21,0,.44-.51.89-1,1.37-1.57L768.9,459a1.79,1.79,0,0,0-.41-1,2,2,0,0,0-.72-.54,3.57,3.57,0,0,0-1-.26c-.38.44-.78.92-1.19,1.45s-.8,1-1.27,1.62l-1.52,2.05c-.81,0-1.57.07-2.29.08s-1.33.05-1.86.09l-1.7.11a.49.49,0,0,0-.16.27.69.69,0,0,0,0,.25.46.46,0,0,0,.11.22c1-.05,1.94-.1,2.81-.13s1.7-.06,2.48-.09c-.72,1-1.45,2.1-2.18,3.24s-1.4,2.28-2,3.43a31.33,31.33,0,0,0-1.55,3.39c-.14.38-.26.76-.37,1.13s-.43.54-.65.83-.66.77-1.06,1.19a10,10,0,0,1-1.27,1.11,6.16,6.16,0,0,1-2,1.11c-.42.07-.63,0-.65-.23a3.64,3.64,0,0,1,.37-.95,17,17,0,0,1,1.15-2c.52-.81,1.18-1.72,2-2.74a34.8,34.8,0,0,1,2.88-3.22,1.24,1.24,0,0,0-.41-.81,2.31,2.31,0,0,0-1.61-.55,3.39,3.39,0,0,0-.28.34c-.21.23-.46.54-.77.94a1.28,1.28,0,0,0-.37-1.17,2,2,0,0,0-.93-.42,3.46,3.46,0,0,0-1.31.11,7.51,7.51,0,0,0-2.06.85,13.63,13.63,0,0,0-2.45,1.88,15.1,15.1,0,0,0-2.46,3.18,16.42,16.42,0,0,0-.93,1.77,8.16,8.16,0,0,0-.49,1.36,4.15,4.15,0,0,0-.12,1,2.77,2.77,0,0,0,.1.72,1.35,1.35,0,0,0,.9.94,3.2,3.2,0,0,0,1.3-.16,7.52,7.52,0,0,0,1.39-.59,13.93,13.93,0,0,0,1.35-.86c.44-.31.83-.61,1.17-.89a3.86,3.86,0,0,0-.34,1.29,1.69,1.69,0,0,0,.11.83.86.86,0,0,0,.4.42,1.2,1.2,0,0,0,.57.13,5,5,0,0,0,1.09-.18,7.74,7.74,0,0,0,1.73-.76,12.6,12.6,0,0,0,2.22-1.66c.33-.3.68-.66,1-1a.59.59,0,0,0,0,.13,6.1,6.1,0,0,0,0,2.14,2.59,2.59,0,0,0,.47,1,1,1,0,0,0,.83.37,4.86,4.86,0,0,0,1.11-.19,7.18,7.18,0,0,0,1.74-.76,13,13,0,0,0,2.22-1.68c.33-.3.68-.66,1-1a.5.5,0,0,0,0,.12,5.82,5.82,0,0,0,0,2.14,2.47,2.47,0,0,0,.46,1,1,1,0,0,0,.83.37,4.86,4.86,0,0,0,1.11-.19,7.18,7.18,0,0,0,1.74-.76,13.28,13.28,0,0,0,2.16-1.63l-.1.31a3.47,3.47,0,0,0-.15,1.34.94.94,0,0,0,.37.7,1.2,1.2,0,0,0,.67.2,5.15,5.15,0,0,0,1.1-.18,7.46,7.46,0,0,0,1.75-.76,13,13,0,0,0,2.22-1.66,18.83,18.83,0,0,0,2.51-2.91.72.72,0,0,0-.17-.2.77.77,0,0,0-.56-.2c-.31.42-.64.84-1,1.28s-.69.77-1.09,1.19a10,10,0,0,1-1.27,1.11,6.16,6.16,0,0,1-2,1.11c-.41.07-.62,0-.62-.23a3.64,3.64,0,0,1,.37-.95,17,17,0,0,1,1.15-2c.52-.81,1.18-1.72,2-2.74a34.8,34.8,0,0,1,2.88-3.22,1.46,1.46,0,0,0-.42-.81,2.68,2.68,0,0,0-.69-.41,2.94,2.94,0,0,0-.91-.14c-.56.66-1.15,1.38-1.76,2.16s-1.07,1.44-1.68,2.32c-.39.57-.76,1.17-1.13,1.79l-.63.81c-.32.38-.68.77-1.08,1.19a7.9,7.9,0,0,1-1.28,1.11,10.9,10.9,0,0,1-1.13.75,4.2,4.2,0,0,1-.8.36,1.71,1.71,0,0,1-.71.11,1.08,1.08,0,0,1-.48-.18.6.6,0,0,1-.17-.61,13.49,13.49,0,0,1,.52-2.29,20.38,20.38,0,0,1,1.34-3.17,41,41,0,0,1,2.46-4.14c1-1.48,2.23-3.14,3.73-5l.56.08c.64.11,1,.26,1.08.43l.43-.49a.34.34,0,0,0-.1-.26c1.36,0,2.47,0,3.32.08,1.2.07,2.08.15,2.63.24s1,.26,1.08.43l.43-.49C782,463.13,781.83,462.94,781.35,462.79ZM748.85,476a16.22,16.22,0,0,1-1.67,1.49,8.27,8.27,0,0,1-1.38.88,1.48,1.48,0,0,1-.8.23q-.45-.12.12-1.35a23.41,23.41,0,0,1,2-3.28,18,18,0,0,1,1.63-2,20.86,20.86,0,0,1,1.78-1.69,8.74,8.74,0,0,1,1.49-1c.43-.21.7-.23.81,0a.73.73,0,0,1,0,.54,6.38,6.38,0,0,1-.21.73c-.1.25-.21.51-.34.78s-.26.49-.37.68l-.66.95c-.22.33-.44.68-.65,1A17.48,17.48,0,0,1,748.85,476Zm18.56-9.56c-.73,1.13-1.4,2.28-2,3.43a31.33,31.33,0,0,0-1.55,3.39c-.14.38-.26.76-.37,1.13s-.43.55-.65.83-.68.77-1.08,1.19a8.35,8.35,0,0,1-1.28,1.11,10.9,10.9,0,0,1-1.13.75,4.2,4.2,0,0,1-.8.36,1.74,1.74,0,0,1-.71.11,1.08,1.08,0,0,1-.48-.18c-.16-.11-.21-.31-.17-.61a13.49,13.49,0,0,1,.52-2.29,20.38,20.38,0,0,1,1.34-3.17,41,41,0,0,1,2.46-4.14c1-1.48,2.23-3.14,3.73-5l1.89-.09c.87,0,1.7-.06,2.48-.09C768.87,464.18,768.14,465.26,767.41,466.4Z" transform="translate(-113.46 -59.98)"/><path class="cls-21" d="M779.55,463.7a1.38,1.38,0,0,0-.84.17,2.79,2.79,0,0,0-.94.76,3.45,3.45,0,0,0-.65,1.05,3.27,3.27,0,0,0-.2.86,1.87,1.87,0,0,0,.11.79c.12.36.33.51.64.44a2.26,2.26,0,0,0,1-.54,5.75,5.75,0,0,0,1-1.08,2.93,2.93,0,0,0,.54-1.2,1.4,1.4,0,0,0-.1-.87A.72.72,0,0,0,779.55,463.7Z" transform="translate(-113.46 -59.98)"/></g></svg>