<svg xmlns="http://www.w3.org/2000/svg" xmlns:xlink="http://www.w3.org/1999/xlink" viewBox="0 0 1388.41 1201.53"><defs><style>.cls-1{isolation:isolate;}.cls-2{fill:#b5b7e2;}.cls-3,.cls-51{fill:#9d9b98;}.cls-3,.cls-50{opacity:0.8;}.cls-103,.cls-106,.cls-113,.cls-114,.cls-115,.cls-27,.cls-3,.cls-34,.cls-40,.cls-46,.cls-47,.cls-50,.cls-54,.cls-58,.cls-77,.cls-78,.cls-79,.cls-80,.cls-85,.cls-94,.cls-99{mix-blend-mode:multiply;}.cls-10,.cls-11,.cls-12,.cls-128,.cls-13,.cls-14,.cls-15,.cls-16,.cls-17,.cls-18,.cls-19,.cls-20,.cls-21,.cls-22,.cls-23,.cls-24,.cls-25,.cls-26,.cls-31,.cls-32,.cls-37,.cls-38,.cls-4,.cls-43,.cls-44,.cls-5,.cls-6,.cls-7,.cls-8,.cls-9{stroke:#777370;stroke-linecap:round;stroke-linejoin:round;stroke-width:0.32px;}.cls-4{fill:url(#linear-gradient);}.cls-5{fill:url(#linear-gradient-2);}.cls-6{fill:url(#linear-gradient-3);}.cls-7{fill:url(#linear-gradient-4);}.cls-8{fill:url(#linear-gradient-5);}.cls-9{fill:url(#linear-gradient-6);}.cls-10{fill:url(#linear-gradient-7);}.cls-11{fill:url(#linear-gradient-8);}.cls-12{fill:url(#linear-gradient-9);}.cls-13{fill:url(#linear-gradient-10);}.cls-14{fill:url(#linear-gradient-11);}.cls-15{fill:url(#linear-gradient-12);}.cls-16{fill:url(#linear-gradient-13);}.cls-17{fill:url(#linear-gradient-14);}.cls-18{fill:url(#linear-gradient-15);}.cls-19{fill:url(#linear-gradient-16);}.cls-20{fill:url(#linear-gradient-17);}.cls-21{fill:url(#linear-gradient-18);}.cls-22{fill:url(#linear-gradient-19);}.cls-23{fill:url(#linear-gradient-20);}.cls-24{fill:url(#linear-gradient-21);}.cls-25{fill:url(#linear-gradient-22);}.cls-26{fill:url(#linear-gradient-23);}.cls-27{fill:#9e9c9b;}.cls-27,.cls-47{opacity:0.6;}.cls-28{fill:none;}.cls-29{fill:url(#linear-gradient-24);}.cls-30{fill:url(#linear-gradient-25);}.cls-31{fill:url(#linear-gradient-26);}.cls-32{fill:url(#linear-gradient-27);}.cls-33{fill:url(#linear-gradient-28);}.cls-34{fill:url(#linear-gradient-29);}.cls-35{fill:url(#linear-gradient-30);}.cls-36{fill:url(#linear-gradient-31);}.cls-37{fill:url(#linear-gradient-32);}.cls-38{fill:url(#linear-gradient-33);}.cls-39{fill:url(#linear-gradient-34);}.cls-40{fill:url(#linear-gradient-35);}.cls-41{fill:url(#linear-gradient-36);}.cls-42{fill:url(#linear-gradient-37);}.cls-43{fill:url(#linear-gradient-38);}.cls-44{fill:url(#linear-gradient-39);}.cls-45{fill:url(#linear-gradient-40);}.cls-46{fill:url(#linear-gradient-41);}.cls-113,.cls-47{fill:#9d9d9c;}.cls-48{fill:url(#linear-gradient-42);}.cls-49{fill:url(#linear-gradient-43);}.cls-52{fill:url(#linear-gradient-44);}.cls-53{fill:#008cb5;}.cls-54{opacity:0.51;}.cls-55{fill:#3aa3e2;}.cls-56{opacity:0.64;}.cls-56,.cls-74{mix-blend-mode:screen;}.cls-57{fill:#e4f4fb;}.cls-59{fill:url(#linear-gradient-45);}.cls-60{fill:#2a4f24;}.cls-61{fill:#006799;}.cls-62{fill:#005178;}.cls-63{fill:#faf3e3;}.cls-64{fill:url(#linear-gradient-46);}.cls-65{fill:url(#linear-gradient-47);}.cls-66{fill:url(#linear-gradient-48);}.cls-67{fill:url(#linear-gradient-49);}.cls-68{fill:url(#linear-gradient-50);}.cls-69{fill:url(#linear-gradient-51);}.cls-70{fill:url(#linear-gradient-52);}.cls-71{fill:url(#linear-gradient-53);}.cls-72{fill:url(#linear-gradient-54);}.cls-73{fill:#e2ddd0;}.cls-102,.cls-74,.cls-87{fill:#fff;}.cls-74{opacity:0.24;}.cls-75{fill:url(#linear-gradient-55);}.cls-76{fill:#058bb5;}.cls-77{fill:url(#linear-gradient-56);}.cls-78{fill:url(#linear-gradient-57);}.cls-79{fill:url(#linear-gradient-58);}.cls-80{fill:url(#linear-gradient-59);}.cls-81{fill:#003f73;}.cls-82{fill:#fcf0be;}.cls-83{fill:#1d1d1b;}.cls-106,.cls-84{fill:#3c3c3b;}.cls-85{fill:#846149;}.cls-103,.cls-115,.cls-85{opacity:0.4;}.cls-86{fill:#575756;}.cls-101,.cls-87{opacity:0.2;}.cls-88{fill:#878787;}.cls-89{fill:#825f46;}.cls-90{fill:#533636;}.cls-115,.cls-91{fill:#b2b2b2;}.cls-92{fill:url(#Super_Soft_Black_Vignette);}.cls-93{fill:url(#Super_Soft_Black_Vignette-2);}.cls-94{fill:#3d3d3d;}.cls-113,.cls-94,.cls-99{opacity:0.3;}.cls-95{fill:#cf8539;}.cls-96{fill:url(#Super_Soft_Black_Vignette-3);}.cls-97{fill:#706f6f;}.cls-98{fill:url(#Super_Soft_Black_Vignette-4);}.cls-100{fill:url(#Super_Soft_Black_Vignette-5);}.cls-104{fill:#29235c;}.cls-105{fill:#231f20;}.cls-106{opacity:0.5;}.cls-107{fill:#636365;}.cls-108{fill:url(#Super_Soft_Black_Vignette-6);}.cls-109{fill:url(#Super_Soft_Black_Vignette-7);}.cls-110{fill:url(#Super_Soft_Black_Vignette-8);}.cls-111{fill:url(#Super_Soft_Black_Vignette-9);}.cls-112{fill:url(#Super_Soft_Black_Vignette-10);}.cls-114{fill:#9b6b2d;}.cls-116{fill:#2d2e83;}.cls-117{fill:url(#Super_Soft_Black_Vignette-11);}.cls-118{fill:url(#Super_Soft_Black_Vignette-12);}.cls-119{fill:url(#Super_Soft_Black_Vignette-13);}.cls-120{fill:url(#Super_Soft_Black_Vignette-14);}.cls-121{fill:url(#Super_Soft_Black_Vignette-15);}.cls-122{fill:url(#Super_Soft_Black_Vignette-16);}.cls-123{fill:url(#Super_Soft_Black_Vignette-17);}.cls-124{fill:url(#Super_Soft_Black_Vignette-18);}.cls-125{fill:url(#Super_Soft_Black_Vignette-19);}.cls-126{fill:url(#Super_Soft_Black_Vignette-20);}.cls-127{fill:url(#linear-gradient-60);}.cls-128{fill:url(#linear-gradient-61);}.cls-129{fill:#312782;}</style><linearGradient id="linear-gradient" x1="697.83" y1="283.68" x2="697.83" y2="1008.8" gradientUnits="userSpaceOnUse"><stop offset="0" stop-color="#f2e8e2"/><stop offset="0.31" stop-color="#cac0bf"/><stop offset="0.42" stop-color="#d4cbc9"/><stop offset="0.61" stop-color="#efe8e5"/><stop offset="0.66" stop-color="#f7f1ed"/><stop offset="1" stop-color="#baabab"/></linearGradient><linearGradient id="linear-gradient-2" x1="697.83" y1="283.56" x2="697.83" y2="1008.88" xlink:href="#linear-gradient"/><linearGradient id="linear-gradient-3" x1="697.83" y1="283.46" x2="697.83" y2="1008.91" xlink:href="#linear-gradient"/><linearGradient id="linear-gradient-4" x1="697.83" y1="283.61" x2="697.83" y2="1008.86" xlink:href="#linear-gradient"/><linearGradient id="linear-gradient-5" x1="697.83" y1="283.38" x2="697.83" y2="1009" xlink:href="#linear-gradient"/><linearGradient id="linear-gradient-6" x1="697.83" y1="283.41" x2="697.83" y2="1008.96" xlink:href="#linear-gradient"/><linearGradient id="linear-gradient-7" x1="697.83" y1="283.52" x2="697.83" y2="1008.9" xlink:href="#linear-gradient"/><linearGradient id="linear-gradient-8" x1="697.83" y1="283.53" x2="697.83" y2="1008.89" xlink:href="#linear-gradient"/><linearGradient id="linear-gradient-9" x1="697.83" y1="283.53" x2="697.83" y2="1008.91" xlink:href="#linear-gradient"/><linearGradient id="linear-gradient-10" x1="697.82" y1="283.53" x2="697.82" y2="1008.91" xlink:href="#linear-gradient"/><linearGradient id="linear-gradient-11" x1="697.83" y1="283.54" x2="697.83" y2="1008.89" xlink:href="#linear-gradient"/><linearGradient id="linear-gradient-12" x1="697.83" y1="283.53" x2="697.83" y2="1008.92" xlink:href="#linear-gradient"/><linearGradient id="linear-gradient-13" x1="697.82" y1="283.53" x2="697.82" y2="1008.9" xlink:href="#linear-gradient"/><linearGradient id="linear-gradient-14" x1="697.83" y1="283.54" x2="697.83" y2="1008.87" xlink:href="#linear-gradient"/><linearGradient id="linear-gradient-15" x1="697.82" y1="283.55" x2="697.82" y2="1008.86" xlink:href="#linear-gradient"/><linearGradient id="linear-gradient-16" x1="697.82" y1="283.53" x2="697.82" y2="1008.9" xlink:href="#linear-gradient"/><linearGradient id="linear-gradient-17" x1="697.83" y1="283.64" x2="697.83" y2="1008.8" xlink:href="#linear-gradient"/><linearGradient id="linear-gradient-18" x1="697.83" y1="283.53" x2="697.83" y2="1008.9" xlink:href="#linear-gradient"/><linearGradient id="linear-gradient-19" x1="697.83" y1="283.5" x2="697.83" y2="1008.93" xlink:href="#linear-gradient"/><linearGradient id="linear-gradient-20" x1="697.83" y1="283.58" x2="697.83" y2="1008.81" xlink:href="#linear-gradient"/><linearGradient id="linear-gradient-21" x1="697.83" y1="283.54" x2="697.83" y2="1008.9" xlink:href="#linear-gradient"/><linearGradient id="linear-gradient-22" x1="697.83" y1="283.53" x2="697.83" y2="1008.91" xlink:href="#linear-gradient"/><linearGradient id="linear-gradient-23" x1="697.83" y1="283.53" x2="697.83" y2="1008.85" xlink:href="#linear-gradient"/><linearGradient id="linear-gradient-24" x1="1213.52" y1="909.63" x2="1213.52" y2="296.8" gradientUnits="userSpaceOnUse"><stop offset="0" stop-color="#006799"/><stop offset="0.61" stop-color="#164685"/><stop offset="1" stop-color="#21367c"/></linearGradient><linearGradient id="linear-gradient-25" x1="1164.96" y1="905.54" x2="1262.09" y2="905.54" xlink:href="#linear-gradient-24"/><linearGradient id="linear-gradient-26" x1="1164.96" y1="314.96" x2="1262.09" y2="314.96" gradientUnits="userSpaceOnUse"><stop offset="0" stop-color="#f7f1ed"/><stop offset="1" stop-color="#baabab"/></linearGradient><linearGradient id="linear-gradient-27" x1="1169.84" y1="330.34" x2="1257.21" y2="330.34" xlink:href="#linear-gradient-26"/><linearGradient id="linear-gradient-28" x1="1169.84" y1="889.63" x2="1257.21" y2="889.63" xlink:href="#linear-gradient-24"/><linearGradient id="linear-gradient-29" x1="1171.03" y1="1020.4" x2="1268.15" y2="1020.4" xlink:href="#linear-gradient-26"/><linearGradient id="linear-gradient-30" x1="833.85" y1="909.63" x2="833.85" y2="296.8" xlink:href="#linear-gradient-24"/><linearGradient id="linear-gradient-31" x1="785.29" y1="905.54" x2="882.41" y2="905.54" xlink:href="#linear-gradient-24"/><linearGradient id="linear-gradient-32" x1="785.29" y1="314.96" x2="882.41" y2="314.96" xlink:href="#linear-gradient-26"/><linearGradient id="linear-gradient-33" x1="790.17" y1="330.34" x2="877.53" y2="330.34" xlink:href="#linear-gradient-26"/><linearGradient id="linear-gradient-34" x1="790.17" y1="889.63" x2="877.53" y2="889.63" xlink:href="#linear-gradient-24"/><linearGradient id="linear-gradient-35" x1="791.36" y1="1020.4" x2="888.48" y2="1020.4" xlink:href="#linear-gradient-26"/><linearGradient id="linear-gradient-36" x1="157.17" y1="909.63" x2="157.17" y2="296.8" xlink:href="#linear-gradient-24"/><linearGradient id="linear-gradient-37" x1="108.61" y1="905.54" x2="205.73" y2="905.54" xlink:href="#linear-gradient-24"/><linearGradient id="linear-gradient-38" x1="108.61" y1="314.96" x2="205.73" y2="314.96" xlink:href="#linear-gradient-26"/><linearGradient id="linear-gradient-39" x1="113.49" y1="330.34" x2="200.85" y2="330.34" xlink:href="#linear-gradient-26"/><linearGradient id="linear-gradient-40" x1="113.49" y1="889.63" x2="200.85" y2="889.63" xlink:href="#linear-gradient-24"/><linearGradient id="linear-gradient-41" x1="114.68" y1="1020.4" x2="211.79" y2="1020.4" xlink:href="#linear-gradient-26"/><linearGradient id="linear-gradient-42" x1="698.34" y1="376.45" x2="698.34" y2="335.44" xlink:href="#linear-gradient-24"/><linearGradient id="linear-gradient-43" x1="698.33" y1="232.53" x2="698.33" y2="355.74" xlink:href="#linear-gradient-24"/><linearGradient id="linear-gradient-44" x1="226.99" y1="616.89" x2="739.47" y2="616.89" gradientUnits="userSpaceOnUse"><stop offset="0" stop-color="#fff"/><stop offset="1" stop-color="#6ecaf1"/></linearGradient><linearGradient id="linear-gradient-45" x1="536.49" y1="730.47" x2="745.53" y2="730.47" xlink:href="#linear-gradient-44"/><linearGradient id="linear-gradient-46" x1="244.91" y1="433.64" x2="244.91" y2="467.63" gradientUnits="userSpaceOnUse"><stop offset="0" stop-color="#fefbee"/><stop offset="0.23" stop-color="#fefae9"/><stop offset="0.51" stop-color="#fcf5db"/><stop offset="0.8" stop-color="#faeec4"/><stop offset="1" stop-color="#f8e8af"/></linearGradient><linearGradient id="linear-gradient-47" x1="305.84" y1="433.64" x2="305.84" y2="467.63" xlink:href="#linear-gradient-46"/><linearGradient id="linear-gradient-48" x1="371.03" y1="433.64" x2="371.03" y2="467.63" xlink:href="#linear-gradient-46"/><linearGradient id="linear-gradient-49" x1="441.28" y1="433.64" x2="441.28" y2="467.63" xlink:href="#linear-gradient-46"/><linearGradient id="linear-gradient-50" x1="507.3" y1="433.64" x2="507.3" y2="467.63" xlink:href="#linear-gradient-46"/><linearGradient id="linear-gradient-51" x1="580.28" y1="433.64" x2="580.28" y2="467.63" xlink:href="#linear-gradient-46"/><linearGradient id="linear-gradient-52" x1="715.68" y1="433.64" x2="715.68" y2="467.63" xlink:href="#linear-gradient-46"/><linearGradient id="linear-gradient-53" x1="650.76" y1="433.64" x2="650.76" y2="467.63" xlink:href="#linear-gradient-46"/><linearGradient id="linear-gradient-54" x1="777.31" y1="433.64" x2="777.31" y2="467.63" xlink:href="#linear-gradient-46"/><linearGradient id="linear-gradient-55" x1="933.68" y1="577.23" x2="1110.62" y2="577.23" gradientUnits="userSpaceOnUse"><stop offset="0" stop-color="#fff"/><stop offset="1" stop-color="#70c9ee"/></linearGradient><linearGradient id="linear-gradient-56" x1="491.35" y1="1309.51" x2="231.5" y2="1433.17" gradientTransform="matrix(0, 1, 1, 0, -330.88, 209.95)" xlink:href="#linear-gradient-55"/><linearGradient id="linear-gradient-57" x1="520.84" y1="1321.32" x2="255.41" y2="1447.62" gradientTransform="matrix(0, 1, 1, 0, -330.88, 209.95)" xlink:href="#linear-gradient-55"/><linearGradient id="linear-gradient-58" x1="488.19" y1="1210.34" x2="228.41" y2="1333.95" gradientTransform="matrix(0, 1, 1, 0, -330.88, 209.95)" xlink:href="#linear-gradient-55"/><linearGradient id="linear-gradient-59" x1="520.8" y1="1228.55" x2="255.39" y2="1354.84" gradientTransform="matrix(0, 1, 1, 0, -330.88, 209.95)" xlink:href="#linear-gradient-55"/><radialGradient id="Super_Soft_Black_Vignette" cx="350.15" cy="972.16" r="46.44" gradientUnits="userSpaceOnUse"><stop offset="0.57" stop-color="#161412"/><stop offset="0.8" stop-color="#161412"/><stop offset="1" stop-color="#161412"/></radialGradient><radialGradient id="Super_Soft_Black_Vignette-2" cx="436.75" cy="972.16" r="46.53" xlink:href="#Super_Soft_Black_Vignette"/><radialGradient id="Super_Soft_Black_Vignette-3" cx="344.96" cy="985.7" r="46.53" xlink:href="#Super_Soft_Black_Vignette"/><radialGradient id="Super_Soft_Black_Vignette-4" cx="441.03" cy="985.7" r="46.53" xlink:href="#Super_Soft_Black_Vignette"/><radialGradient id="Super_Soft_Black_Vignette-5" cx="393.49" cy="916.03" r="39.94" xlink:href="#Super_Soft_Black_Vignette"/><radialGradient id="Super_Soft_Black_Vignette-6" cx="5172.17" cy="972.16" r="46.44" gradientTransform="matrix(-1, 0, 0, 1, 5394.69, 0)" xlink:href="#Super_Soft_Black_Vignette"/><radialGradient id="Super_Soft_Black_Vignette-7" cx="5258.76" cy="972.16" r="46.53" gradientTransform="matrix(-1, 0, 0, 1, 5394.69, 0)" xlink:href="#Super_Soft_Black_Vignette"/><radialGradient id="Super_Soft_Black_Vignette-8" cx="5166.97" cy="985.7" r="46.53" gradientTransform="matrix(-1, 0, 0, 1, 5394.69, 0)" xlink:href="#Super_Soft_Black_Vignette"/><radialGradient id="Super_Soft_Black_Vignette-9" cx="5263.04" cy="985.7" r="46.53" gradientTransform="matrix(-1, 0, 0, 1, 5394.69, 0)" xlink:href="#Super_Soft_Black_Vignette"/><radialGradient id="Super_Soft_Black_Vignette-10" cx="5215.51" cy="916.03" r="39.94" gradientTransform="matrix(-1, 0, 0, 1, 5394.69, 0)" xlink:href="#Super_Soft_Black_Vignette"/><radialGradient id="Super_Soft_Black_Vignette-11" cx="864.91" cy="972.16" r="46.44" xlink:href="#Super_Soft_Black_Vignette"/><radialGradient id="Super_Soft_Black_Vignette-12" cx="951.51" cy="972.16" r="46.53" xlink:href="#Super_Soft_Black_Vignette"/><radialGradient id="Super_Soft_Black_Vignette-13" cx="859.72" cy="985.7" r="46.53" xlink:href="#Super_Soft_Black_Vignette"/><radialGradient id="Super_Soft_Black_Vignette-14" cx="955.79" cy="985.7" r="46.53" xlink:href="#Super_Soft_Black_Vignette"/><radialGradient id="Super_Soft_Black_Vignette-15" cx="908.25" cy="916.03" r="39.94" xlink:href="#Super_Soft_Black_Vignette"/><radialGradient id="Super_Soft_Black_Vignette-16" cx="4657.41" cy="972.16" r="46.44" gradientTransform="matrix(-1, 0, 0, 1, 5394.69, 0)" xlink:href="#Super_Soft_Black_Vignette"/><radialGradient id="Super_Soft_Black_Vignette-17" cx="4744.01" cy="972.16" r="46.53" gradientTransform="matrix(-1, 0, 0, 1, 5394.69, 0)" xlink:href="#Super_Soft_Black_Vignette"/><radialGradient id="Super_Soft_Black_Vignette-18" cx="4652.22" cy="985.7" r="46.53" gradientTransform="matrix(-1, 0, 0, 1, 5394.69, 0)" xlink:href="#Super_Soft_Black_Vignette"/><radialGradient id="Super_Soft_Black_Vignette-19" cx="4748.28" cy="985.7" r="46.53" gradientTransform="matrix(-1, 0, 0, 1, 5394.69, 0)" xlink:href="#Super_Soft_Black_Vignette"/><radialGradient id="Super_Soft_Black_Vignette-20" cx="4700.75" cy="916.03" r="39.94" gradientTransform="matrix(-1, 0, 0, 1, 5394.69, 0)" xlink:href="#Super_Soft_Black_Vignette"/><linearGradient id="linear-gradient-60" x1="136.31" y1="143.11" x2="1240.87" y2="143.11" xlink:href="#linear-gradient-24"/><linearGradient id="linear-gradient-61" x1="171.29" y1="144.6" x2="1204.21" y2="144.6" xlink:href="#linear-gradient"/></defs><g class="cls-1"><g id="Capa_3" data-name="Capa 3"><path class="cls-2" d="M1341.12,1188.52c-11.8,39.24-31.19,78.2-64.55,101.44-90.9,63.34-236.4-2.9-327.5-35-52.6-18.56-99.67-49.94-147.91-78.17-64.4-37.67-136.31-70.27-209.06-83.83l-2.18-.41q-8.13-1.46-16.26-2.6-14-2-28-2.92c-2.25-.14-4.51-.28-6.75-.38h-.27c-.7,0-1.41-.06-2.11-.09-30.57-1.24-61,1.51-90.74,9.28l-2.48.65q-12.18,3.3-24.21,7.76c-101,37.5-194.85,43.1-276.93-27.29-48.4-41.51-55.19-84-56.62-95.38-2-15.85,3.7-45.41,10.82-70.3,2.33-8.16,4.82-15.8,7.24-22.3,1.57-4.28,3.13-8.06,4.59-11.17,29-61.56,38.22-100.77,49.08-168.09,2.81-17.42-.48-38.84-7.42-62.11-.11-.37-.23-.75-.34-1.13-.17-.57-.35-1.12-.52-1.69-20.43-66.16-69.18-146.25-90.83-191-8.49-17.59-27.34-65.73-34-84.11C9,327.46,9.1,271.84,49.69,207.65c20.25-32,69.33-61.39,104.54-79.56,59.13-30.51,170.38-1.46,229.16,19.45q11,3.9,21.77,8.63c53.89,23.57,108.62,54.93,169.15,53.46,46.29-1.13,82.51-36.31,126.24-49,102.19-29.65,221.87.63,293.28,81.82,18.32,20.84,33.54,44.28,47.44,68.36,42.41,73.44,156,115.29,177.75,197.49,9.78,36.93,6.48,74.31,0,111.17-7.39,41.94-18.89,83.19-20,122.27,0,.58,0,1.15,0,1.73s0,1.16,0,1.73q0,3.24,0,6.45c.52,24.91,5.88,48.88,20,71.52,15.67,25.15,48.84,65.62,65.51,90.08C1327.31,976.05,1379,1062.5,1341.12,1188.52Z" transform="translate(-6.07 -114.87)"/></g><g id="Capa_4" data-name="Capa 4"><polygon class="cls-3" points="104.08 855.03 0 912.35 1388.41 912.35 1288.54 855.03 104.08 855.03"/><polygon class="cls-4" points="1285.24 711.27 110.41 711.27 110.45 737.79 1285.21 737.79 1285.24 711.27"/><polygon class="cls-5" points="110.54 817.36 1285.12 817.36 1285.14 790.85 110.51 790.85 110.54 817.36"/><polygon class="cls-6" points="110.56 843.88 1285.09 843.88 1285.12 817.36 110.54 817.36 110.56 843.88"/><polygon class="cls-7" points="110.51 790.85 1285.14 790.85 1285.18 764.32 110.48 764.32 110.51 790.85"/><polygon class="cls-8" points="1285.27 684.73 110.4 684.73 110.41 711.27 1285.24 711.27 1285.27 684.73"/><polygon class="cls-9" points="110.45 737.79 110.48 764.32 1285.18 764.32 1285.21 737.79 110.45 737.79"/><polygon class="cls-10" points="110.59 870.39 1285.07 870.39 1285.09 843.88 110.56 843.88 110.59 870.39"/><polygon class="cls-11" points="110.62 896.9 1285.04 896.9 1285.07 870.39 110.59 870.39 110.62 896.9"/><polygon class="cls-12" points="110.2 498.89 1285.46 498.89 1285.49 472.33 110.17 472.33 110.2 498.89"/><polygon class="cls-13" points="110.17 472.33 1285.49 472.33 1285.5 445.76 110.14 445.76 110.17 472.33"/><polygon class="cls-14" points="110.22 525.45 1285.43 525.45 1285.46 498.89 110.2 498.89 110.22 525.45"/><polygon class="cls-15" points="110.14 445.76 1285.5 445.76 1285.54 419.19 110.11 419.19 110.14 445.76"/><polygon class="cls-16" points="110.11 419.19 1285.54 419.19 1285.56 392.62 110.08 392.62 110.11 419.19"/><polygon class="cls-17" points="110.08 392.62 1285.56 392.62 1285.6 366.03 110.06 366.03 110.08 392.62"/><polygon class="cls-18" points="110.27 578.56 1285.38 578.56 1285.39 552 110.25 552 110.27 578.56"/><polygon class="cls-19" points="110.06 366.03 1285.6 366.03 1285.62 339.45 110.03 339.45 110.06 366.03"/><polygon class="cls-20" points="110.4 684.73 1285.27 684.73 1285.29 658.2 110.36 658.2 110.4 684.73"/><polygon class="cls-21" points="110.36 658.2 1285.29 658.2 1285.32 631.65 110.33 631.65 110.36 658.2"/><polygon class="cls-22" points="110.31 605.11 1285.34 605.11 1285.38 578.56 110.27 578.56 110.31 605.11"/><polygon class="cls-23" points="110.25 552 1285.39 552 1285.43 525.45 110.22 525.45 110.25 552"/><polygon class="cls-24" points="110.33 631.65 1285.32 631.65 1285.34 605.11 110.31 605.11 110.33 631.65"/><polygon class="cls-25" points="110.03 339.45 1285.62 339.45 1285.65 312.87 110 312.87 110.03 339.45"/><polygon class="cls-26" points="110 312.87 1285.65 312.87 1285.67 286.28 109.98 286.28 110 312.87"/><polygon class="cls-27" points="1285.24 711.27 110.41 711.27 110.43 717.76 1285.23 717.76 1285.24 711.27"/><rect class="cls-27" x="110.51" y="790.84" width="1174.63" height="6.49"/><polygon class="cls-27" points="110.54 823.85 1285.11 823.85 1285.12 817.36 110.54 817.36 110.54 823.85"/><polygon class="cls-27" points="110.48 764.32 110.48 770.82 1285.17 770.82 1285.18 764.32 110.48 764.32"/><polygon class="cls-27" points="1285.27 684.73 110.4 684.73 110.4 691.23 1285.25 691.23 1285.27 684.73"/><polygon class="cls-27" points="1285.21 737.79 110.45 737.79 110.46 744.29 1285.2 744.29 1285.21 737.79"/><rect class="cls-27" x="110.56" y="843.88" width="1174.53" height="6.49"/><rect class="cls-27" x="110.59" y="870.39" width="1174.48" height="6.49"/><polygon class="cls-27" points="110.17 478.83 1285.49 478.83 1285.49 472.33 110.17 472.33 110.17 478.83"/><polygon class="cls-27" points="110.15 452.26 1285.51 452.26 1285.5 445.76 110.14 445.76 110.15 452.26"/><rect class="cls-27" x="110.2" y="498.89" width="1175.26" height="6.49"/><polygon class="cls-27" points="110.13 425.7 1285.54 425.7 1285.54 419.19 110.11 419.19 110.13 425.7"/><rect class="cls-27" x="110.09" y="392.62" width="1175.47" height="6.51"/><polygon class="cls-27" points="110.06 372.55 1285.58 372.55 1285.6 366.03 110.06 366.03 110.06 372.55"/><rect class="cls-27" x="110.26" y="552" width="1175.14" height="6.5"/><rect class="cls-27" x="110.03" y="339.45" width="1175.59" height="6.51"/><polygon class="cls-27" points="110.38 664.69 1285.29 664.69 1285.29 658.2 110.36 658.2 110.38 664.69"/><polygon class="cls-27" points="110.35 638.15 1285.32 638.15 1285.32 631.65 110.33 631.65 110.35 638.15"/><polygon class="cls-27" points="110.29 585.06 1285.36 585.06 1285.38 578.56 110.27 578.56 110.29 585.06"/><polygon class="cls-27" points="110.24 531.95 1285.41 531.95 1285.43 525.45 110.22 525.45 110.24 531.95"/><polygon class="cls-27" points="110.32 611.61 1285.33 611.61 1285.34 605.11 110.31 605.11 110.32 611.61"/><rect class="cls-27" x="110" y="312.87" width="1175.65" height="6.52"/><rect class="cls-27" x="109.98" y="286.28" width="1175.7" height="6.51"/><path class="cls-28" d="M1184.9,1010.06h-3.83l-.26.14h4.09Z" transform="translate(-6.07 -114.87)"/><rect class="cls-29" x="1178.84" y="318.3" width="69.38" height="584.28"/><rect class="cls-30" x="1164.96" y="895.33" width="97.13" height="20.41"/><rect class="cls-31" x="1164.96" y="305.13" width="97.13" height="19.66"/><rect class="cls-32" x="1169.84" y="324.79" width="87.36" height="11.11"/><rect class="cls-33" x="1169.84" y="884.08" width="87.36" height="11.11"/><path class="cls-34" d="M1180.81,1010.2H1171v20.41h97.12v-10.2s-46.4-.66-73.36-2.22C1170.14,1016.77,1179.09,1011.16,1180.81,1010.2Z" transform="translate(-6.07 -114.87)"/><path class="cls-28" d="M805.23,1010.06h-3.82l-.27.14h4.09Z" transform="translate(-6.07 -114.87)"/><rect class="cls-35" x="799.16" y="318.3" width="69.38" height="584.28"/><rect class="cls-36" x="785.29" y="895.33" width="97.12" height="20.41"/><rect class="cls-37" x="785.29" y="305.13" width="97.12" height="19.66"/><rect class="cls-38" x="790.17" y="324.79" width="87.36" height="11.11"/><rect class="cls-39" x="790.17" y="884.08" width="87.36" height="11.11"/><path class="cls-40" d="M801.14,1010.2h-9.78v20.41h97.12v-10.2s-46.4-.66-73.36-2.22C790.47,1016.77,799.42,1011.16,801.14,1010.2Z" transform="translate(-6.07 -114.87)"/><path class="cls-28" d="M128.54,1010.06h-3.82l-.27.14h4.09Z" transform="translate(-6.07 -114.87)"/><rect class="cls-41" x="122.48" y="318.3" width="69.38" height="584.28"/><rect class="cls-42" x="108.61" y="895.33" width="97.12" height="20.41"/><rect class="cls-43" x="108.61" y="305.13" width="97.12" height="19.66"/><rect class="cls-44" x="113.49" y="324.79" width="87.36" height="11.11"/><rect class="cls-45" x="113.49" y="884.08" width="87.36" height="11.11"/><path class="cls-46" d="M124.45,1010.2h-9.77v20.41h97.11v-10.2s-46.39-.66-73.36-2.22C113.79,1016.77,122.73,1011.16,124.45,1010.2Z" transform="translate(-6.07 -114.87)"/><rect class="cls-47" x="112" y="358.06" width="1172.79" height="47.41"/><rect class="cls-47" x="112" y="358.06" width="1172.79" height="18.06"/><rect class="cls-48" x="60.95" y="334.76" width="1274.78" height="22.82"/><rect class="cls-49" x="37.96" y="246.82" width="1320.74" height="87.94"/><g class="cls-50"><rect class="cls-51" x="211.36" y="447.95" width="543.74" height="337.89"/></g><rect class="cls-52" x="226.99" y="457.65" width="512.48" height="318.48"/><path class="cls-53" d="M746,890.36H238.61c-6.13,0-4.33.75-4.33-5.56V578.06c0-6.87-3.27-4.9,3.35-4.9h507c-.61,0-.31,11.34-.31,13.9V891.33c0,.66,2.45.22,2.45-.66V572.19c0-.27-.57-.3-.73-.3H233.55c-.54,0-1.73.26-1.73,1V891.33c0,.27.58.3.74.3H745.05C745.88,891.63,747.69,890.36,746,890.36Z" transform="translate(-6.07 -114.87)"/><g class="cls-54"><path class="cls-55" d="M233.06,572.52V891H745.53V572.52ZM712.21,870.28H266.39v-277H712.21Z" transform="translate(-6.07 -114.87)"/></g><g class="cls-56"><polygon class="cls-57" points="333.83 457.65 226.99 541.55 226.99 617.7 430.77 457.65 333.83 457.65"/><polygon class="cls-57" points="739.47 457.65 614.46 457.65 226.99 761.94 226.99 776.13 417.63 776.13 739.47 523.38 739.47 457.65"/><polygon class="cls-57" points="739.47 670.78 605.33 776.13 685.68 776.13 739.47 733.88 739.47 670.78"/></g><g class="cls-58"><path class="cls-59" d="M745.53,569.94h-17C706.2,678.6,653.18,799.29,536.49,891h209Z" transform="translate(-6.07 -114.87)"/></g><polygon class="cls-3" points="225.5 335.5 169.51 441.48 169.51 495.21 814.98 495.21 814.98 436.86 225.5 335.5"/><polygon class="cls-60" points="812.08 433.64 199.42 433.64 222.28 332.28 794.94 332.28 812.08 433.64"/><polygon class="cls-61" points="812.08 433.64 199.42 433.64 222.28 332.28 794.94 332.28 812.08 433.64"/><path class="cls-62" d="M818.18,549.6H205.49a1.1,1.1,0,0,1-.86-.41,1.07,1.07,0,0,1-.21-.93L227.28,446.9a1.07,1.07,0,0,1,1.06-.85H801a1.08,1.08,0,0,1,1.07.91L819.2,548.1a1.15,1.15,0,0,1,.08.41A1.1,1.1,0,0,1,818.18,549.6Zm-611.33-2.19h610l-16.78-99.17H229.23Z" transform="translate(-6.07 -114.87)"/><rect class="cls-61" x="199.42" y="433.64" width="612.66" height="33.99"/><polygon class="cls-63" points="360.38 332.28 352.93 433.64 388.85 433.64 392.58 332.28 360.38 332.28"/><polygon class="cls-63" points="304.06 332.28 291.94 433.64 320.4 433.64 332.51 332.28 304.06 332.28"/><rect class="cls-63" x="424.77" y="332.28" width="33.01" height="101.37"/><polygon class="cls-63" points="246.69 332.28 227.81 433.64 261.98 433.64 274.56 332.28 246.69 332.28"/><polygon class="cls-63" points="685.37 332.28 696.26 433.64 734.41 433.64 721.83 332.28 685.37 332.28"/><polygon class="cls-63" points="775.8 332.28 747.34 332.28 763.33 433.64 791.78 433.64 775.8 332.28"/><rect class="cls-63" x="490.8" y="332.28" width="33.01" height="101.37"/><polygon class="cls-63" points="559.31 332.28 562.15 433.64 598.28 433.64 593.45 332.28 559.31 332.28"/><polygon class="cls-63" points="625.76 332.28 633.22 433.64 668.02 433.64 655.91 332.28 625.76 332.28"/><rect class="cls-64" x="227.81" y="433.64" width="34.22" height="33.99"/><rect class="cls-65" x="291.94" y="433.64" width="27.8" height="33.99"/><rect class="cls-66" x="352.93" y="433.64" width="36.21" height="33.99"/><rect class="cls-67" x="424.77" y="433.64" width="33.01" height="33.99"/><rect class="cls-68" x="490.8" y="433.64" width="33.01" height="33.99"/><rect class="cls-69" x="562.29" y="433.64" width="35.99" height="33.99"/><rect class="cls-70" x="696.95" y="433.64" width="37.46" height="33.99"/><rect class="cls-71" x="633.5" y="433.64" width="34.52" height="33.99"/><rect class="cls-72" x="763.54" y="433.64" width="27.55" height="33.99"/><g class="cls-58"><path class="cls-73" d="M205.49,548.51H818.15L801,447.14h-5.45c-30.91,31.62-111.24,88.08-290.73,88.08-191.15,0-254.29-60.07-273.34-88.08h-3.15Z" transform="translate(-6.07 -114.87)"/></g><path class="cls-74" d="M281.27,455.54H730.53s-52.78,56.16-206.66,65.15S308.22,489.23,281.27,455.54Z" transform="translate(-6.07 -114.87)"/><rect class="cls-3" x="889.91" y="382.96" width="269.37" height="512.23"/><rect class="cls-61" x="898.3" y="390.26" width="250.41" height="505.76"/><rect class="cls-75" x="933.68" y="425.24" width="176.94" height="303.99"/><path class="cls-76" d="M1116.68,847.25H939.74c-1.25,0-2.26-1.42-2.26-3.16v-304c0-1.75,1-3.16,2.26-3.16h176.94c1.24,0,2.27,1.41,2.27,3.16v304C1119,845.83,1117.92,847.25,1116.68,847.25ZM942,840.94h172.4V543.25H942Z" transform="translate(-6.07 -114.87)"/><polygon class="cls-77" points="1066.12 425.4 986.13 730.78 1008.4 730.78 1085.71 425.4 1066.12 425.4"/><polygon class="cls-78" points="1099.87 425.4 1019.63 730.78 1026.32 730.78 1106.4 425.4 1099.87 425.4"/><polygon class="cls-79" points="973.37 425.4 933.68 576.92 933.68 659.58 992.96 425.4 973.37 425.4"/><polygon class="cls-80" points="1007.13 425.4 933.68 704.94 933.68 730.4 1013.66 425.4 1007.13 425.4"/><rect class="cls-81" x="933.68" y="759.62" width="176.94" height="98.56"/><path class="cls-82" d="M956.55,928.26v16.07c13.31,0,12.82,16.56,12.82,16.56h117.77s-.5-16.56,12.81-16.56v-39c-13.31,0-12.81-16.55-12.81-16.55H969.37s.49,16.55-12.82,16.55v22.89Z" transform="translate(-6.07 -114.87)"/><polygon class="cls-3" points="456.05 945.78 500.58 903.92 154.2 903.92 73.24 945.78 456.05 945.78"/><polygon class="cls-83" points="341.7 749.39 351.21 923.99 359.84 923.92 366.03 749.39 341.7 749.39"/><path class="cls-84" d="M357.28,1039.43a.59.59,0,0,1-.63-.54l-9.51-174.6a.59.59,0,0,1,.17-.43.71.71,0,0,1,.46-.17H372.1a.64.64,0,0,1,.46.17.6.6,0,0,1,.18.42l-6.2,174.53a.6.6,0,0,1-.62.56l-8.64.06Zm-8.84-174.59,9.44,173.44,7.41-.07,6.15-173.37Z" transform="translate(-6.07 -114.87)"/><path class="cls-85" d="M353.15,864.26c6,13,7.77,27.31,8.28,41.3.63,17.35.43,34.75.75,52.11.32,18,.58,35.94-.3,53.88-.44,8.84-1.17,18.15-.61,27.28l4.64,0,6.19-174.53Z" transform="translate(-6.07 -114.87)"/><polygon class="cls-84" points="338.38 747.95 340.43 750.84 366.68 750.84 369.37 747.95 338.38 747.95"/><path class="cls-84" d="M372.74,866.29H346.49A.65.65,0,0,1,346,866l-2-2.89a.57.57,0,0,1,0-.6.65.65,0,0,1,.55-.3h31a.65.65,0,0,1,.58.34.55.55,0,0,1-.1.62l-2.69,2.89A.65.65,0,0,1,372.74,866.29Zm-25.91-1.16h25.62l1.61-1.74H345.61Z" transform="translate(-6.07 -114.87)"/><rect class="cls-86" x="337.35" y="742.07" width="32.02" height="5.88"/><path class="cls-84" d="M375.43,863.39h-32a.61.61,0,0,1-.63-.58v-5.87a.61.61,0,0,1,.63-.58h32a.61.61,0,0,1,.63.58v5.87A.61.61,0,0,1,375.43,863.39Zm-31.37-1.16h30.73v-4.71H344.06Z" transform="translate(-6.07 -114.87)"/><path class="cls-87" d="M350.13,872.72l9.29,155.36S358.76,900.23,350.13,872.72Z" transform="translate(-6.07 -114.87)"/><rect class="cls-84" x="346" y="873.35" width="20.03" height="8.56"/><path class="cls-83" d="M372.1,997.35h-20a.6.6,0,0,1-.64-.57v-8.56a.6.6,0,0,1,.64-.57h20a.61.61,0,0,1,.64.57v8.56A.61.61,0,0,1,372.1,997.35Zm-19.39-1.15h18.76v-7.4H352.71Z" transform="translate(-6.07 -114.87)"/><polygon class="cls-83" points="185.48 749.39 194.98 923.99 203.61 923.92 209.8 749.39 185.48 749.39"/><path class="cls-84" d="M201,1039.43a.6.6,0,0,1-.63-.54l-9.51-174.6a.56.56,0,0,1,.18-.43.67.67,0,0,1,.46-.17h24.32a.63.63,0,0,1,.46.17.53.53,0,0,1,.18.42l-6.2,174.53a.59.59,0,0,1-.62.56l-8.64.06ZM192.2,864.84l9.45,173.44,7.41-.07,6.15-173.37Z" transform="translate(-6.07 -114.87)"/><path class="cls-85" d="M196.91,864.26c6,13,7.77,27.31,8.28,41.3.63,17.35.44,34.75.75,52.11.33,18,.58,35.94-.3,53.88-.43,8.84-1.16,18.15-.6,27.28l4.63,0,6.19-174.53Z" transform="translate(-6.07 -114.87)"/><polygon class="cls-84" points="182.15 747.95 184.19 750.84 210.44 750.84 213.13 747.95 182.15 747.95"/><path class="cls-84" d="M216.51,866.29H190.26a.64.64,0,0,1-.54-.27l-2-2.89a.57.57,0,0,1,0-.6.66.66,0,0,1,.56-.3h31a.64.64,0,0,1,.57.34.55.55,0,0,1-.09.62L217,866.08A.65.65,0,0,1,216.51,866.29Zm-25.91-1.16h25.61l1.61-1.74H189.38Z" transform="translate(-6.07 -114.87)"/><rect class="cls-86" x="181.12" y="742.07" width="32.01" height="5.88"/><path class="cls-84" d="M219.2,863.39h-32a.61.61,0,0,1-.63-.58v-5.87a.61.61,0,0,1,.63-.58h32a.61.61,0,0,1,.63.58v5.87A.61.61,0,0,1,219.2,863.39Zm-31.38-1.16h30.74v-4.71H187.82Z" transform="translate(-6.07 -114.87)"/><path class="cls-87" d="M193.89,872.72l9.3,155.36S202.52,900.23,193.89,872.72Z" transform="translate(-6.07 -114.87)"/><rect class="cls-84" x="189.77" y="873.35" width="20.03" height="8.56"/><path class="cls-83" d="M215.86,997.35h-20a.6.6,0,0,1-.63-.57v-8.56a.6.6,0,0,1,.63-.57h20a.61.61,0,0,1,.64.57v8.56A.61.61,0,0,1,215.86,997.35Zm-19.39-1.15h18.76v-7.4H196.47Z" transform="translate(-6.07 -114.87)"/><path class="cls-88" d="M462,764.58c.18-2.36,3.27-.66,2.23-3.08-.94-7.19-7-7.35-9.15-7.19a5.9,5.9,0,0,0-1.86.45c-3.31,2.72-2.59,7.7-3.05,12.13l-.06.53c.06.74.11,1.49.17,2.22l-8.53,141.43c1.13,1.33,3.24,1.82,4.49.18a6.75,6.75,0,0,0,.56-.93l15.13-145.56A1.34,1.34,0,0,0,462,764.58Z" transform="translate(-6.07 -114.87)"/><path class="cls-83" d="M444.23,912.92a4,4,0,0,1-3-1.43.65.65,0,0,1-.15-.45l8.52-141.44c0-.65-.11-1.39-.16-2.14l.05-.65c.11-1,.16-2,.2-3,.15-3.56.31-7.24,3.09-9.52a.38.38,0,0,1,.15-.09,6,6,0,0,1,2.07-.51c.26,0,.57,0,.92,0,2.36,0,7.94.75,8.89,7.68a2,2,0,0,1,.1,1.56,1.77,1.77,0,0,1-1.3.81c-.67.18-1,.28-1,.93a1,1,0,0,1,0,.18L447.44,910.39a.48.48,0,0,1-.07.23,6.23,6.23,0,0,1-.62,1A3.09,3.09,0,0,1,444.23,912.92Zm-1.82-2.08a2.18,2.18,0,0,0,3.33,0,5.51,5.51,0,0,0,.45-.73l15.12-145.45a.94.94,0,0,1,0-.16,2.25,2.25,0,0,1,2-2.07,2.22,2.22,0,0,0,.48-.16,2.05,2.05,0,0,0-.17-.56.42.42,0,0,1,0-.16c-.73-5.52-4.56-6.67-7.65-6.67-.31,0-.59,0-.82,0a4.87,4.87,0,0,0-1.58.37c-2.28,1.93-2.41,5.14-2.56,8.54-.05,1-.09,2.09-.2,3.1l-.06.54c.06.63.11,1.37.18,2.1Z" transform="translate(-6.07 -114.87)"/><polygon class="cls-89" points="344.66 922.27 339.62 922.27 337.61 792.31 346.17 792.31 344.66 922.27"/><path class="cls-90" d="M350.73,1037.78h-5.05a.63.63,0,0,1-.63-.63l-2-130a.64.64,0,0,1,.18-.45.67.67,0,0,1,.45-.19h8.56a.62.62,0,0,1,.45.19.59.59,0,0,1,.18.45l-1.5,130A.64.64,0,0,1,350.73,1037.78Zm-4.42-1.27h3.78l1.5-128.69h-7.27Z" transform="translate(-6.07 -114.87)"/><path class="cls-91" d="M348.86,907.18a286.09,286.09,0,0,0-.63,29.58c.17,11.87-.08,23.73-.14,35.6-.1,21.6.13,43.19.19,64.78h2.45l1.5-130Z" transform="translate(-6.07 -114.87)"/><path class="cls-92" d="M350.73,1037.78h-2.45a.64.64,0,0,1-.64-.63q0-10.83-.1-21.67c-.08-14.13-.15-28.74-.08-43.12,0-3.77.06-7.53.09-11.3.08-8,.16-16.19.05-24.29a287.7,287.7,0,0,1,.63-29.64.63.63,0,0,1,.63-.58h3.37a.62.62,0,0,1,.45.19.59.59,0,0,1,.18.45l-1.5,130A.64.64,0,0,1,350.73,1037.78Zm-1.81-1.27h1.17l1.5-128.69h-2.15c-.84,9.9-.7,20-.57,28.93.11,8.11,0,16.35-.05,24.32,0,3.77-.07,7.53-.09,11.29-.07,14.37,0,29,.09,43.12C348.85,1022.49,348.9,1029.5,348.92,1036.51Z" transform="translate(-6.07 -114.87)"/><polygon class="cls-87" points="339.69 794.64 341.37 794.64 341.37 915.49 339.69 794.64"/><polygon class="cls-91" points="433.45 922.27 428.41 922.27 426.41 792.31 434.96 792.31 433.45 922.27"/><path class="cls-93" d="M439.52,1037.78h-5a.63.63,0,0,1-.63-.63l-2-130a.65.65,0,0,1,.64-.64H441a.64.64,0,0,1,.46.19.63.63,0,0,1,.18.45l-1.51,130A.63.63,0,0,1,439.52,1037.78Zm-4.41-1.27h3.78l1.49-128.69h-7.26Z" transform="translate(-6.07 -114.87)"/><path class="cls-94" d="M437.65,907.18a288.91,288.91,0,0,0-.62,29.58c.17,11.87-.09,23.73-.14,35.6-.1,21.6.12,43.19.18,64.78h2.45l1.5-130Z" transform="translate(-6.07 -114.87)"/><polygon class="cls-87" points="428.49 794.64 430.16 794.64 430.16 915.49 428.49 794.64"/><polygon class="cls-95" points="344.58 887.57 343.19 899.08 339.42 898.63 340.81 887.11 344.58 887.57"/><path class="cls-83" d="M349.25,1014.58h-.07l-3.77-.45a.64.64,0,0,1-.55-.71l1.39-11.52a.62.62,0,0,1,.24-.42.64.64,0,0,1,.47-.14l3.77.46a.64.64,0,0,1,.55.71l-1.4,11.51a.59.59,0,0,1-.24.43A.58.58,0,0,1,349.25,1014.58Zm-3.06-1.64,2.51.31,1.24-10.26-2.5-.31Z" transform="translate(-6.07 -114.87)"/><polygon class="cls-87" points="341.84 887.24 340.45 898.75 339.93 898.69 341.33 887.17 341.84 887.24"/><polygon class="cls-83" points="344.58 887.57 343.19 899.08 341.31 898.85 342.7 887.34 344.58 887.57"/><rect class="cls-83" x="436.47" y="1002.16" width="3.8" height="11.6" transform="translate(-240.76 24.11) rotate(-14.25)"/><path class="cls-84" d="M438,1014.68a.64.64,0,0,1-.62-.47L434.48,1003a.68.68,0,0,1,.07-.48.61.61,0,0,1,.39-.28l3.69-.94a.65.65,0,0,1,.77.46l2.84,11.25a.56.56,0,0,1-.06.47.6.6,0,0,1-.39.29l-3.68.94Zm-2.08-11.42,2.54,10,2.45-.61-2.54-10Z" transform="translate(-6.07 -114.87)"/><polygon class="cls-87" points="430.04 887.68 432.89 898.93 432.39 899.05 429.53 887.81 430.04 887.68"/><polygon class="cls-94" points="432.71 887.01 435.57 898.25 433.73 898.72 430.88 887.47 432.71 887.01"/><polygon class="cls-91" points="341.66 935.81 336.62 935.81 334.62 805.85 343.17 805.85 341.66 935.81"/><path class="cls-96" d="M347.73,1051.31h-5.05a.64.64,0,0,1-.63-.63l-2-130a.63.63,0,0,1,.63-.65h8.56a.69.69,0,0,1,.45.18.72.72,0,0,1,.18.46l-1.51,130A.63.63,0,0,1,347.73,1051.31Zm-4.42-1.27h3.79l1.49-128.69h-7.26Z" transform="translate(-6.07 -114.87)"/><path class="cls-97" d="M345.87,920.71a291.86,291.86,0,0,0-.64,29.58c.18,11.87-.08,23.73-.13,35.6-.1,21.6.12,43.19.18,64.78h2.45l1.51-130Z" transform="translate(-6.07 -114.87)"/><polygon class="cls-87" points="336.7 808.18 338.37 808.18 338.37 929.02 336.7 808.18"/><polygon class="cls-91" points="437.73 935.81 432.69 935.81 430.68 805.85 439.24 805.85 437.73 935.81"/><path class="cls-98" d="M443.79,1051.31h-5a.63.63,0,0,1-.63-.63l-2-130a.63.63,0,0,1,.18-.46.67.67,0,0,1,.45-.19h8.56a.63.63,0,0,1,.64.64l-1.52,130A.63.63,0,0,1,443.79,1051.31Zm-4.41-1.27h3.79l1.49-128.69h-7.27Z" transform="translate(-6.07 -114.87)"/><path class="cls-97" d="M441.93,920.71a286.14,286.14,0,0,0-.62,29.58c.16,11.87-.09,23.73-.15,35.6-.1,21.6.13,43.19.19,64.78h2.44l1.51-130Z" transform="translate(-6.07 -114.87)"/><polygon class="cls-87" points="432.76 808.18 434.44 808.18 434.44 929.02 432.76 808.18"/><rect class="cls-83" x="339.58" y="801.19" width="94.26" height="10.56"/><path class="cls-84" d="M439.91,927.26H345.65a.64.64,0,0,1-.64-.64V916.06a.64.64,0,0,1,.64-.64h94.26a.64.64,0,0,1,.63.64v10.56A.64.64,0,0,1,439.91,927.26ZM346.28,926h93v-9.3h-93Z" transform="translate(-6.07 -114.87)"/><g class="cls-99"><rect class="cls-97" x="339.58" y="801.19" width="94.26" height="7.64"/></g><path class="cls-91" d="M343.32,911.38l-5.36.21v7.93s3,2.47,6.23,1.66h98.44s6.46,1.3,6.4-4.58l-.07-5.88Z" transform="translate(-6.07 -114.87)"/><path class="cls-100" d="M342.83,922h0a9.17,9.17,0,0,1-5.28-2,.62.62,0,0,1-.23-.49v-7.93a.63.63,0,0,1,.61-.63l5.36-.21L449,910.08h0a.64.64,0,0,1,.64.63l.06,5.88a5.16,5.16,0,0,1-1.34,3.85c-2.08,2.11-5.74,1.37-5.81,1.35l-98.32,0A5.13,5.13,0,0,1,342.83,922Zm-4.24-2.77a7.78,7.78,0,0,0,4.24,1.49h0a5.48,5.48,0,0,0,1.21-.14l98.59,0c.3,0,3.2.61,4.79-1a4,4,0,0,0,1-2.95l-.05-5.25-105,.67-4.73.19Z" transform="translate(-6.07 -114.87)"/><path class="cls-97" d="M449,910.72l-105.64.66-5.36.21v1.69c5.55,5.59,29.77,3.28,34.71,3.27,14.12,0,28.89-1.57,42.86.74,6,1,13.71,1.29,19.82,3.89h7.28s6.46,1.3,6.4-4.58Z" transform="translate(-6.07 -114.87)"/><g class="cls-101"><path class="cls-102" d="M340.1,917.66c-.2-.07.41,2.11,4.34,2h61.84C406.6,919.67,347.3,920.09,340.1,917.66Z" transform="translate(-6.07 -114.87)"/></g><path class="cls-91" d="M464.64,769.73c.18-2.36.64-5.81-.4-8.23-1.55-1.71-4.35-2.2-6.51-2a5.83,5.83,0,0,0-1.86.45c-3.31,2.72-2.59,7.7-3.06,12.13,0,.18,0,.35-.05.54.05.73.1,1.48.16,2.21l-8.53,141.43c1.14,1.33,3.25,1.82,4.49.18a6.75,6.75,0,0,0,.56-.93l15.14-145.56Z" transform="translate(-6.07 -114.87)"/><path class="cls-83" d="M446.86,918.08h0a4,4,0,0,1-2.95-1.44.68.68,0,0,1-.15-.45l8.53-141.43c-.06-.66-.12-1.4-.17-2.15l.06-.64c.1-1,.15-2,.19-3,.16-3.56.31-7.24,3.1-9.52a.71.71,0,0,1,.14-.1,6.54,6.54,0,0,1,2.07-.5c.27,0,.55,0,.83,0,1.24,0,4.34.21,6.2,2.27a.66.66,0,0,1,.12.17c1,2.28.72,5.26.52,7.65l-.07.88a1,1,0,0,1,0,.18L450.07,915.54a.79.79,0,0,1-.06.22,6.83,6.83,0,0,1-.62,1A3.15,3.15,0,0,1,446.86,918.08ZM445.05,916a2.17,2.17,0,0,0,3.32,0,5.58,5.58,0,0,0,.46-.73L464,769.84a.58.58,0,0,1,0-.18l.09-.87c.19-2.21.42-5-.38-6.94a7.26,7.26,0,0,0-5.19-1.78c-.25,0-.5,0-.73,0a4.75,4.75,0,0,0-1.57.37c-2.28,1.93-2.42,5.14-2.57,8.54,0,1-.09,2.09-.19,3.1l-.06.54c.05.63.11,1.37.16,2.1Z" transform="translate(-6.07 -114.87)"/><g class="cls-103"><path class="cls-97" d="M464.24,761.5c-1.55-1.71-4.35-2.2-6.51-2a5.83,5.83,0,0,0-1.86.45,6.61,6.61,0,0,0-2,3c5.39,7.78,2,20.81,2.09,29.33.22,15.44-1.28,30.71-2.46,46.09-1.14,14.9-1.62,29.86-3.5,44.69-1.46,11.35-3.3,22.66-4.55,34.05a2.58,2.58,0,0,0,3.43-.67,6.75,6.75,0,0,0,.56-.93l15.14-145.56.06-.18C464.82,767.37,465.28,763.92,464.24,761.5Z" transform="translate(-6.07 -114.87)"/></g><path class="cls-104" d="M447.23,912.18c.4-2.45-1.76-6-3.88-6.82-20.47-7.89-44-7.1-65.53-7-6,0-11.91.33-17.85.86-5.59.48-15.74,2.81-20.71,5.76-3.74,2.23-8.28,6.8-3.32,10a5.31,5.31,0,0,0,3.08,1.15c1.91-.1,3.9.09,5.92.06,8.05-.12,16.15-.5,24.23-.42,10.48.13,21,.11,31.46-.08q14-.24,28.07-.2c4.49,0,8.81.92,13.32.21,2-.31,4.21-.83,5.05-3A3.22,3.22,0,0,0,447.23,912.18Z" transform="translate(-6.07 -114.87)"/><path class="cls-105" d="M344.44,916.88c-.74,0-1.48,0-2.21,0-1.08,0-2.14-.07-3.18,0h-.16a6.13,6.13,0,0,1-3.3-1.25,4.58,4.58,0,0,1-2.46-4c.06-2.77,3-5.51,5.81-7.16,5.18-3.08,15.51-5.38,21-5.86,6.34-.55,12.19-.83,17.9-.85l4.81,0c2.74,0,5.51,0,8.29,0,16.56,0,35.64.55,52.66,7.11,2.47,1,4.72,4.88,4.28,7.51a3.41,3.41,0,0,1-.2.73c-.91,2.34-3.2,3-5.55,3.37a40.47,40.47,0,0,1-8.68,0c-1.55-.12-3.15-.23-4.74-.24H425c-8.69,0-16.66.07-24.35.2-10.22.19-20.93.22-31.49.09-5.23-.06-10.54.08-15.68.22q-4.26.12-8.54.2Zm-4.28-1.36c.69,0,1.4,0,2.12,0s1.44,0,2.16,0h.49c2.84,0,5.67-.11,8.52-.19,5.15-.14,10.49-.28,15.73-.22,10.54.12,21.24.1,31.44-.09,7.71-.13,15.68-.2,24.38-.2h3.7c1.62,0,3.25.12,4.83.24a39.76,39.76,0,0,0,8.39,0c1.83-.29,3.85-.75,4.55-2.58a2.43,2.43,0,0,0,.14-.48c.36-2.23-1.72-5.44-3.49-6.12-16.81-6.48-35.75-7-52.2-7-2.78,0-5.55,0-8.28,0l-4.82,0c-5.66,0-11.49.3-17.79.85-5.21.46-15.49,2.74-20.45,5.69-2.36,1.4-5.13,3.84-5.18,6.09a3.42,3.42,0,0,0,1.89,2.87,4.87,4.87,0,0,0,2.6,1C339.38,915.52,339.76,915.52,340.16,915.52Z" transform="translate(-6.07 -114.87)"/><path class="cls-106" d="M443.35,905.36c-1.79-.69-3.61-1.29-5.44-1.86.17,1.92-1.77,3.62-3.66,4-7.85,1.42-16,.93-24,1.19-8.72.27-17.44.61-26.16.86-9.25.27-18.47.09-27.72.15-4,0-7.95.35-11.94.52-2.35.09-5.31.26-7.4-1.11a4.17,4.17,0,0,1-1.35-1.27c-2.13,2.26-3.1,5,.24,7.23a5.31,5.31,0,0,0,3.08,1.15c1.91-.1,3.9.09,5.92.06,8.05-.12,16.15-.5,24.23-.42,10.48.13,21,.11,31.46-.08q14-.24,28.07-.2c4.49,0,8.81.92,13.32.21,2-.31,4.21-.83,5.05-3a3.22,3.22,0,0,0,.16-.61C447.63,909.73,445.47,906.18,443.35,905.36Z" transform="translate(-6.07 -114.87)"/><path class="cls-107" d="M410.91,902.33h0c3.79-.28,7.84.37,11.76.43-15.32-2.48-31.4-2.1-46.53-2-6,0-11.91.34-17.83.86a71,71,0,0,0-16.07,3.66c1.18,0,2.5-.21,3-.27,2.59-.3,5.15-.68,7.75-.89,8.82-.71,17.68-.84,26.53-1.09,9.95-.28,19.92-.76,29.88-.68C409.92,902.31,410.41,902.33,410.91,902.33Z" transform="translate(-6.07 -114.87)"/><path class="cls-104" d="M453.1,767.05s-.9-8.4-4.07-3.88-8.52,140.33-8.52,140.33l4.51,2.44Z" transform="translate(-6.07 -114.87)"/><path class="cls-105" d="M445,906.57a.75.75,0,0,1-.31-.08l-4.51-2.43a.65.65,0,0,1-.33-.58c.55-13.93,5.46-136.13,8.64-140.68.76-1.08,1.49-1.6,2.24-1.6,2.19,0,2.84,4.42,3,5.78l-8.09,139a.63.63,0,0,1-.32.53A.68.68,0,0,1,445,906.57Zm-3.86-3.44,3.28,1.77,8-137.89c-.24-2.08-1-4.55-1.72-4.55-.11,0-.51.08-1.2,1.07C447.31,766.76,443.31,848.63,441.16,903.13Z" transform="translate(-6.07 -114.87)"/><path class="cls-106" d="M449.78,762.32c.61,10.8,1.08,21.51.66,32.46-.58,14.68-1.77,29.34-3,44-1.3,14.83-1.73,29.82-3.67,44.58-.8,6.13.13,14.5-2.72,20.43l4,2.17,8.08-138.89S452.33,760,449.78,762.32Z" transform="translate(-6.07 -114.87)"/><path class="cls-107" d="M450.18,763.39s3.09,2-.93,42.84C449.25,806.23,452.06,771.88,450.18,763.39Z" transform="translate(-6.07 -114.87)"/><g class="cls-101"><path class="cls-102" d="M454.64,774.22,447.28,893S455.31,805.19,454.64,774.22Z" transform="translate(-6.07 -114.87)"/></g><path class="cls-88" d="M110.67,764.58c-.18-2.36-3.27-.66-2.23-3.08.93-7.19,7-7.35,9.13-7.19a5.9,5.9,0,0,1,1.87.45c3.31,2.72,2.59,7.7,3.06,12.13,0,.18,0,.35.06.53-.06.74-.11,1.49-.17,2.22l8.52,141.43c-1.13,1.33-3.24,1.82-4.48.18a6.81,6.81,0,0,1-.57-.93L110.74,764.76A1.34,1.34,0,0,1,110.67,764.58Z" transform="translate(-6.07 -114.87)"/><path class="cls-83" d="M125.92,911.63a8,8,0,0,1-.62-1,.46.46,0,0,1-.06-.23L110.07,764.8a1,1,0,0,1,0-.18c0-.65-.35-.75-1-.93a1.73,1.73,0,0,1-1.3-.81,1.92,1.92,0,0,1,.1-1.56c.94-6.93,6.52-7.68,8.88-7.68.35,0,.66,0,.92,0a6,6,0,0,1,2.08.51l.15.09c2.77,2.28,2.93,6,3.09,9.52,0,1,.08,2,.18,3l.06.65c0,.75-.1,1.49-.16,2.14L131.55,911a.65.65,0,0,1-.15.45,4,4,0,0,1-3,1.43A3.1,3.1,0,0,1,125.92,911.63Zm-4.17-142c.07-.73.12-1.47.17-2.1l0-.54c-.11-1-.16-2.06-.21-3.1-.14-3.4-.28-6.61-2.55-8.54a4.93,4.93,0,0,0-1.58-.37c-.23,0-.52,0-.83,0-3.08,0-6.92,1.15-7.64,6.67a.75.75,0,0,1,0,.16,2.5,2.5,0,0,0-.18.56,2.15,2.15,0,0,0,.49.16,2.25,2.25,0,0,1,2,2.07.45.45,0,0,1,0,.16l15.13,145.45a5.51,5.51,0,0,0,.45.73,2.18,2.18,0,0,0,3.33,0Z" transform="translate(-6.07 -114.87)"/><polygon class="cls-89" points="215.88 922.27 220.93 922.27 222.93 792.31 214.38 792.31 215.88 922.27"/><path class="cls-90" d="M221.32,1037.15l-1.51-130a.63.63,0,0,1,.18-.45.64.64,0,0,1,.46-.19H229a.65.65,0,0,1,.64.64l-2,130a.63.63,0,0,1-.63.63h-5A.64.64,0,0,1,221.32,1037.15Zm7-129.33h-7.27l1.49,128.69h3.79Z" transform="translate(-6.07 -114.87)"/><path class="cls-91" d="M223.82,907.18a286.08,286.08,0,0,1,.62,29.58c-.17,11.87.09,23.73.14,35.6.11,21.6-.12,43.19-.19,64.78H222l-1.5-130Z" transform="translate(-6.07 -114.87)"/><path class="cls-108" d="M221.32,1037.15l-1.51-130a.63.63,0,0,1,.18-.45.64.64,0,0,1,.46-.19h3.37a.64.64,0,0,1,.63.58,287.6,287.6,0,0,1,.62,29.64c-.11,8.1,0,16.33.05,24.29,0,3.77.08,7.53.1,11.3.06,14.38,0,29-.09,43.12q-.06,10.83-.1,21.67a.63.63,0,0,1-.64.63H222A.64.64,0,0,1,221.32,1037.15Zm2.54-21.67c.08-14.13.15-28.75.09-43.12,0-3.76-.06-7.52-.1-11.29-.08-8-.16-16.21,0-24.32.12-8.93.27-19-.57-28.93h-2.15l1.49,128.69h1.18Q223.79,1026,223.86,1015.48Z" transform="translate(-6.07 -114.87)"/><polygon class="cls-87" points="220.85 794.64 219.18 794.64 219.18 915.49 220.85 794.64"/><polygon class="cls-91" points="127.09 922.27 132.13 922.27 134.14 792.31 125.59 792.31 127.09 922.27"/><path class="cls-109" d="M132.52,1037.15l-1.51-130a.65.65,0,0,1,.64-.64h8.55a.62.62,0,0,1,.45.19.61.61,0,0,1,.19.45l-2,130a.64.64,0,0,1-.64.63h-5A.64.64,0,0,1,132.52,1037.15Zm7-129.33h-7.27l1.5,128.69h3.78Z" transform="translate(-6.07 -114.87)"/><path class="cls-94" d="M135,907.18a288.91,288.91,0,0,1,.63,29.58c-.17,11.87.09,23.73.13,35.6.11,21.6-.12,43.19-.18,64.78h-2.44l-1.51-130Z" transform="translate(-6.07 -114.87)"/><polygon class="cls-87" points="132.05 794.64 130.38 794.64 130.38 915.49 132.05 794.64"/><polygon class="cls-95" points="215.96 887.57 217.36 899.08 221.12 898.63 219.73 887.11 215.96 887.57"/><path class="cls-83" d="M223,1014.45a.59.59,0,0,1-.24-.43l-1.4-11.51a.64.64,0,0,1,.56-.71l3.77-.46a.67.67,0,0,1,.47.14.61.61,0,0,1,.23.42l1.4,11.52a.64.64,0,0,1-.55.71l-3.77.45h-.08A.61.61,0,0,1,223,1014.45Zm2.21-11.77-2.51.31,1.25,10.26,2.5-.31Z" transform="translate(-6.07 -114.87)"/><polygon class="cls-87" points="218.7 887.24 220.1 898.75 220.61 898.69 219.21 887.17 218.7 887.24"/><polygon class="cls-83" points="215.96 887.57 217.36 899.08 219.24 898.85 217.85 887.34 215.96 887.57"/><rect class="cls-83" x="128.51" y="1006.06" width="11.6" height="3.8" transform="translate(-881.75 775.08) rotate(-75.75)"/><path class="cls-84" d="M134.57,1014.67l-3.68-.94a.55.55,0,0,1-.39-.29.56.56,0,0,1-.07-.47l2.85-11.25a.64.64,0,0,1,.77-.46l3.68.94a.63.63,0,0,1,.4.28.67.67,0,0,1,.06.48l-2.85,11.25a.62.62,0,0,1-.61.47Zm-.21-12-2.55,10,2.45.61,2.54-10Z" transform="translate(-6.07 -114.87)"/><polygon class="cls-87" points="130.5 887.68 127.65 898.93 128.16 899.05 131.01 887.81 130.5 887.68"/><polygon class="cls-94" points="127.83 887.01 124.98 898.25 126.81 898.72 129.67 887.47 127.83 887.01"/><polygon class="cls-91" points="218.88 935.81 223.93 935.81 225.93 805.85 217.37 805.85 218.88 935.81"/><path class="cls-110" d="M224.32,1050.68l-1.51-130a.67.67,0,0,1,.18-.46.65.65,0,0,1,.45-.18H232a.63.63,0,0,1,.63.65l-2,130a.63.63,0,0,1-.63.63h-5A.63.63,0,0,1,224.32,1050.68Zm7-129.33h-7.26L225.58,1050h3.79Z" transform="translate(-6.07 -114.87)"/><path class="cls-97" d="M226.81,920.71a289,289,0,0,1,.63,29.58c-.17,11.87.08,23.73.14,35.6.1,21.6-.12,43.19-.19,64.78H225l-1.51-130Z" transform="translate(-6.07 -114.87)"/><polygon class="cls-87" points="223.85 808.18 222.18 808.18 222.18 929.02 223.85 808.18"/><polygon class="cls-91" points="122.82 935.81 127.85 935.81 129.86 805.85 121.3 805.85 122.82 935.81"/><path class="cls-111" d="M128.25,1050.68l-1.52-130a.63.63,0,0,1,.64-.64h8.55a.64.64,0,0,1,.46.19.6.6,0,0,1,.18.46l-2,130a.63.63,0,0,1-.63.63h-5A.64.64,0,0,1,128.25,1050.68Zm7-129.33H128l1.5,128.69h3.78Z" transform="translate(-6.07 -114.87)"/><path class="cls-97" d="M130.74,920.71a286.15,286.15,0,0,1,.63,29.58c-.16,11.87.09,23.73.14,35.6.11,21.6-.13,43.19-.18,64.78h-2.44l-1.52-130Z" transform="translate(-6.07 -114.87)"/><polygon class="cls-87" points="127.78 808.18 126.1 808.18 126.1 929.02 127.78 808.18"/><rect class="cls-83" x="126.71" y="801.19" width="94.26" height="10.56"/><path class="cls-84" d="M132.14,926.62V916.06a.64.64,0,0,1,.63-.64H227a.64.64,0,0,1,.64.64v10.56a.64.64,0,0,1-.64.64H132.77A.64.64,0,0,1,132.14,926.62Zm94.26-9.93h-93V926h93Z" transform="translate(-6.07 -114.87)"/><g class="cls-99"><rect class="cls-97" x="126.71" y="801.19" width="94.26" height="7.64"/></g><path class="cls-91" d="M229.36,911.38l5.36.21v7.93s-3,2.47-6.23,1.66H130.05s-6.47,1.3-6.4-4.58l.06-5.88Z" transform="translate(-6.07 -114.87)"/><path class="cls-112" d="M228.49,921.81l-98.32,0c-.07,0-3.73.76-5.81-1.35a5.08,5.08,0,0,1-1.34-3.85l0-5.88a.64.64,0,0,1,.64-.63h0l105.67.67,5.36.21a.63.63,0,0,1,.61.63v7.93a.64.64,0,0,1-.22.49,9.21,9.21,0,0,1-5.28,2h0A5.08,5.08,0,0,1,228.49,921.81Zm5.59-9.6-4.73-.19-105-.67,0,5.25a4,4,0,0,0,1,2.95c1.58,1.6,4.48,1,4.79,1l98.59,0a5.41,5.41,0,0,0,1.21.14h0a7.74,7.74,0,0,0,4.23-1.49Z" transform="translate(-6.07 -114.87)"/><path class="cls-97" d="M123.71,910.72l105.65.66,5.36.21v1.69c-5.56,5.59-29.78,3.28-34.72,3.27-14.11,0-28.89-1.57-42.86.74-6,1-13.7,1.29-19.81,3.89h-7.28s-6.47,1.3-6.4-4.58Z" transform="translate(-6.07 -114.87)"/><g class="cls-101"><path class="cls-102" d="M232.58,917.66c.2-.07-.42,2.11-4.34,2H166.4C166.08,919.67,225.38,920.09,232.58,917.66Z" transform="translate(-6.07 -114.87)"/></g><path class="cls-91" d="M108,769.73c-.19-2.36-.64-5.81.4-8.23,1.54-1.71,4.34-2.2,6.5-2a5.71,5.71,0,0,1,1.86.45c3.32,2.72,2.6,7.7,3.06,12.13,0,.18,0,.35.06.54,0,.73-.1,1.48-.17,2.21l8.53,141.43c-1.13,1.33-3.25,1.82-4.49.18a7.91,7.91,0,0,1-.56-.93L108.09,769.91C108.07,769.85,108.06,769.79,108,769.73Z" transform="translate(-6.07 -114.87)"/><path class="cls-83" d="M123.29,916.79a6.09,6.09,0,0,1-.62-1,1.42,1.42,0,0,1-.07-.22L107.43,770a1,1,0,0,1,0-.18l-.08-.88c-.19-2.39-.45-5.37.53-7.65a.62.62,0,0,1,.11-.17c1.86-2.06,5-2.27,6.21-2.27.28,0,.56,0,.82,0a6.6,6.6,0,0,1,2.08.5.71.71,0,0,1,.14.1c2.78,2.28,2.94,6,3.1,9.52,0,1,.08,2,.18,3l.06.64c0,.75-.1,1.49-.16,2.15l8.52,141.43a.63.63,0,0,1-.15.45,4,4,0,0,1-2.95,1.44h0A3.13,3.13,0,0,1,123.29,916.79Zm-4.17-142c.06-.73.12-1.47.17-2.1l-.06-.54c-.11-1-.15-2.06-.2-3.1-.14-3.4-.29-6.61-2.56-8.54a4.87,4.87,0,0,0-1.58-.37c-.23,0-.48,0-.72,0a7.26,7.26,0,0,0-5.19,1.78c-.81,2-.57,4.73-.38,6.94l.08.87a.61.61,0,0,1,0,.18l15.12,145.45a5.58,5.58,0,0,0,.46.73,2.17,2.17,0,0,0,3.32,0Z" transform="translate(-6.07 -114.87)"/><g class="cls-103"><path class="cls-97" d="M108.44,761.5c1.54-1.71,4.34-2.2,6.5-2a5.71,5.71,0,0,1,1.86.45,6.63,6.63,0,0,1,2,3c-5.4,7.78-2,20.81-2.09,29.33-.24,15.44,1.28,30.71,2.45,46.09,1.15,14.9,1.62,29.86,3.51,44.69,1.45,11.35,3.3,22.66,4.55,34.05a2.6,2.6,0,0,1-3.44-.67,7.91,7.91,0,0,1-.56-.93L108.09,769.91c0-.06,0-.12,0-.18C107.85,767.37,107.4,763.92,108.44,761.5Z" transform="translate(-6.07 -114.87)"/></g><path class="cls-104" d="M125.44,912.18c-.4-2.45,1.77-6,3.89-6.82,20.46-7.89,44-7.1,65.52-7,6,0,11.92.33,17.84.86,5.6.48,15.75,2.81,20.72,5.76,3.74,2.23,8.28,6.8,3.33,10a5.37,5.37,0,0,1-3.09,1.15c-1.9-.1-3.89.09-5.91.06-8.06-.12-16.15-.5-24.23-.42-10.48.13-21,.11-31.47-.08q-14-.24-28.06-.2c-4.49,0-8.81.92-13.32.21-2-.31-4.22-.83-5-3A4.24,4.24,0,0,1,125.44,912.18Z" transform="translate(-6.07 -114.87)"/><path class="cls-105" d="M227.73,916.88q-4.28-.07-8.53-.2c-5.15-.14-10.46-.28-15.69-.22-10.55.13-21.26.1-31.48-.09-7.69-.13-15.66-.2-24.35-.2H144c-1.59,0-3.2.12-4.75.24a40.47,40.47,0,0,1-8.68,0c-2.34-.37-4.63-1-5.55-3.37a4.11,4.11,0,0,1-.19-.73c-.44-2.63,1.81-6.56,4.28-7.51,17-6.56,36.1-7.11,52.66-7.11,2.78,0,5.55,0,8.29,0l4.81,0c5.7,0,11.55.3,17.89.85,5.47.48,15.8,2.78,21,5.86,2.77,1.65,5.75,4.39,5.81,7.16a4.6,4.6,0,0,1-2.46,4,6.16,6.16,0,0,1-3.31,1.25h-.16c-1,0-2.1,0-3.18,0-.73,0-1.47,0-2.21,0Zm6.06-1.34a4.9,4.9,0,0,0,2.6-1,3.44,3.44,0,0,0,1.89-2.87c-.05-2.25-2.83-4.69-5.19-6.09-5-2.95-15.24-5.23-20.45-5.69-6.29-.55-12.12-.83-17.79-.85L190,899c-2.74,0-5.5,0-8.28,0-16.45,0-35.4.54-52.21,7-1.76.68-3.85,3.89-3.48,6.12a2.42,2.42,0,0,0,.13.48c.71,1.83,2.72,2.29,4.55,2.58a39.86,39.86,0,0,0,8.4,0c1.58-.12,3.2-.23,4.83-.24h3.7c8.7,0,16.67.07,24.37.2,10.21.19,20.91.21,31.45.09,5.24-.06,10.58.08,15.73.22,2.84.08,5.68.16,8.52.19h.48c.73,0,1.46,0,2.17,0s1.42,0,2.12,0C232.91,915.52,233.3,915.52,233.79,915.54Z" transform="translate(-6.07 -114.87)"/><path class="cls-106" d="M129.33,905.36c1.79-.69,3.6-1.29,5.44-1.86-.17,1.92,1.76,3.62,3.65,4,7.86,1.42,16,.93,24,1.19,8.72.27,17.45.61,26.17.86,9.25.27,18.47.09,27.71.15,4,0,8,.35,11.94.52,2.35.09,5.32.26,7.41-1.11A4.28,4.28,0,0,0,237,907.8c2.13,2.26,3.09,5-.24,7.23a5.37,5.37,0,0,1-3.09,1.15c-1.9-.1-3.89.09-5.91.06-8.06-.12-16.15-.5-24.23-.42-10.48.13-21,.11-31.47-.08q-14-.24-28.06-.2c-4.49,0-8.81.92-13.32.21-2-.31-4.22-.83-5-3a4.24,4.24,0,0,1-.17-.61C125,909.73,127.21,906.18,129.33,905.36Z" transform="translate(-6.07 -114.87)"/><path class="cls-107" d="M161.77,902.33h0c-3.79-.28-7.83.37-11.75.43,15.32-2.48,31.4-2.1,46.53-2,5.95,0,11.9.34,17.83.86a71.11,71.11,0,0,1,16.07,3.66c-1.18,0-2.51-.21-3-.27-2.58-.3-5.15-.68-7.74-.89-8.83-.71-17.69-.84-26.53-1.09-9.95-.28-19.93-.76-29.89-.68C162.76,902.31,162.27,902.33,161.77,902.33Z" transform="translate(-6.07 -114.87)"/><path class="cls-104" d="M119.56,767.05s.92-8.4,4.09-3.88,8.52,140.33,8.52,140.33l-4.51,2.44Z" transform="translate(-6.07 -114.87)"/><path class="cls-105" d="M127.35,906.49A.63.63,0,0,1,127,906l-8.1-139c.16-1.36.8-5.78,3-5.78.74,0,1.48.52,2.23,1.6,3.19,4.55,8.1,126.75,8.65,140.68a.66.66,0,0,1-.34.58L128,906.49a.67.67,0,0,1-.3.08A.68.68,0,0,1,127.35,906.49Zm-4.23-143c-.69-1-1.09-1.07-1.19-1.07-.7,0-1.49,2.47-1.73,4.55l8,137.89,3.27-1.77C129.36,848.63,125.36,766.76,123.12,763.53Z" transform="translate(-6.07 -114.87)"/><path class="cls-106" d="M122.9,762.32c-.62,10.8-1.08,21.51-.66,32.46.57,14.68,1.76,29.34,3,44,1.31,14.83,1.74,29.82,3.67,44.58.81,6.13-.12,14.5,2.73,20.43l-4,2.17-8.1-138.89S120.34,760,122.9,762.32Z" transform="translate(-6.07 -114.87)"/><path class="cls-107" d="M122.5,763.39s-3.09,2,.92,42.84C123.42,806.23,120.62,771.88,122.5,763.39Z" transform="translate(-6.07 -114.87)"/><g class="cls-101"><path class="cls-102" d="M118,774.22,125.4,893S117.36,805.19,118,774.22Z" transform="translate(-6.07 -114.87)"/></g><polygon class="cls-83" points="357.72 761.26 367.23 935.87 375.85 935.8 382.04 761.26 357.72 761.26"/><path class="cls-84" d="M373.29,1051.31a.62.62,0,0,1-.64-.55l-9.5-174.6a.52.52,0,0,1,.17-.43.69.69,0,0,1,.46-.17h24.33a.66.66,0,0,1,.45.17.52.52,0,0,1,.18.41l-6.19,174.54a.62.62,0,0,1-.63.57l-8.63.06Zm-8.84-174.6,9.44,173.44,7.41-.06,6.15-173.38Z" transform="translate(-6.07 -114.87)"/><path class="cls-85" d="M369.15,876.13c6,13,7.77,27.31,8.28,41.3.64,17.35.44,34.75.76,52.11.32,18,.57,35.93-.3,53.87-.44,8.86-1.16,18.16-.6,27.28l4.62,0,6.2-174.54Z" transform="translate(-6.07 -114.87)"/><polygon class="cls-84" points="354.39 759.81 356.43 762.71 382.68 762.71 385.37 759.81 354.39 759.81"/><path class="cls-84" d="M388.75,878.16H362.5a.65.65,0,0,1-.54-.27l-2-2.9a.55.55,0,0,1,0-.59.65.65,0,0,1,.56-.3h31a.63.63,0,0,1,.57.34.53.53,0,0,1-.09.62L389.24,878A.69.69,0,0,1,388.75,878.16ZM362.84,877h25.61l1.62-1.74H361.62Z" transform="translate(-6.07 -114.87)"/><rect class="cls-86" x="353.36" y="753.94" width="32.01" height="5.87"/><path class="cls-84" d="M391.44,875.26h-32a.61.61,0,0,1-.64-.58v-5.87a.61.61,0,0,1,.64-.58h32a.61.61,0,0,1,.63.58v5.87A.61.61,0,0,1,391.44,875.26Zm-31.38-1.16H390.8v-4.71H360.06Z" transform="translate(-6.07 -114.87)"/><path class="cls-87" d="M366.14,884.59,375.43,1040S374.76,912.1,366.14,884.59Z" transform="translate(-6.07 -114.87)"/><rect class="cls-84" x="362.02" y="885.22" width="20.03" height="8.56"/><path class="cls-83" d="M388.11,1009.22h-20a.61.61,0,0,1-.64-.57v-8.56a.61.61,0,0,1,.64-.58h20a.61.61,0,0,1,.63.58v8.56A.6.6,0,0,1,388.11,1009.22Zm-19.4-1.15h18.76v-7.41H368.71Z" transform="translate(-6.07 -114.87)"/><polygon class="cls-83" points="171.93 761.26 181.44 935.87 190.07 935.8 196.26 761.26 171.93 761.26"/><path class="cls-84" d="M187.5,1051.31a.6.6,0,0,1-.63-.55l-9.51-174.6a.59.59,0,0,1,.17-.43.71.71,0,0,1,.47-.17h24.32a.67.67,0,0,1,.46.17.52.52,0,0,1,.18.41l-6.2,174.54a.61.61,0,0,1-.62.57l-8.64.06Zm-8.84-174.6,9.44,173.44,7.41-.06,6.16-173.38Z" transform="translate(-6.07 -114.87)"/><path class="cls-85" d="M183.37,876.13c6,13,7.77,27.31,8.28,41.3.63,17.35.44,34.75.75,52.11.32,18,.58,35.93-.3,53.87-.44,8.86-1.16,18.16-.6,27.28l4.63,0,6.19-174.54Z" transform="translate(-6.07 -114.87)"/><polygon class="cls-84" points="168.61 759.81 170.65 762.71 196.9 762.71 199.59 759.81 168.61 759.81"/><path class="cls-84" d="M203,878.16H176.71a.64.64,0,0,1-.53-.27l-2-2.9a.53.53,0,0,1,0-.59.64.64,0,0,1,.56-.3h31a.64.64,0,0,1,.57.34.55.55,0,0,1-.09.62L203.45,878A.67.67,0,0,1,203,878.16ZM177.06,877h25.61l1.61-1.74H175.83Z" transform="translate(-6.07 -114.87)"/><rect class="cls-86" x="167.58" y="753.94" width="32.01" height="5.87"/><path class="cls-84" d="M205.66,875.26h-32a.61.61,0,0,1-.63-.58v-5.87a.61.61,0,0,1,.63-.58h32a.61.61,0,0,1,.63.58v5.87A.61.61,0,0,1,205.66,875.26Zm-31.38-1.16H205v-4.71H174.28Z" transform="translate(-6.07 -114.87)"/><path class="cls-87" d="M180.35,884.59l9.3,155.36S189,912.1,180.35,884.59Z" transform="translate(-6.07 -114.87)"/><rect class="cls-84" x="176.23" y="885.22" width="20.03" height="8.56"/><path class="cls-83" d="M202.32,1009.22h-20a.61.61,0,0,1-.64-.57v-8.56a.61.61,0,0,1,.64-.58h20a.61.61,0,0,1,.64.58v8.56A.61.61,0,0,1,202.32,1009.22Zm-19.39-1.15h18.76v-7.41H182.93Z" transform="translate(-6.07 -114.87)"/><rect class="cls-84" x="162.06" y="734.25" width="228.4" height="20.75"/><path class="cls-83" d="M396.53,870.46H168.13a.61.61,0,0,1-.63-.58V849.12a.61.61,0,0,1,.63-.58h228.4a.61.61,0,0,1,.63.58v20.76A.61.61,0,0,1,396.53,870.46Zm-227.77-1.17H395.9V849.7H168.76Z" transform="translate(-6.07 -114.87)"/><path class="cls-113" d="M355.88,860.35c-23.13.42-46.24,1.16-69.36,1.67-50.48,1.12,136.33-.29,85.85-.69-28.09-.22-56.19-.3-84.28-.82s-55.86-1.28-83.84-.62,62.06,2.63,34.19,2.67c-13.9,0-27.86-.6-41.76.21-9.44.55-19.05,2.4-28.55,2v5.08h228.4V857.53C383.13,859.6,369.4,860.11,355.88,860.35Z" transform="translate(-6.07 -114.87)"/><rect class="cls-114" x="162.06" y="734.64" width="228.4" height="6.69"/><rect class="cls-83" x="140.89" y="731.41" width="267.37" height="11.17"/><path class="cls-83" d="M414.32,858H147a.61.61,0,0,1-.64-.58V846.28a.61.61,0,0,1,.64-.58H414.32a.6.6,0,0,1,.63.58v11.17A.61.61,0,0,1,414.32,858Zm-266.74-1.16h266.1v-10H147.58Z" transform="translate(-6.07 -114.87)"/><path class="cls-115" d="M339.5,851.42c-55.94-.35,5.92-.83-50-1.14-25.76-.13-51.44-.4-77.09,2-16.69,1.55-48.61,3.6-65.44,1.14v4.06H414.32V847C310.55,854,443.48,852.06,339.5,851.42Z" transform="translate(-6.07 -114.87)"/><polygon class="cls-116" points="408.25 731.07 140.89 731.07 147.93 724.17 400.34 724.17 408.25 731.07"/><path class="cls-104" d="M414.35,846.51H147a.66.66,0,0,1-.59-.35.55.55,0,0,1,.12-.62l7.05-6.91a.69.69,0,0,1,.46-.17H406.41a.61.61,0,0,1,.44.16l7.8,6.8a.57.57,0,0,1,.33.51A.61.61,0,0,1,414.35,846.51Zm-266-1.16H412.74l-6.58-5.74H154.27Z" transform="translate(-6.07 -114.87)"/><polygon class="cls-3" points="1017.94 945.78 961.15 903.92 668.96 903.92 588 945.78 1017.94 945.78"/><polygon class="cls-83" points="856.46 749.39 865.97 923.99 874.6 923.92 880.79 749.39 856.46 749.39"/><path class="cls-84" d="M872,1039.43a.59.59,0,0,1-.63-.54l-9.51-174.6a.58.58,0,0,1,.16-.43.71.71,0,0,1,.47-.17h24.33a.6.6,0,0,1,.45.17.57.57,0,0,1,.19.42l-6.2,174.53a.6.6,0,0,1-.62.56l-8.64.06ZM863.2,864.84l9.44,173.44,7.41-.07,6.15-173.37Z" transform="translate(-6.07 -114.87)"/><path class="cls-85" d="M867.9,864.26c6,13,7.78,27.31,8.29,41.3.63,17.35.43,34.75.74,52.11.33,18,.59,35.94-.29,53.88-.44,8.84-1.17,18.15-.61,27.28l4.64,0,6.19-174.53Z" transform="translate(-6.07 -114.87)"/><polygon class="cls-84" points="853.14 747.95 855.18 750.84 881.44 750.84 884.13 747.95 853.14 747.95"/><path class="cls-84" d="M887.5,866.29H861.25a.65.65,0,0,1-.54-.27l-2-2.89a.57.57,0,0,1,0-.6.65.65,0,0,1,.55-.3h31a.65.65,0,0,1,.58.34.55.55,0,0,1-.1.62L888,866.08A.65.65,0,0,1,887.5,866.29Zm-25.91-1.16h25.62l1.61-1.74H860.37Z" transform="translate(-6.07 -114.87)"/><rect class="cls-86" x="852.11" y="742.07" width="32.01" height="5.88"/><path class="cls-84" d="M890.19,863.39h-32a.61.61,0,0,1-.64-.58v-5.87a.61.61,0,0,1,.64-.58h32a.61.61,0,0,1,.63.58v5.87A.61.61,0,0,1,890.19,863.39Zm-31.37-1.16h30.73v-4.71H858.82Z" transform="translate(-6.07 -114.87)"/><path class="cls-87" d="M864.89,872.72l9.29,155.36S873.52,900.23,864.89,872.72Z" transform="translate(-6.07 -114.87)"/><rect class="cls-84" x="860.76" y="873.35" width="20.03" height="8.56"/><path class="cls-83" d="M886.86,997.35h-20a.6.6,0,0,1-.64-.57v-8.56a.6.6,0,0,1,.64-.57h20a.61.61,0,0,1,.64.57v8.56A.61.61,0,0,1,886.86,997.35Zm-19.39-1.15h18.76v-7.4H867.47Z" transform="translate(-6.07 -114.87)"/><polygon class="cls-83" points="700.23 749.39 709.74 923.99 718.37 923.92 724.55 749.39 700.23 749.39"/><path class="cls-84" d="M715.8,1039.43a.59.59,0,0,1-.63-.54l-9.51-174.6a.59.59,0,0,1,.17-.43.71.71,0,0,1,.47-.17h24.32a.66.66,0,0,1,.46.17.56.56,0,0,1,.18.42l-6.2,174.53a.59.59,0,0,1-.62.56l-8.64.06ZM707,864.84l9.44,173.44,7.41-.07L730,864.84Z" transform="translate(-6.07 -114.87)"/><path class="cls-85" d="M711.67,864.26c6,13,7.77,27.31,8.28,41.3.63,17.35.43,34.75.75,52.11.32,18,.58,35.94-.3,53.88-.44,8.84-1.16,18.15-.6,27.28l4.63,0,6.19-174.53Z" transform="translate(-6.07 -114.87)"/><polygon class="cls-84" points="696.91 747.95 698.95 750.84 725.2 750.84 727.89 747.95 696.91 747.95"/><path class="cls-84" d="M731.27,866.29H705a.64.64,0,0,1-.53-.27l-2.05-2.89a.57.57,0,0,1,0-.6.66.66,0,0,1,.56-.3h31a.65.65,0,0,1,.58.34.55.55,0,0,1-.1.62l-2.68,2.89A.67.67,0,0,1,731.27,866.29Zm-25.92-1.16H731l1.61-1.74H704.13Z" transform="translate(-6.07 -114.87)"/><rect class="cls-86" x="695.87" y="742.07" width="32.01" height="5.88"/><path class="cls-84" d="M734,863.39h-32a.61.61,0,0,1-.63-.58v-5.87a.61.61,0,0,1,.63-.58h32a.61.61,0,0,1,.64.58v5.87A.61.61,0,0,1,734,863.39Zm-31.37-1.16h30.74v-4.71H702.58Z" transform="translate(-6.07 -114.87)"/><path class="cls-87" d="M708.65,872.72l9.29,155.36S717.28,900.23,708.65,872.72Z" transform="translate(-6.07 -114.87)"/><rect class="cls-84" x="704.53" y="873.35" width="20.03" height="8.56"/><path class="cls-83" d="M730.62,997.35h-20a.61.61,0,0,1-.64-.57v-8.56a.61.61,0,0,1,.64-.57h20a.61.61,0,0,1,.64.57v8.56A.61.61,0,0,1,730.62,997.35Zm-19.39-1.15H730v-7.4H711.23Z" transform="translate(-6.07 -114.87)"/><path class="cls-88" d="M976.77,764.58c.17-2.36,3.27-.66,2.23-3.08-.94-7.19-7-7.35-9.15-7.19a5.83,5.83,0,0,0-1.86.45c-3.31,2.72-2.59,7.7-3,12.13l-.06.53c.06.74.11,1.49.16,2.22l-8.52,141.43c1.13,1.33,3.24,1.82,4.49.18a7.91,7.91,0,0,0,.56-.93L976.7,764.76A1.34,1.34,0,0,0,976.77,764.58Z" transform="translate(-6.07 -114.87)"/><path class="cls-83" d="M959,912.92a4,4,0,0,1-3-1.43.71.71,0,0,1-.16-.45l8.53-141.44c-.06-.65-.11-1.39-.16-2.14l0-.65c.11-1,.16-2,.2-3,.15-3.56.3-7.24,3.09-9.52a.38.38,0,0,1,.15-.09,6,6,0,0,1,2.07-.51c.26,0,.57,0,.92,0,2.36,0,7.93.75,8.89,7.68a2,2,0,0,1,.1,1.56,1.77,1.77,0,0,1-1.3.81c-.67.18-1,.28-1,.93a1,1,0,0,1,0,.18L962.2,910.39a.48.48,0,0,1-.07.23,7,7,0,0,1-.62,1A3.09,3.09,0,0,1,959,912.92Zm-1.82-2.08a2.18,2.18,0,0,0,3.33,0,6.81,6.81,0,0,0,.45-.73l15.12-145.45a.94.94,0,0,1,0-.16,2.25,2.25,0,0,1,2-2.07,2.22,2.22,0,0,0,.48-.16,2.05,2.05,0,0,0-.17-.56.75.75,0,0,1,0-.16c-.72-5.52-4.55-6.67-7.64-6.67-.31,0-.59,0-.83,0a4.75,4.75,0,0,0-1.57.37c-2.28,1.93-2.41,5.14-2.56,8.54,0,1-.09,2.09-.2,3.1l-.06.54c.06.63.11,1.37.17,2.1Z" transform="translate(-6.07 -114.87)"/><polygon class="cls-89" points="859.41 922.27 854.38 922.27 852.37 792.31 860.92 792.31 859.41 922.27"/><path class="cls-90" d="M865.48,1037.78h-5a.63.63,0,0,1-.63-.63l-2-130a.6.6,0,0,1,.18-.45.65.65,0,0,1,.45-.19H867a.64.64,0,0,1,.45.19.59.59,0,0,1,.18.45l-1.5,130A.64.64,0,0,1,865.48,1037.78Zm-4.41-1.27h3.78l1.5-128.69h-7.27Z" transform="translate(-6.07 -114.87)"/><path class="cls-91" d="M863.62,907.18a286.09,286.09,0,0,0-.63,29.58c.17,11.87-.08,23.73-.14,35.6-.1,21.6.13,43.19.19,64.78h2.44l1.51-130Z" transform="translate(-6.07 -114.87)"/><path class="cls-117" d="M865.48,1037.78H863a.64.64,0,0,1-.64-.63q0-10.83-.1-21.67c-.08-14.13-.15-28.74-.08-43.12,0-3.77,0-7.53.09-11.3.08-8,.16-16.19,0-24.29a290.66,290.66,0,0,1,.64-29.64.63.63,0,0,1,.63-.58H867a.64.64,0,0,1,.45.19.59.59,0,0,1,.18.45l-1.5,130A.64.64,0,0,1,865.48,1037.78Zm-1.8-1.27h1.17l1.5-128.69H864.2c-.84,9.9-.7,20-.57,28.93.11,8.11,0,16.35,0,24.32,0,3.77-.07,7.53-.09,11.29-.08,14.37,0,29,.08,43.12Q863.63,1026,863.68,1036.51Z" transform="translate(-6.07 -114.87)"/><polygon class="cls-87" points="854.45 794.64 856.13 794.64 856.13 915.49 854.45 794.64"/><polygon class="cls-91" points="948.21 922.27 943.17 922.27 941.17 792.31 949.72 792.31 948.21 922.27"/><path class="cls-118" d="M954.27,1037.78h-5a.65.65,0,0,1-.64-.63l-2-130a.65.65,0,0,1,.19-.45.64.64,0,0,1,.45-.19h8.55a.64.64,0,0,1,.46.19.63.63,0,0,1,.18.45l-1.51,130A.64.64,0,0,1,954.27,1037.78Zm-4.4-1.27h3.78l1.49-128.69h-7.26Z" transform="translate(-6.07 -114.87)"/><path class="cls-94" d="M952.41,907.18a288.91,288.91,0,0,0-.62,29.58c.16,11.87-.09,23.73-.14,35.6-.1,21.6.12,43.19.18,64.78h2.44l1.51-130Z" transform="translate(-6.07 -114.87)"/><polygon class="cls-87" points="943.25 794.64 944.92 794.64 944.92 915.49 943.25 794.64"/><polygon class="cls-95" points="859.34 887.57 857.95 899.08 854.18 898.63 855.57 887.11 859.34 887.57"/><path class="cls-83" d="M864,1014.58h-.07l-3.77-.45a.64.64,0,0,1-.55-.71L861,1001.9a.62.62,0,0,1,.24-.42.64.64,0,0,1,.47-.14l3.77.46a.64.64,0,0,1,.55.71l-1.4,11.51a.63.63,0,0,1-.63.56Zm-3.06-1.64,2.51.31L864.7,1003l-2.51-.31Z" transform="translate(-6.07 -114.87)"/><polygon class="cls-87" points="856.6 887.24 855.21 898.75 854.69 898.69 856.09 887.17 856.6 887.24"/><polygon class="cls-83" points="859.34 887.57 857.95 899.08 856.06 898.85 857.46 887.34 859.34 887.57"/><rect class="cls-83" x="951.22" y="1002.16" width="3.8" height="11.6" transform="translate(-224.91 150.86) rotate(-14.25)"/><path class="cls-84" d="M952.71,1014.68a.63.63,0,0,1-.62-.47L949.24,1003a.68.68,0,0,1,.07-.48.61.61,0,0,1,.39-.28l3.68-.94a.64.64,0,0,1,.77.46L957,1013a.61.61,0,0,1-.46.76l-3.67.94Zm-2.08-11.42,2.54,10,2.44-.61-2.53-10Z" transform="translate(-6.07 -114.87)"/><polygon class="cls-87" points="944.8 887.68 947.65 898.93 947.14 899.05 944.29 887.81 944.8 887.68"/><polygon class="cls-94" points="947.47 887.01 950.33 898.25 948.49 898.72 945.63 887.47 947.47 887.01"/><polygon class="cls-91" points="856.42 935.81 851.38 935.81 849.37 805.85 857.93 805.85 856.42 935.81"/><path class="cls-119" d="M862.49,1051.31h-5a.64.64,0,0,1-.63-.63l-2-130a.6.6,0,0,1,.18-.46.62.62,0,0,1,.45-.19H864a.69.69,0,0,1,.45.18.72.72,0,0,1,.18.46l-1.51,130A.63.63,0,0,1,862.49,1051.31Zm-4.42-1.27h3.79l1.49-128.69h-7.27Z" transform="translate(-6.07 -114.87)"/><path class="cls-97" d="M860.63,920.71a289,289,0,0,0-.64,29.58c.18,11.87-.08,23.73-.13,35.6-.11,21.6.12,43.19.18,64.78h2.45l1.51-130Z" transform="translate(-6.07 -114.87)"/><polygon class="cls-87" points="851.46 808.18 853.13 808.18 853.13 929.02 851.46 808.18"/><polygon class="cls-91" points="952.48 935.81 947.45 935.81 945.44 805.85 954 805.85 952.48 935.81"/><path class="cls-120" d="M958.55,1051.31h-5a.64.64,0,0,1-.64-.63l-2-130a.6.6,0,0,1,.18-.46.65.65,0,0,1,.45-.19h8.56a.63.63,0,0,1,.45.18.68.68,0,0,1,.19.46l-1.52,130A.63.63,0,0,1,958.55,1051.31Zm-4.41-1.27h3.78l1.5-128.69h-7.27Z" transform="translate(-6.07 -114.87)"/><path class="cls-97" d="M956.69,920.71a289,289,0,0,0-.63,29.58c.16,11.87-.08,23.73-.14,35.6-.1,21.6.13,43.19.19,64.78h2.44l1.51-130Z" transform="translate(-6.07 -114.87)"/><polygon class="cls-87" points="947.52 808.18 949.2 808.18 949.2 929.02 947.52 808.18"/><rect class="cls-83" x="854.34" y="801.19" width="94.26" height="10.56"/><path class="cls-84" d="M954.66,927.26H860.41a.64.64,0,0,1-.64-.64V916.06a.64.64,0,0,1,.64-.64h94.25a.64.64,0,0,1,.64.64v10.56A.64.64,0,0,1,954.66,927.26ZM861,926h93v-9.3H861Z" transform="translate(-6.07 -114.87)"/><g class="cls-99"><rect class="cls-97" x="854.34" y="801.19" width="94.26" height="7.64"/></g><path class="cls-91" d="M858.08,911.38l-5.37.21v7.93s3,2.47,6.24,1.66h98.44s6.46,1.3,6.39-4.58l-.06-5.88Z" transform="translate(-6.07 -114.87)"/><path class="cls-121" d="M857.59,922h0a9.17,9.17,0,0,1-5.28-2,.62.62,0,0,1-.23-.49v-7.93a.63.63,0,0,1,.61-.63l5.36-.21,105.67-.67h0a.63.63,0,0,1,.63.63l.07,5.88a5.16,5.16,0,0,1-1.34,3.85c-2.08,2.11-5.74,1.37-5.82,1.35l-98.31,0A5.19,5.19,0,0,1,857.59,922Zm-4.24-2.77a7.78,7.78,0,0,0,4.24,1.49h0a5.32,5.32,0,0,0,1.2-.14l98.6,0c.3,0,3.2.61,4.78-1a4,4,0,0,0,1-2.95l0-5.25-105,.67-4.73.19Z" transform="translate(-6.07 -114.87)"/><path class="cls-97" d="M963.72,910.72l-105.64.66-5.37.21v1.69c5.56,5.59,29.78,3.28,34.72,3.27,14.12,0,28.88-1.57,42.86.74,6,1,13.71,1.29,19.82,3.89h7.28s6.46,1.3,6.39-4.58Z" transform="translate(-6.07 -114.87)"/><g class="cls-101"><path class="cls-102" d="M854.86,917.66c-.21-.07.41,2.11,4.33,2H921C921.36,919.67,862.06,920.09,854.86,917.66Z" transform="translate(-6.07 -114.87)"/></g><path class="cls-91" d="M979.4,769.73c.18-2.36.64-5.81-.4-8.23-1.55-1.71-4.35-2.2-6.51-2a5.77,5.77,0,0,0-1.86.45c-3.31,2.72-2.59,7.7-3.06,12.13,0,.18,0,.35-.06.54,0,.73.11,1.48.17,2.21l-8.53,141.43c1.14,1.33,3.25,1.82,4.49.18a7.91,7.91,0,0,0,.56-.93l15.14-145.56Z" transform="translate(-6.07 -114.87)"/><path class="cls-83" d="M961.62,918.08h0a4,4,0,0,1-3-1.44.63.63,0,0,1-.15-.45l8.53-141.43c-.07-.66-.12-1.4-.17-2.15l.06-.64c.1-1,.15-2,.19-3,.16-3.56.31-7.24,3.09-9.52l.15-.1a6.54,6.54,0,0,1,2.07-.5c.27,0,.54,0,.83,0,1.24,0,4.34.21,6.2,2.27a.66.66,0,0,1,.12.17c1,2.28.72,5.26.51,7.65l-.06.88a.53.53,0,0,1,0,.18L964.83,915.54a.79.79,0,0,1-.06.22,6.82,6.82,0,0,1-.63,1A3.11,3.11,0,0,1,961.62,918.08ZM959.81,916a2.17,2.17,0,0,0,3.32,0,4.63,4.63,0,0,0,.45-.73L978.7,769.84a.61.61,0,0,1,0-.18l.09-.87c.19-2.21.42-5-.39-6.94a7.23,7.23,0,0,0-5.18-1.78c-.25,0-.5,0-.73,0a4.87,4.87,0,0,0-1.58.37c-2.27,1.93-2.41,5.14-2.56,8.54,0,1-.09,2.09-.2,3.1l-.05.54c.05.63.1,1.37.16,2.1Z" transform="translate(-6.07 -114.87)"/><g class="cls-103"><path class="cls-97" d="M979,761.5c-1.55-1.71-4.35-2.2-6.51-2a5.77,5.77,0,0,0-1.86.45,6.61,6.61,0,0,0-2,3c5.39,7.78,2,20.81,2.09,29.33.22,15.44-1.28,30.71-2.46,46.09-1.15,14.9-1.62,29.86-3.51,44.69-1.45,11.35-3.29,22.66-4.54,34.05a2.58,2.58,0,0,0,3.43-.67,7.91,7.91,0,0,0,.56-.93l15.14-145.56.06-.18C979.58,767.37,980,763.92,979,761.5Z" transform="translate(-6.07 -114.87)"/></g><path class="cls-104" d="M962,912.18c.4-2.45-1.76-6-3.88-6.82-20.47-7.89-44-7.1-65.53-7-6,0-11.91.33-17.85.86C869.14,899.7,859,902,854,905c-3.74,2.23-8.28,6.8-3.33,10a5.37,5.37,0,0,0,3.09,1.15c1.91-.1,3.9.09,5.92.06,8-.12,16.14-.5,24.23-.42,10.47.13,21,.11,31.46-.08q14-.24,28.06-.2c4.49,0,8.82.92,13.33.21,2-.31,4.21-.83,5.05-3A3.22,3.22,0,0,0,962,912.18Z" transform="translate(-6.07 -114.87)"/><path class="cls-105" d="M859.2,916.88c-.74,0-1.48,0-2.21,0-1.08,0-2.14-.07-3.18,0h-.16a6.13,6.13,0,0,1-3.3-1.25,4.59,4.59,0,0,1-2.47-4c.07-2.77,3-5.51,5.81-7.16,5.19-3.08,15.52-5.38,21-5.86,6.34-.55,12.19-.83,17.89-.85l4.81,0c2.75,0,5.52,0,8.3,0,16.55,0,35.64.55,52.66,7.11,2.47,1,4.71,4.88,4.28,7.51a4.11,4.11,0,0,1-.2.73c-.91,2.34-3.2,3-5.55,3.37a40.47,40.47,0,0,1-8.68,0c-1.55-.12-3.15-.23-4.74-.24h-3.69c-8.69,0-16.66.07-24.35.2-10.22.19-20.93.22-31.49.09-5.23-.06-10.54.08-15.68.22q-4.26.12-8.54.2Zm-4.28-1.36c.69,0,1.4,0,2.12,0s1.43,0,2.16,0h.49c2.84,0,5.67-.11,8.52-.19,5.15-.14,10.49-.28,15.73-.22,10.54.12,21.24.1,31.44-.09,7.71-.13,15.67-.2,24.38-.2h3.69c1.63,0,3.26.12,4.83.24a39.86,39.86,0,0,0,8.4,0c1.83-.29,3.85-.75,4.55-2.58a2.43,2.43,0,0,0,.14-.48c.36-2.23-1.72-5.44-3.49-6.12-16.82-6.48-35.76-7-52.2-7-2.78,0-5.55,0-8.28,0l-4.82,0c-5.67,0-11.49.3-17.79.85-5.21.46-15.49,2.74-20.45,5.69-2.36,1.4-5.13,3.84-5.19,6.09A3.44,3.44,0,0,0,851,914.5a4.9,4.9,0,0,0,2.6,1C854.14,915.52,854.52,915.52,854.92,915.52Z" transform="translate(-6.07 -114.87)"/><path class="cls-106" d="M958.11,905.36c-1.79-.69-3.61-1.29-5.44-1.86.17,1.92-1.77,3.62-3.66,4-7.85,1.42-16,.93-24,1.19-8.72.27-17.44.61-26.16.86-9.25.27-18.47.09-27.72.15-4,0-7.95.35-11.94.52-2.35.09-5.31.26-7.4-1.11a4.17,4.17,0,0,1-1.35-1.27c-2.13,2.26-3.1,5,.23,7.23a5.37,5.37,0,0,0,3.09,1.15c1.91-.1,3.9.09,5.92.06,8-.12,16.14-.5,24.23-.42,10.47.13,21,.11,31.46-.08q14-.24,28.06-.2c4.49,0,8.82.92,13.33.21,2-.31,4.21-.83,5.05-3a3.22,3.22,0,0,0,.16-.61C962.39,909.73,960.23,906.18,958.11,905.36Z" transform="translate(-6.07 -114.87)"/><path class="cls-107" d="M925.66,902.33h0c3.79-.28,7.83.37,11.76.43-15.33-2.48-31.4-2.1-46.53-2-6,0-11.91.34-17.84.86A71.11,71.11,0,0,0,857,905.23c1.19,0,2.51-.21,3-.27,2.59-.3,5.15-.68,7.75-.89,8.82-.71,17.68-.84,26.53-1.09,10-.28,19.92-.76,29.88-.68Z" transform="translate(-6.07 -114.87)"/><path class="cls-104" d="M967.86,767.05s-.91-8.4-4.07-3.88-8.52,140.33-8.52,140.33l4.51,2.44Z" transform="translate(-6.07 -114.87)"/><path class="cls-105" d="M959.78,906.57a.68.68,0,0,1-.31-.08L955,904.06a.65.65,0,0,1-.33-.58c.55-13.93,5.46-136.13,8.64-140.68.76-1.08,1.48-1.6,2.24-1.6,2.19,0,2.84,4.42,3,5.78l-8.09,139a.63.63,0,0,1-.32.53A.68.68,0,0,1,959.78,906.57Zm-3.86-3.44,3.28,1.77,8-137.89c-.24-2.08-1-4.55-1.72-4.55-.11,0-.51.08-1.2,1.07C962.07,766.76,958.07,848.63,955.92,903.13Z" transform="translate(-6.07 -114.87)"/><path class="cls-106" d="M964.54,762.32c.61,10.8,1.08,21.51.66,32.46-.58,14.68-1.77,29.34-3,44-1.3,14.83-1.74,29.82-3.67,44.58-.8,6.13.13,14.5-2.72,20.43l4,2.17,8.08-138.89S967.09,760,964.54,762.32Z" transform="translate(-6.07 -114.87)"/><path class="cls-107" d="M964.94,763.39s3.09,2-.93,42.84C964,806.23,966.82,771.88,964.94,763.39Z" transform="translate(-6.07 -114.87)"/><g class="cls-101"><path class="cls-102" d="M969.4,774.22,962,893S970.07,805.19,969.4,774.22Z" transform="translate(-6.07 -114.87)"/></g><path class="cls-88" d="M625.42,764.58c-.17-2.36-3.26-.66-2.23-3.08.94-7.19,7-7.35,9.14-7.19a5.9,5.9,0,0,1,1.87.45c3.31,2.72,2.59,7.7,3.06,12.13a4.78,4.78,0,0,0,.06.53c-.06.74-.11,1.49-.17,2.22l8.52,141.43c-1.13,1.33-3.24,1.82-4.48.18a6.81,6.81,0,0,1-.57-.93L625.49,764.76A1.34,1.34,0,0,0,625.42,764.58Z" transform="translate(-6.07 -114.87)"/><path class="cls-83" d="M640.68,911.63a8.11,8.11,0,0,1-.63-1,.59.59,0,0,1,0-.23L624.83,764.8a1,1,0,0,1,0-.18c0-.65-.35-.75-1-.93a1.77,1.77,0,0,1-1.31-.81,2,2,0,0,1,.11-1.56c.94-6.93,6.52-7.68,8.88-7.68.35,0,.66,0,.92,0a5.94,5.94,0,0,1,2.07.51.65.65,0,0,1,.16.09c2.77,2.28,2.93,6,3.08,9.52,0,1,.09,2,.19,3l.06.65c0,.75-.1,1.49-.16,2.14L646.31,911a.65.65,0,0,1-.15.45,4,4,0,0,1-3,1.43A3.1,3.1,0,0,1,640.68,911.63Zm-4.17-142c.06-.73.12-1.47.17-2.1l0-.54c-.11-1-.16-2.06-.21-3.1-.14-3.4-.28-6.61-2.55-8.54a4.93,4.93,0,0,0-1.58-.37c-.23,0-.52,0-.83,0-3.09,0-6.92,1.15-7.64,6.67a.75.75,0,0,1,0,.16,2.5,2.5,0,0,0-.18.56,2.15,2.15,0,0,0,.49.16,2.26,2.26,0,0,1,2,2.07.9.9,0,0,1,0,.16l15.13,145.45a5.51,5.51,0,0,0,.45.73,2.17,2.17,0,0,0,3.32,0Z" transform="translate(-6.07 -114.87)"/><polygon class="cls-89" points="730.64 922.27 735.68 922.27 737.69 792.31 729.14 792.31 730.64 922.27"/><path class="cls-90" d="M736.08,1037.15l-1.51-130a.63.63,0,0,1,.18-.45.64.64,0,0,1,.45-.19h8.55a.66.66,0,0,1,.46.19.6.6,0,0,1,.18.45l-2,130a.63.63,0,0,1-.63.63h-5A.63.63,0,0,1,736.08,1037.15Zm7-129.33h-7.28l1.5,128.69h3.78Z" transform="translate(-6.07 -114.87)"/><path class="cls-91" d="M738.57,907.18a286.09,286.09,0,0,1,.63,29.58c-.17,11.87.09,23.73.14,35.6.11,21.6-.13,43.19-.19,64.78h-2.44l-1.51-130Z" transform="translate(-6.07 -114.87)"/><path class="cls-122" d="M736.08,1037.15l-1.51-130a.63.63,0,0,1,.18-.45.64.64,0,0,1,.45-.19h3.37a.64.64,0,0,1,.64.58,290.45,290.45,0,0,1,.62,29.64c-.11,8.1,0,16.33,0,24.29,0,3.77.08,7.53.1,11.3.06,14.38,0,29-.09,43.12q-.06,10.83-.1,21.67a.64.64,0,0,1-.64.63h-2.44A.63.63,0,0,1,736.08,1037.15Zm2.54-21.67c.08-14.13.15-28.75.09-43.12q0-5.64-.1-11.29c-.08-8-.16-16.21,0-24.32.12-8.93.27-19-.58-28.93h-2.15l1.5,128.69h1.18Q738.55,1026,738.62,1015.48Z" transform="translate(-6.07 -114.87)"/><polygon class="cls-87" points="735.61 794.64 733.93 794.64 733.93 915.49 735.61 794.64"/><polygon class="cls-91" points="641.85 922.27 646.88 922.27 648.9 792.31 640.35 792.31 641.85 922.27"/><path class="cls-123" d="M647.28,1037.15l-1.51-130a.63.63,0,0,1,.64-.64H655a.64.64,0,0,1,.45.19.61.61,0,0,1,.19.45l-2,130a.64.64,0,0,1-.64.63h-5A.64.64,0,0,1,647.28,1037.15Zm7-129.33h-7.26l1.5,128.69h3.77Z" transform="translate(-6.07 -114.87)"/><path class="cls-94" d="M649.78,907.18a291.8,291.8,0,0,1,.63,29.58c-.17,11.87.08,23.73.13,35.6.11,21.6-.12,43.19-.18,64.78h-2.45l-1.5-130Z" transform="translate(-6.07 -114.87)"/><polygon class="cls-87" points="646.81 794.64 645.14 794.64 645.14 915.49 646.81 794.64"/><rect class="cls-95" x="737.47" y="1002.16" width="3.79" height="11.6" transform="translate(-121.92 -18.63) rotate(-6.91)"/><path class="cls-83" d="M737.79,1014.45a.59.59,0,0,1-.24-.43l-1.4-11.51a.64.64,0,0,1,.56-.71l3.77-.46a.63.63,0,0,1,.46.14.62.62,0,0,1,.24.42l1.4,11.52a.66.66,0,0,1-.55.71l-3.77.45h-.08A.61.61,0,0,1,737.79,1014.45Zm2.21-11.77-2.51.31,1.24,10.26,2.51-.31Z" transform="translate(-6.07 -114.87)"/><polygon class="cls-87" points="733.45 887.24 734.86 898.75 735.37 898.69 733.97 887.17 733.45 887.24"/><polygon class="cls-83" points="730.72 887.57 732.12 899.08 734 898.85 732.6 887.34 730.72 887.57"/><rect class="cls-83" x="643.27" y="1006.06" width="11.6" height="3.8" transform="translate(-493.74 1273.99) rotate(-75.75)"/><path class="cls-84" d="M649.32,1014.67l-3.67-.94a.55.55,0,0,1-.39-.29.56.56,0,0,1-.07-.47l2.85-11.25a.64.64,0,0,1,.77-.46l3.68.94a.59.59,0,0,1,.39.28.68.68,0,0,1,.07.48l-2.85,11.25a.62.62,0,0,1-.62.47Zm-.21-12-2.54,10,2.45.61,2.53-10Z" transform="translate(-6.07 -114.87)"/><polygon class="cls-87" points="645.26 887.68 642.41 898.93 642.92 899.05 645.76 887.81 645.26 887.68"/><polygon class="cls-94" points="642.59 887.01 639.74 898.25 641.57 898.72 644.43 887.47 642.59 887.01"/><polygon class="cls-91" points="733.64 935.81 738.68 935.81 740.69 805.85 732.13 805.85 733.64 935.81"/><path class="cls-124" d="M739.08,1050.68l-1.51-130a.67.67,0,0,1,.18-.46.65.65,0,0,1,.45-.18h8.56a.63.63,0,0,1,.63.65l-2,130a.64.64,0,0,1-.63.63h-5A.63.63,0,0,1,739.08,1050.68Zm7-129.33h-7.27L740.33,1050h3.79Z" transform="translate(-6.07 -114.87)"/><path class="cls-97" d="M741.57,920.71a289,289,0,0,1,.63,29.58c-.17,11.87.07,23.73.14,35.6.1,21.6-.13,43.19-.19,64.78h-2.44l-1.51-130Z" transform="translate(-6.07 -114.87)"/><polygon class="cls-87" points="738.61 808.18 736.93 808.18 736.93 929.02 738.61 808.18"/><polygon class="cls-91" points="637.58 935.81 642.61 935.81 644.62 805.85 636.06 805.85 637.58 935.81"/><path class="cls-125" d="M643,1050.68l-1.52-130a.62.62,0,0,1,.64-.64h8.55a.64.64,0,0,1,.46.19.63.63,0,0,1,.18.46l-2,130a.63.63,0,0,1-.63.63h-5A.63.63,0,0,1,643,1050.68Zm7-129.33h-7.27l1.5,128.69h3.78Z" transform="translate(-6.07 -114.87)"/><path class="cls-97" d="M645.5,920.71a289,289,0,0,1,.63,29.58c-.16,11.87.08,23.73.14,35.6.1,21.6-.13,43.19-.19,64.78h-2.44l-1.51-130Z" transform="translate(-6.07 -114.87)"/><polygon class="cls-87" points="642.54 808.18 640.86 808.18 640.86 929.02 642.54 808.18"/><rect class="cls-83" x="641.46" y="801.19" width="94.26" height="10.56"/><path class="cls-84" d="M646.9,926.62V916.06a.64.64,0,0,1,.63-.64h94.26a.64.64,0,0,1,.64.64v10.56a.64.64,0,0,1-.64.64H647.53A.64.64,0,0,1,646.9,926.62Zm94.25-9.93h-93V926h93Z" transform="translate(-6.07 -114.87)"/><g class="cls-99"><rect class="cls-97" x="641.46" y="801.19" width="94.26" height="7.64"/></g><path class="cls-91" d="M744.12,911.38l5.36.21v7.93s-3,2.47-6.23,1.66H644.81s-6.47,1.3-6.4-4.58l.06-5.88Z" transform="translate(-6.07 -114.87)"/><path class="cls-126" d="M743.25,921.81l-98.32,0c-.07,0-3.73.76-5.81-1.35a5.12,5.12,0,0,1-1.35-3.85l.06-5.88a.64.64,0,0,1,.64-.63h0l105.67.67,5.36.21a.63.63,0,0,1,.61.63v7.93a.64.64,0,0,1-.22.49,9.26,9.26,0,0,1-5.29,2h0A5.05,5.05,0,0,1,743.25,921.81Zm5.59-9.6-4.73-.19-105-.67-.05,5.25a3.92,3.92,0,0,0,1,2.95c1.58,1.6,4.47,1,4.79,1l98.59,0a5.39,5.39,0,0,0,1.2.14h0a7.81,7.81,0,0,0,4.24-1.49Z" transform="translate(-6.07 -114.87)"/><path class="cls-97" d="M638.47,910.72l105.65.66,5.36.21v1.69c-5.56,5.59-29.78,3.28-34.72,3.27-14.11,0-28.89-1.57-42.86.74-6,1-13.71,1.29-19.82,3.89h-7.27s-6.47,1.3-6.4-4.58Z" transform="translate(-6.07 -114.87)"/><g class="cls-101"><path class="cls-102" d="M747.34,917.66c.2-.07-.42,2.11-4.34,2H681.16C680.84,919.67,740.14,920.09,747.34,917.66Z" transform="translate(-6.07 -114.87)"/></g><path class="cls-91" d="M622.79,769.73c-.18-2.36-.63-5.81.4-8.23,1.55-1.71,4.35-2.2,6.51-2a5.77,5.77,0,0,1,1.86.45c3.32,2.72,2.6,7.7,3.06,12.13l.06.54c0,.73-.1,1.48-.17,2.21L643,916.22c-1.13,1.33-3.25,1.82-4.49.18a6.75,6.75,0,0,1-.56-.93L622.85,769.91A1.27,1.27,0,0,0,622.79,769.73Z" transform="translate(-6.07 -114.87)"/><path class="cls-83" d="M638.05,916.79a5.5,5.5,0,0,1-.62-1,.81.81,0,0,1-.07-.22L622.19,770a1,1,0,0,1,0-.18l-.08-.88c-.19-2.39-.45-5.37.53-7.65a.45.45,0,0,1,.11-.17c1.86-2.06,5-2.27,6.21-2.27.28,0,.56,0,.82,0a6.48,6.48,0,0,1,2.07.5.56.56,0,0,1,.15.1c2.77,2.28,2.93,6,3.09,9.52.05,1,.09,2,.19,3l.06.64c0,.75-.1,1.49-.17,2.15l8.53,141.43a.63.63,0,0,1-.15.45,4,4,0,0,1-2.95,1.44h0A3.11,3.11,0,0,1,638.05,916.79Zm-4.17-142c.06-.73.12-1.47.17-2.1l-.06-.54c-.11-1-.15-2.06-.2-3.1-.14-3.4-.29-6.61-2.56-8.54a4.87,4.87,0,0,0-1.58-.37c-.23,0-.48,0-.72,0a7.26,7.26,0,0,0-5.19,1.78c-.81,2-.57,4.73-.39,6.94l.09.87a.39.39,0,0,1,0,.18l15.13,145.45a5.58,5.58,0,0,0,.46.73,2.17,2.17,0,0,0,3.32,0Z" transform="translate(-6.07 -114.87)"/><g class="cls-103"><path class="cls-97" d="M623.19,761.5c1.55-1.71,4.35-2.2,6.51-2a5.77,5.77,0,0,1,1.86.45,6.63,6.63,0,0,1,2,3c-5.4,7.78-2,20.81-2.09,29.33-.24,15.44,1.27,30.71,2.45,46.09,1.15,14.9,1.62,29.86,3.51,44.69,1.45,11.35,3.3,22.66,4.55,34.05a2.59,2.59,0,0,1-3.44-.67,6.75,6.75,0,0,1-.56-.93L622.85,769.91a1.27,1.27,0,0,0-.06-.18C622.61,767.37,622.16,763.92,623.19,761.5Z" transform="translate(-6.07 -114.87)"/></g><path class="cls-104" d="M640.2,912.18c-.4-2.45,1.77-6,3.89-6.82,20.46-7.89,44-7.1,65.52-7,6,0,11.92.33,17.84.86,5.6.48,15.75,2.81,20.72,5.76,3.74,2.23,8.28,6.8,3.33,10a5.39,5.39,0,0,1-3.09,1.15c-1.9-.1-3.89.09-5.91.06-8.07-.12-16.15-.5-24.24-.42-10.47.13-21,.11-31.46-.08q-14-.24-28.06-.2c-4.49,0-8.81.92-13.32.21-2-.31-4.22-.83-5-3A3.25,3.25,0,0,1,640.2,912.18Z" transform="translate(-6.07 -114.87)"/><path class="cls-105" d="M742.49,916.88c-2.85,0-5.69-.12-8.54-.2-5.14-.14-10.45-.28-15.68-.22-10.55.13-21.27.1-31.48-.09-7.7-.13-15.66-.2-24.35-.2h-3.69c-1.59,0-3.2.12-4.75.24a40.57,40.57,0,0,1-8.69,0c-2.33-.37-4.62-1-5.54-3.37a3.4,3.4,0,0,1-.19-.73c-.44-2.63,1.8-6.56,4.27-7.51,17-6.56,36.11-7.11,52.66-7.11,2.79,0,5.55,0,8.3,0l4.81,0c5.7,0,11.55.3,17.89.85,5.47.48,15.8,2.78,21,5.86,2.77,1.65,5.74,4.39,5.81,7.16a4.6,4.6,0,0,1-2.46,4,6.16,6.16,0,0,1-3.31,1.25h-.17c-1,0-2.09,0-3.17,0-.73,0-1.47,0-2.21,0Zm6.06-1.34a4.9,4.9,0,0,0,2.6-1,3.44,3.44,0,0,0,1.89-2.87c0-2.25-2.83-4.69-5.19-6.09-5-2.95-15.24-5.23-20.45-5.69-6.3-.55-12.12-.83-17.79-.85l-4.81,0c-2.74,0-5.5,0-8.29,0-16.44,0-35.39.54-52.2,7-1.76.68-3.85,3.89-3.49,6.12a3.36,3.36,0,0,0,.14.48c.71,1.83,2.72,2.29,4.55,2.58a39.86,39.86,0,0,0,8.4,0c1.57-.12,3.19-.23,4.83-.24h3.7c8.7,0,16.67.07,24.37.2,10.21.19,20.91.21,31.45.09,5.23-.06,10.57.08,15.72.22,2.84.08,5.68.16,8.53.19H743c.73,0,1.45,0,2.17,0s1.42,0,2.12,0C747.67,915.52,748.06,915.52,748.55,915.54Z" transform="translate(-6.07 -114.87)"/><path class="cls-106" d="M644.09,905.36c1.78-.69,3.6-1.29,5.44-1.86-.18,1.92,1.76,3.62,3.65,4,7.85,1.42,16,.93,24,1.19,8.72.27,17.44.61,26.17.86,9.25.27,18.46.09,27.71.15,4,0,8,.35,11.94.52,2.34.09,5.32.26,7.41-1.11a4.28,4.28,0,0,0,1.35-1.27c2.13,2.26,3.09,5-.24,7.23a5.39,5.39,0,0,1-3.09,1.15c-1.9-.1-3.89.09-5.91.06-8.07-.12-16.15-.5-24.24-.42-10.47.13-21,.11-31.46-.08q-14-.24-28.06-.2c-4.49,0-8.81.92-13.32.21-2-.31-4.22-.83-5-3a3.25,3.25,0,0,1-.17-.61C639.8,909.73,642,906.18,644.09,905.36Z" transform="translate(-6.07 -114.87)"/><path class="cls-107" d="M676.53,902.33h0c-3.79-.28-7.83.37-11.75.43,15.32-2.48,31.39-2.1,46.53-2,6,0,11.9.34,17.83.86a71.11,71.11,0,0,1,16.07,3.66c-1.19,0-2.51-.21-3-.27-2.58-.3-5.16-.68-7.74-.89-8.83-.71-17.69-.84-26.53-1.09-10-.28-19.93-.76-29.89-.68Z" transform="translate(-6.07 -114.87)"/><path class="cls-104" d="M634.32,767.05s.92-8.4,4.09-3.88,8.52,140.33,8.52,140.33l-4.51,2.44Z" transform="translate(-6.07 -114.87)"/><path class="cls-105" d="M642.1,906.49a.65.65,0,0,1-.32-.53l-8.09-139c.15-1.36.8-5.78,3-5.78.75,0,1.49.52,2.24,1.6,3.18,4.55,8.09,126.75,8.65,140.68a.66.66,0,0,1-.34.58l-4.51,2.43a.67.67,0,0,1-.3.08A.76.76,0,0,1,642.1,906.49Zm-4.22-143c-.69-1-1.09-1.07-1.2-1.07-.69,0-1.48,2.47-1.72,4.55l8,137.89,3.27-1.77C644.12,848.63,640.12,766.76,637.88,763.53Z" transform="translate(-6.07 -114.87)"/><path class="cls-106" d="M637.66,762.32c-.62,10.8-1.09,21.51-.66,32.46.57,14.68,1.75,29.34,3,44,1.3,14.83,1.74,29.82,3.67,44.58.81,6.13-.12,14.5,2.73,20.43l-4,2.17-8.1-138.89S635.1,760,637.66,762.32Z" transform="translate(-6.07 -114.87)"/><path class="cls-107" d="M637.26,763.39s-3.1,2,.91,42.84C638.17,806.23,635.38,771.88,637.26,763.39Z" transform="translate(-6.07 -114.87)"/><g class="cls-101"><path class="cls-102" d="M632.79,774.22,640.16,893S632.12,805.19,632.79,774.22Z" transform="translate(-6.07 -114.87)"/></g><polygon class="cls-83" points="872.47 761.26 881.98 935.87 890.61 935.8 896.8 761.26 872.47 761.26"/><path class="cls-84" d="M888.05,1051.31a.61.61,0,0,1-.64-.55l-9.5-174.6a.54.54,0,0,1,.16-.43.71.71,0,0,1,.47-.17h24.33a.68.68,0,0,1,.45.17.52.52,0,0,1,.18.41l-6.19,174.54a.62.62,0,0,1-.63.57l-8.63.06Zm-8.84-174.6,9.43,173.44,7.42-.06,6.15-173.38Z" transform="translate(-6.07 -114.87)"/><path class="cls-85" d="M883.91,876.13c6,13,7.77,27.31,8.28,41.3.64,17.35.43,34.75.75,52.11.33,18,.58,35.93-.29,53.87-.45,8.86-1.17,18.16-.61,27.28l4.63,0,6.2-174.54Z" transform="translate(-6.07 -114.87)"/><polygon class="cls-84" points="869.15 759.81 871.19 762.71 897.44 762.71 900.13 759.81 869.15 759.81"/><path class="cls-84" d="M903.51,878.16H877.25a.65.65,0,0,1-.53-.27l-2.05-2.9a.55.55,0,0,1,0-.59.64.64,0,0,1,.56-.3h31a.63.63,0,0,1,.58.34.53.53,0,0,1-.09.62L904,878A.65.65,0,0,1,903.51,878.16ZM877.6,877h25.61l1.62-1.74H876.37Z" transform="translate(-6.07 -114.87)"/><rect class="cls-86" x="868.12" y="753.94" width="32.01" height="5.87"/><path class="cls-84" d="M906.19,875.26h-32a.61.61,0,0,1-.64-.58v-5.87a.61.61,0,0,1,.64-.58h32a.61.61,0,0,1,.64.58v5.87A.61.61,0,0,1,906.19,875.26Zm-31.37-1.16h30.74v-4.71H874.82Z" transform="translate(-6.07 -114.87)"/><path class="cls-87" d="M880.9,884.59,890.19,1040S889.52,912.1,880.9,884.59Z" transform="translate(-6.07 -114.87)"/><rect class="cls-84" x="876.77" y="885.22" width="20.03" height="8.56"/><path class="cls-83" d="M902.87,1009.22h-20a.6.6,0,0,1-.64-.57v-8.56a.61.61,0,0,1,.64-.58h20a.61.61,0,0,1,.63.58v8.56A.6.6,0,0,1,902.87,1009.22Zm-19.4-1.15h18.76v-7.41H883.47Z" transform="translate(-6.07 -114.87)"/><polygon class="cls-83" points="686.69 761.26 696.2 935.87 704.83 935.8 711.01 761.26 686.69 761.26"/><path class="cls-84" d="M702.26,1051.31a.6.6,0,0,1-.63-.55l-9.51-174.6a.59.59,0,0,1,.17-.43.71.71,0,0,1,.47-.17h24.32a.69.69,0,0,1,.46.17.55.55,0,0,1,.18.41l-6.2,174.54a.62.62,0,0,1-.62.57l-8.64.06Zm-8.84-174.6,9.44,173.44,7.41-.06,6.16-173.38Z" transform="translate(-6.07 -114.87)"/><path class="cls-85" d="M698.13,876.13c6,13,7.77,27.31,8.28,41.3.63,17.35.43,34.75.75,52.11.32,18,.58,35.93-.3,53.87-.44,8.86-1.16,18.16-.6,27.28l4.63,0,6.19-174.54Z" transform="translate(-6.07 -114.87)"/><polygon class="cls-84" points="683.37 759.81 685.41 762.71 711.66 762.71 714.35 759.81 683.37 759.81"/><path class="cls-84" d="M717.73,878.16H691.47a.65.65,0,0,1-.54-.27l-2-2.9a.55.55,0,0,1,0-.59.64.64,0,0,1,.56-.3h31a.65.65,0,0,1,.58.34.55.55,0,0,1-.1.62L718.21,878A.67.67,0,0,1,717.73,878.16ZM691.81,877h25.62l1.61-1.74H690.59Z" transform="translate(-6.07 -114.87)"/><rect class="cls-86" x="682.33" y="753.94" width="32.01" height="5.87"/><path class="cls-84" d="M720.41,875.26h-32a.61.61,0,0,1-.63-.58v-5.87a.61.61,0,0,1,.63-.58h32a.61.61,0,0,1,.64.58v5.87A.61.61,0,0,1,720.41,875.26ZM689,874.1h30.73v-4.71H689Z" transform="translate(-6.07 -114.87)"/><path class="cls-87" d="M695.11,884.59,704.4,1040S703.74,912.1,695.11,884.59Z" transform="translate(-6.07 -114.87)"/><rect class="cls-84" x="690.99" y="885.22" width="20.03" height="8.56"/><path class="cls-83" d="M717.08,1009.22h-20a.61.61,0,0,1-.64-.57v-8.56a.61.61,0,0,1,.64-.58h20a.61.61,0,0,1,.64.58v8.56A.61.61,0,0,1,717.08,1009.22Zm-19.39-1.15h18.76v-7.41H697.69Z" transform="translate(-6.07 -114.87)"/><rect class="cls-84" x="676.82" y="734.25" width="228.4" height="20.75"/><path class="cls-83" d="M911.29,870.46H682.89a.62.62,0,0,1-.64-.58V849.12a.61.61,0,0,1,.64-.58h228.4a.61.61,0,0,1,.63.58v20.76A.61.61,0,0,1,911.29,870.46Zm-227.77-1.17H910.66V849.7H683.52Z" transform="translate(-6.07 -114.87)"/><path class="cls-113" d="M870.64,860.35c-23.13.42-46.24,1.16-69.37,1.67-50.48,1.12,136.34-.29,85.86-.69-28.09-.22-56.19-.3-84.29-.82S747,859.23,719,859.89s62.07,2.63,34.2,2.67c-13.91,0-27.86-.6-41.76.21-9.44.55-19.05,2.4-28.55,2v5.08h228.4V857.53C897.89,859.6,884.16,860.11,870.64,860.35Z" transform="translate(-6.07 -114.87)"/><rect class="cls-114" x="676.82" y="734.64" width="228.4" height="6.69"/><rect class="cls-83" x="655.64" y="731.41" width="267.37" height="11.17"/><path class="cls-83" d="M929.08,858H661.71a.61.61,0,0,1-.64-.58V846.28a.6.6,0,0,1,.64-.58H929.08a.6.6,0,0,1,.63.58v11.17A.61.61,0,0,1,929.08,858Zm-266.74-1.16h266.1v-10H662.34Z" transform="translate(-6.07 -114.87)"/><path class="cls-115" d="M854.26,851.42c-55.94-.35,5.92-.83-50-1.14-25.76-.13-51.44-.4-77.09,2-16.7,1.55-48.61,3.6-65.44,1.14v4.06H929.08V847C825.31,854,958.24,852.06,854.26,851.42Z" transform="translate(-6.07 -114.87)"/><polygon class="cls-116" points="923.01 731.07 655.64 731.07 662.68 724.17 915.1 724.17 923.01 731.07"/><path class="cls-104" d="M929.11,846.51H661.71a.65.65,0,0,1-.59-.35.55.55,0,0,1,.12-.62l7-6.91a.73.73,0,0,1,.47-.17H921.17a.65.65,0,0,1,.44.16l7.8,6.8a.57.57,0,0,1,.33.51A.61.61,0,0,1,929.11,846.51Zm-266-1.16H927.49l-6.57-5.74H669Z" transform="translate(-6.07 -114.87)"/><rect class="cls-127" x="136.31" y="39.41" width="1104.56" height="207.41"/><rect class="cls-128" x="171.29" y="68.01" width="1032.92" height="153.19"/><path class="cls-129" d="M472.55,232.15h5.57V212.4H427.34v19.75h5L413.15,289.5v-4.44H393.4V291H372V232.15h6.09V212.4H341.19v19.75h6.1V291h-6.1v19.74H442.88V291h-4.12l2.57-7.81h21.95l2.65,7.81h-4.08v19.74H497.7V291h-5.61Zm-14.71,34.78h-11l5.48-16.51Z" transform="translate(-6.07 -114.87)"/><path class="cls-129" d="M532.47,212.4v19.75h6.1V291h-6.1v19.74h60.19l15.69-15.68V267.25l-7.48-7.48,7.48-7.48v-24.2L592.66,212.4ZM563.24,250V232.15h16.42l4,3.92v10l-4,3.92Zm0,41V269.57h16.39l4,4V287.2l-4,3.81Z" transform="translate(-6.07 -114.87)"/><path class="cls-129" d="M982.69,291l-19.53-58.86h5.56V212.4H917.94v19.75h5L903.25,291h-3.56v-33.5H867.47v17.57H875v12.15L871.15,291H854.57l-3.75-3.75V236l3.77-3.87h16.53L875,236v12.21h24.68V228.1l-15.53-15.7H841.68l-13.77,13.78V212.4H756.53v13.78L742.76,212.4H682.57v13.78L668.8,212.4H626.18L610.5,228.09v67l15.68,15.68H668.8L682.57,297v13.77h60.19L756.53,297v13.77h71.38V297l13.77,13.77h42.48L897.78,297v13.76h35.7V291h-4.12l2.58-7.81h21.94l2.65,7.81h-4.08v19.74H988.3V291Zm-34.24-24.08h-11L943,250.42ZM762.62,291h-4.18V232.15h4.18ZM808.3,287V291h-21V271.45h7.23v3.92h19.74V247.79H794.53v4.06H787.3v-19.7h21v4.06H826V287Zm-95,4.06V232.15h16.41l4,3.92V287.2l-4,3.81Zm-24.68,0h-4.18V232.15h4.18Zm-49.59,0-3.75-3.75V236l3.77-3.87h16.79l3.78,3.87v51.24L655.91,291Z" transform="translate(-6.07 -114.87)"/><path class="cls-61" d="M345.19,306.75V295h6.1V228.15h-6.1V216.4h28.86v11.75H368V295H397.4v-5.95h11.75v17.69Z" transform="translate(-6.07 -114.87)"/><path class="cls-61" d="M411.18,306.75V295h4.35l22.33-66.86h-6.52V216.4h42.78v11.75H467L489.2,295h4.5v11.74H465.85V295h5.66l-5.37-15.81h-27.7L433.22,295h5.66v11.74Zm52.21-35.82-11-33.21-11,33.21Z" transform="translate(-6.07 -114.87)"/><path class="cls-61" d="M536.47,306.75V295h6.1V228.15h-6.1V216.4H591l13.35,13.35v20.88l-9.14,9.14,9.14,9.13v24.51L591,306.75ZM581.29,254l6.38-6.24V234.39l-6.38-6.24h-22V254Zm0,41,6.38-6.09V272l-6.38-6.38h-22V295Z" transform="translate(-6.07 -114.87)"/><path class="cls-61" d="M614.5,293.41V229.75l13.34-13.35h39.3l13.34,13.35v63.66l-13.34,13.34h-39.3Zm22.91,1.6h20.16l6.09-6.09V234.39l-6.09-6.24H637.41l-6.09,6.24v54.53Z" transform="translate(-6.07 -114.87)"/><path class="cls-61" d="M686.57,306.75V295h6.09V228.15h-6.09V216.4H741.1l13.34,13.35v63.66L741.1,306.75ZM731.38,295l6.38-6.09V234.39l-6.38-6.24h-22V295Z" transform="translate(-6.07 -114.87)"/><path class="cls-61" d="M760.53,306.75V295h6.09V228.15h-6.09V216.4h63.38v15.81H812.3v-4.06h-29v27.7h15.23v-4.06h11.74v19.58H798.53v-3.92H783.3V295h29V291h11.61v15.8Z" transform="translate(-6.07 -114.87)"/><path class="cls-61" d="M830,293.41V229.75l13.34-13.35h39.15l13.2,13.35v14.5H879v-9.86l-6.23-6.24H852.91l-6.09,6.24v54.53l6.09,6.09h19.87l6.23-6.09V271.08h-7.54v-9.57h24.22v31.9l-13.2,13.34H843.34Z" transform="translate(-6.07 -114.87)"/><path class="cls-61" d="M901.78,306.75V295h4.35l22.34-66.86h-6.53V216.4h42.78v11.75h-7.11L979.8,295h4.5v11.74H956.45V295h5.66l-5.37-15.81H929.05L923.82,295h5.66v11.74ZM954,270.93l-11-33.21-11,33.21Z" transform="translate(-6.07 -114.87)"/></g></g></svg>